<svg width="20" height="20" viewBox="0 0 20 20" fill="none" xmlns="http://www.w3.org/2000/svg">
<path d="M7.49967 5.83325H4.99967C4.55765 5.83325 4.13372 6.00885 3.82116 6.32141C3.5086 6.63397 3.33301 7.05789 3.33301 7.49992V14.9999C3.33301 15.4419 3.5086 15.8659 3.82116 16.1784C4.13372 16.491 4.55765 16.6666 4.99967 16.6666H12.4997C12.9417 16.6666 13.3656 16.491 13.6782 16.1784C13.9907 15.8659 14.1663 15.4419 14.1663 14.9999V12.4999" stroke="white" stroke-width="1.16667" stroke-linecap="round" stroke-linejoin="round"/>
<path d="M7.5 12.5H10L17.0833 5.41669C17.4149 5.08517 17.6011 4.63553 17.6011 4.16669C17.6011 3.69785 17.4149 3.24821 17.0833 2.91669C16.7518 2.58517 16.3022 2.39893 15.8333 2.39893C15.3645 2.39893 14.9149 2.58517 14.5833 2.91669L7.5 10V12.5Z" stroke="white" stroke-width="1.16667" stroke-linecap="round" stroke-linejoin="round"/>
<path d="M13.333 4.16675L15.833 6.66675" stroke="white" stroke-width="1.16667" stroke-linecap="round" stroke-linejoin="round"/>
</svg>
