<svg width="1474" height="760" viewBox="0 0 1474 760" fill="none" xmlns="http://www.w3.org/2000/svg">
<g clip-path="url(#clip0)">
<path d="M90.3938 761.616C90.3938 761.616 -90.7053 580.16 59.7653 383.702C193.274 209.399 348.932 221.313 463.134 292.047C511.775 322.177 652.01 295.759 771.369 118.394C934.139 -123.482 1498.37 23.2144 1395.5 395.351C1345.71 575.436 1547.01 581.982 1444.44 761.995L90.3938 761.616Z" fill="#EBF3FA"/>
<path d="M898.01 685.493C898.005 685.389 898.582 673.673 892.911 670.974L893.311 670.589C895.91 671.493 898.785 674.296 899.939 678.246C900.797 681.185 900.147 681.828 900.147 681.937L898.01 685.493Z" fill="#A4C8FC"/>
<path d="M860.437 655.131C860.437 655.131 862.376 670.216 871.587 674.628C880.799 679.041 893.795 671.119 893.795 671.119C893.795 671.119 891.856 656.034 882.644 651.621C873.433 647.204 860.437 655.131 860.437 655.131Z" fill="#A4C8FC"/>
<path d="M897.043 707.478C896.934 706.886 894.891 693.088 900.121 677.712C905.148 662.938 902.361 650.407 902.341 650.282H906.037C906.13 650.817 906.39 663.114 902.45 679.965C898.904 695.128 905.522 707.478 904.113 707.478H897.043Z" fill="#A4C8FC"/>
<path d="M904.81 666.738C904.831 666.66 906.593 656.548 911.344 655.4C909.223 655.675 906.525 657.196 905.018 660.02C903.895 662.123 904.29 662.715 904.269 662.798L904.81 666.738Z" fill="#A4C8FC"/>
<path d="M920.051 667.781C912.95 666.348 908.989 656.324 908.989 656.324C908.989 656.324 916.537 648.621 923.633 650.048C930.734 651.481 934.695 661.505 934.695 661.505C934.695 661.505 927.147 669.214 920.051 667.781Z" fill="#A4C8FC"/>
<path d="M864.907 635.108C853.606 617.972 858.352 594.924 875.517 583.638C892.682 572.353 915.757 577.092 927.059 594.233C938.36 611.369 933.614 634.418 916.449 645.703C899.284 656.994 876.208 652.249 864.907 635.108Z" fill="#FFB93E"/>
<path d="M914.869 643.315C907.305 648.288 898.255 650.022 889.386 648.2C880.518 646.378 872.887 641.213 867.907 633.66C862.927 626.107 861.191 617.069 863.015 608.213C864.84 599.357 870.012 591.736 877.576 586.763C885.139 581.79 894.19 580.056 903.058 581.878C911.926 583.7 919.558 588.866 924.538 596.419C929.518 603.972 931.254 613.009 929.429 621.866C927.604 630.722 922.432 638.337 914.869 643.315ZM878.688 588.45C864.008 598.106 859.933 617.889 869.601 632.549C879.27 647.209 899.081 651.278 913.761 641.628C928.441 631.973 932.517 612.189 922.853 597.53C913.179 582.87 893.368 578.795 878.688 588.45Z" fill="#FFA412"/>
<path d="M905.532 620.682C905.205 620.023 904.82 619.493 904.384 619.083C903.947 618.673 903.417 618.372 902.788 618.175C902.159 617.977 901.431 617.874 900.589 617.863C899.752 617.853 898.769 617.926 897.641 618.076C895.697 618.325 893.893 618.465 892.225 618.507C890.556 618.548 889.033 618.393 887.655 618.045C886.278 617.697 885.046 617.1 883.954 616.254C882.868 615.408 881.937 614.219 881.168 612.682C880.503 611.354 880.128 610.019 880.05 608.691C879.972 607.362 880.17 606.069 880.638 604.813C881.106 603.562 881.828 602.373 882.795 601.252C883.762 600.13 884.973 599.118 886.418 598.22L883.897 593.195L887.947 591.17L890.504 596.263C892.048 595.723 893.561 595.453 895.032 595.438C896.503 595.427 897.886 595.676 899.175 596.185C900.464 596.694 901.649 597.467 902.725 598.505C903.807 599.544 904.737 600.841 905.522 602.409L898.208 606.069C897.267 604.19 896.144 602.996 894.839 602.482C893.54 601.968 892.183 602.061 890.785 602.762C890.026 603.141 889.423 603.577 888.981 604.06C888.539 604.548 888.232 605.062 888.061 605.607C887.889 606.152 887.848 606.718 887.931 607.304C888.014 607.891 888.201 608.472 888.492 609.054C888.783 609.635 889.132 610.113 889.532 610.502C889.937 610.886 890.447 611.177 891.06 611.369C891.674 611.561 892.412 611.665 893.27 611.67C894.127 611.681 895.162 611.623 896.363 611.489C898.307 611.281 900.111 611.161 901.774 611.13C903.437 611.104 904.961 611.265 906.343 611.623C907.726 611.982 908.958 612.579 910.05 613.425C911.136 614.271 912.061 615.455 912.826 616.97C913.517 618.346 913.896 619.706 913.964 621.04C914.032 622.38 913.829 623.662 913.351 624.902C912.872 626.138 912.139 627.311 911.141 628.417C910.143 629.523 908.922 630.524 907.477 631.428L909.821 636.1L905.797 638.114L903.469 633.463C901.998 634.023 900.49 634.392 898.946 634.579C897.402 634.766 895.905 634.667 894.45 634.288C892.994 633.909 891.627 633.198 890.343 632.16C889.059 631.116 887.946 629.657 887.006 627.778L894.32 624.119C894.876 625.229 895.5 626.081 896.181 626.667C896.867 627.254 897.579 627.643 898.328 627.825C899.076 628.012 899.825 628.027 900.584 627.872C901.343 627.721 902.065 627.467 902.757 627.124C903.552 626.73 904.196 626.278 904.69 625.775C905.189 625.271 905.548 624.736 905.772 624.176C905.995 623.615 906.083 623.034 906.042 622.442C905.99 621.85 905.823 621.263 905.532 620.682Z" fill="#FFA412"/>
<path d="M934.227 703.885V703.916L933.484 715.301L930.728 757.562H879.229L876.198 715.877L875.361 704.389L875.325 703.885H934.227Z" fill="#B4C9F7"/>
<path d="M934.227 703.916L933.484 715.301C929.606 713.951 918.824 710.706 904.773 710.706C887.037 710.706 876.193 715.877 876.193 715.877L875.356 704.389L934.227 703.916Z" fill="#9BB8EA"/>
<path d="M936.02 709.902H873.459L872.741 702.64H936.81L936.02 709.902Z" fill="#B4C9F7"/>
<path d="M931.524 759.82H878.127L877.513 757.286H932.2L931.524 759.82Z" fill="#B4C9F7"/>
<path d="M1253.99 487.696L1248.99 491.75C1248.99 491.75 1235.31 486.85 1232.23 503.082C1232.23 503.082 1231.4 510.002 1235.79 510.012C1240.18 510.023 1238.37 509.255 1244.58 509.436C1250.79 509.618 1255.95 506.348 1256.86 501.312L1259.83 497.045L1253.99 487.696Z" fill="#EA8E50"/>
<path d="M1254.55 496.401C1250.57 492.243 1250.88 489.165 1250.88 489.165C1250.88 489.165 1297.08 451.399 1301.76 448.321C1304.95 446.224 1338.97 416.105 1354.87 397.749C1362.76 388.644 1372.53 392.174 1383.71 395.377L1392.91 398.014C1404.03 401.196 1406.92 416.723 1397.8 424.265C1372.11 445.513 1329.38 469.413 1321.38 474.432C1301.54 486.902 1262.68 501.717 1262.68 501.717C1262.68 501.717 1257.98 499.973 1254.55 496.401Z" fill="#1E3D70"/>
<path d="M1201.84 728.429C1201.84 728.429 1190.63 736.818 1173.45 732.385C1173.45 732.385 1159.61 729.234 1156.56 736.133C1156.56 736.133 1177.8 746.909 1183.18 749.853C1187.23 752.075 1191.46 755.579 1194.44 758.288C1196.81 760.432 1200.5 760.142 1202.51 757.665C1203.45 756.518 1204.51 755.153 1205.69 753.564C1208.96 749.131 1216.59 734.814 1216.59 734.814L1201.84 728.429Z" fill="#233862"/>
<path d="M1329.06 432.652C1334.9 389.821 1304.88 350.366 1261.99 344.526C1219.1 338.686 1179.59 368.672 1173.74 411.503C1167.89 454.334 1197.92 493.789 1240.81 499.629C1283.7 505.469 1323.21 475.483 1329.06 432.652Z" fill="#E2810E"/>
<path d="M1313.61 477.363C1344.22 446.796 1344.22 397.238 1313.61 366.671C1283 336.104 1233.37 336.104 1202.76 366.671C1172.15 397.238 1172.15 446.796 1202.76 477.363C1233.37 507.93 1283 507.93 1313.61 477.363Z" fill="#FFB93E"/>
<path d="M1207.7 473.363C1194.21 459.892 1186.78 441.988 1186.78 422.937C1186.78 403.89 1194.21 385.981 1207.7 372.51C1221.19 359.039 1239.12 351.621 1258.2 351.621C1277.27 351.621 1295.2 359.039 1308.69 372.51C1322.18 385.981 1329.61 403.885 1329.61 422.937C1329.61 441.983 1322.18 459.892 1308.69 473.363C1295.2 486.834 1277.27 494.252 1258.2 494.252C1239.12 494.247 1221.19 486.829 1207.7 473.363ZM1191.04 422.937C1191.04 459.913 1221.17 489.995 1258.2 489.995C1295.22 489.995 1325.35 459.913 1325.35 422.937C1325.35 385.96 1295.22 355.878 1258.2 355.878C1221.17 355.878 1191.04 385.96 1191.04 422.937Z" fill="#FFA412"/>
<path d="M1249.52 447.309C1250.13 448.404 1250.96 449.318 1252.01 450.05C1253.06 450.782 1254.31 451.301 1255.76 451.612C1257.22 451.924 1258.88 451.965 1260.73 451.747C1262.36 451.555 1263.91 451.155 1265.43 450.553C1266.94 449.946 1268.24 449.048 1269.34 447.864C1270.44 446.675 1271.25 445.17 1271.77 443.343C1272.3 441.515 1272.4 439.304 1272.1 436.703L1289.21 434.674C1289.73 439.065 1289.47 442.922 1288.42 446.239C1287.37 449.557 1285.79 452.391 1283.67 454.742C1281.55 457.094 1279.02 458.999 1276.09 460.458C1273.16 461.917 1270.08 463.007 1266.84 463.723L1268.14 474.599L1258.72 475.715L1257.42 464.787C1253.83 464.881 1250.51 464.528 1247.48 463.739C1244.45 462.95 1241.79 461.74 1239.52 460.115C1237.25 458.49 1235.39 456.466 1233.96 454.036C1232.53 451.607 1231.63 448.783 1231.24 445.559C1230.82 442.009 1231.08 438.858 1232.01 436.112C1232.95 433.365 1234.42 430.879 1236.44 428.652C1238.46 426.425 1240.95 424.38 1243.91 422.506C1246.86 420.632 1250.18 418.758 1253.84 416.873C1256.1 415.716 1257.98 414.625 1259.48 413.613C1260.98 412.601 1262.16 411.568 1263.02 410.519C1263.87 409.471 1264.43 408.375 1264.69 407.228C1264.96 406.081 1265.01 404.835 1264.85 403.48C1264.69 402.125 1264.34 400.885 1263.81 399.758C1263.28 398.632 1262.54 397.692 1261.61 396.924C1260.68 396.161 1259.54 395.61 1258.2 395.268C1256.86 394.925 1255.3 394.858 1253.52 395.071C1250.25 395.46 1247.76 396.861 1246.06 399.27C1244.37 401.679 1243.78 405.084 1244.31 409.476L1227.19 411.506C1226.76 407.846 1226.89 404.477 1227.58 401.404C1228.28 398.331 1229.47 395.6 1231.14 393.212C1232.82 390.824 1234.97 388.784 1237.56 387.102C1240.17 385.42 1243.14 384.159 1246.48 383.318L1245.07 371.399L1254.54 370.278L1255.94 382.03C1259.53 381.937 1262.82 382.321 1265.83 383.167C1268.83 384.019 1271.47 385.275 1273.75 386.936C1276.03 388.597 1277.87 390.643 1279.28 393.077C1280.69 395.512 1281.58 398.284 1281.95 401.393C1282.37 404.98 1282.12 408.152 1281.18 410.898C1280.25 413.644 1278.77 416.121 1276.75 418.332C1274.74 420.538 1272.24 422.573 1269.25 424.432C1266.27 426.29 1262.93 428.122 1259.22 429.939C1257.06 430.972 1255.25 431.99 1253.79 432.976C1252.33 433.968 1251.16 434.995 1250.28 436.065C1249.41 437.134 1248.83 438.281 1248.53 439.501C1248.24 440.726 1248.18 442.102 1248.37 443.644C1248.53 444.988 1248.91 446.213 1249.52 447.309Z" fill="#FFA412"/>
<path d="M1195.26 724.167C1195.26 724.167 1202.09 739.886 1217.84 736.994C1217.84 736.994 1249.99 710.478 1272.05 682.934C1279.21 673.985 1285.31 664.931 1288.9 656.646C1303.52 622.831 1343 572.399 1368.09 546.838L1305.3 524.153C1305.3 524.153 1285.19 564.556 1258.43 614.183C1239.14 649.944 1216.41 690.492 1195.26 724.167Z" fill="#2B478B"/>
<path d="M1258.43 614.183L1272.05 682.934C1279.21 673.984 1285.31 664.931 1288.9 656.646C1303.52 622.831 1343 572.399 1368.09 546.838L1305.3 524.153C1305.3 524.153 1285.19 564.556 1258.43 614.183Z" fill="#233862"/>
<path d="M1309.75 737.55C1309.75 737.55 1310.44 750.092 1295.21 751.763C1295.21 751.763 1286.51 751.81 1286.49 759.789L1330.74 759.929C1330.74 759.929 1332.03 756.71 1332.34 749.811C1332.58 744.516 1327.2 730.672 1327.2 730.672L1309.75 737.55Z" fill="#233862"/>
<path d="M1325.89 524.153C1325.89 524.153 1297.92 554.848 1280.16 610.149C1270.5 640.237 1297.87 715.887 1303.21 742.17C1303.21 742.17 1321.57 743.727 1334.12 738.879C1334.12 738.879 1335.08 684.59 1327.73 642.749C1323.63 619.332 1364.56 592.671 1382.46 550.358C1394.63 521.573 1379.82 522.061 1361.63 521.37L1325.89 524.153Z" fill="#2B478B"/>
<path d="M1358.19 387.211C1373.75 395.989 1405.61 387.891 1405.61 387.891C1405.61 387.891 1392.67 373.117 1398.55 349.326L1386.33 355.525L1373.2 362.18C1373.2 362.18 1372.36 366.379 1371.76 373.927C1371.61 375.869 1371.48 378.044 1371.38 380.416C1363.4 382.835 1358.19 387.211 1358.19 387.211Z" fill="#FFB07B"/>
<path d="M1301.12 522.57C1301.12 525.3 1304.27 526.609 1304.94 526.744C1311.22 527.891 1328.74 534.696 1344.54 536.259C1357.83 537.65 1370.17 536.332 1383.74 533.611C1385.53 533.248 1389.75 532.116 1390.05 530.398C1390.42 528.519 1442.35 424.676 1401.98 380.063C1401.04 379.014 1393.07 380.904 1385.78 382.627C1379.05 384.221 1372.88 383.333 1367.36 381.122L1360.53 384.714C1352.13 389.386 1336.25 405.977 1334.39 418.997C1333.45 425.62 1329.66 430.521 1328.56 436.345C1328.16 438.5 1327.74 440.607 1327.31 442.658C1326.49 446.681 1325.63 450.507 1324.76 454.151C1322.38 463.998 1319.87 472.475 1317.42 479.8C1314.8 487.576 1312.23 494.045 1309.93 499.454C1306.95 506.472 1304.44 511.715 1302.87 515.728C1301.75 518.552 1301.12 520.769 1301.12 522.57Z" fill="#D2E3FC"/>
<path d="M1302.87 515.728C1376.18 481.238 1401.57 415.004 1401.57 415.004C1401.57 415.004 1342 436.947 1327.31 442.658C1326.49 446.681 1325.63 450.507 1324.76 454.151C1322.38 463.998 1319.87 472.475 1317.42 479.8C1314.8 487.576 1312.23 494.045 1309.93 499.454C1306.95 506.467 1304.44 511.71 1302.87 515.728Z" fill="#A4C8FC"/>
<path d="M1259.97 495.737L1253.64 498.057C1253.64 498.057 1240.95 489.098 1233.05 503.669C1233.05 503.669 1230.19 510.033 1234.72 511.414C1239.24 512.795 1237.6 511.497 1243.95 513.61C1250.31 515.723 1256.56 514.202 1258.97 509.665L1263.27 506.508L1259.97 495.737Z" fill="#FFB07B"/>
<path d="M1254.76 504.686C1252.42 498.582 1251.35 495.82 1251.35 495.82C1251.35 495.82 1299.22 456.855 1304.1 453.512C1307.42 451.233 1340.51 426.534 1356.64 407.285C1364.64 397.739 1377.26 393.373 1389.46 395.927L1399.51 398.03C1411.65 400.568 1415.59 415.908 1406.18 423.964C1379.67 446.66 1334.96 472.979 1326.62 478.456C1305.93 492.046 1260.15 511.092 1260.15 511.092C1260.15 511.092 1256.6 509.478 1254.76 504.686Z" fill="#D2E3FC"/>
<path d="M1371.77 373.932C1387.07 374.789 1397.03 362.174 1397.03 362.174C1397.03 362.174 1390.11 358.349 1386.34 355.53L1373.21 362.185C1373.21 362.185 1372.36 366.384 1371.77 373.932Z" fill="#EA8E50"/>
<path d="M1365.25 358.24C1365.25 358.24 1388.44 374.856 1398.58 360.28C1408.72 345.698 1418.55 338.025 1404.17 326.797C1389.79 315.569 1383.01 319.119 1378.44 323.163C1373.87 327.202 1359.48 353.542 1365.25 358.24Z" fill="#FFB07B"/>
<path d="M1375.99 309.993C1376.82 304.387 1378.69 300.447 1378.69 300.447C1378.69 300.447 1380.15 306.468 1391.16 305.638C1402.18 304.807 1419.64 306.718 1425.46 319.254C1425.83 320.054 1426.17 320.874 1426.46 321.715C1427.51 318.938 1427.76 314.769 1427.76 314.769C1429.86 320.168 1427.76 326.916 1427.76 326.916C1427.79 327.114 1427.82 327.311 1427.85 327.508C1430.28 329.559 1432.33 335.944 1432.33 335.944C1431.59 334.163 1429.8 333 1428.21 332.289C1428.25 342.043 1424.29 351.579 1417.34 354.419C1407.18 358.572 1407.26 355.405 1397.03 362.174C1397.03 362.174 1394.28 358.774 1396.16 356.49C1398.03 354.206 1405.09 350.884 1401.15 347.567C1397.2 344.249 1395.74 347.982 1394.28 345.698C1392.83 343.414 1400.11 336.774 1390.75 330.545C1381.4 324.316 1375.16 315.594 1375.99 309.993Z" fill="#233862"/>
<path d="M377.513 747.024V756.067C377.513 756.788 377.253 757.458 376.8 758.013C376.327 758.6 375.646 759.062 374.851 759.316C374.607 759.399 374.352 759.456 374.092 759.493C373.853 759.529 373.609 759.55 373.359 759.55H201.544C199.33 759.55 197.505 758.076 197.391 756.243C197.391 756.186 197.385 756.124 197.385 756.067V747.024C197.385 746.961 197.386 746.904 197.391 746.842C197.505 745.009 199.33 743.535 201.544 743.535H373.359C373.609 743.535 373.853 743.556 374.092 743.592C374.352 743.629 374.607 743.691 374.851 743.769C375.646 744.028 376.327 744.485 376.8 745.072C377.253 745.638 377.513 746.302 377.513 747.024Z" fill="#FFB93E"/>
<path d="M293.144 759.555H201.097C199.122 759.555 197.489 758.08 197.391 756.248C197.391 756.191 197.385 756.128 197.385 756.071V747.029C197.385 746.966 197.386 746.909 197.391 746.847C197.489 745.014 199.122 743.54 201.097 743.54H281.843C283.127 748.254 286.137 754.774 293.144 759.555Z" fill="#FFA412"/>
<path d="M356.61 743.54H354.656V759.56H356.61V743.54Z" fill="#FFA412"/>
<path d="M349.998 743.54H348.043V759.56H349.998V743.54Z" fill="#FFA412"/>
<path d="M342.07 743.54H340.116V759.56H342.07V743.54Z" fill="#FFA412"/>
<path d="M329.922 743.54H327.967V759.56H329.922V743.54Z" fill="#FFA412"/>
<path d="M317.072 743.54H315.117V759.56H317.072V743.54Z" fill="#FFA412"/>
<path d="M297.375 743.54H295.421V759.56H297.375V743.54Z" fill="#FFA412"/>
<path d="M278.937 743.54H276.982V759.56H278.937V743.54Z" fill="#FFA412"/>
<path d="M262.469 743.54H260.514V759.56H262.469V743.54Z" fill="#FFA412"/>
<path d="M362.9 743.54H360.946V759.56H362.9V743.54Z" fill="#FFA412"/>
<path d="M367.059 743.54H365.104V759.56H367.059V743.54Z" fill="#FFA412"/>
<path d="M371.072 743.54H369.117V759.56H371.072V743.54Z" fill="#FFA412"/>
<path d="M374.087 743.598V759.503C373.848 759.539 373.603 759.56 373.354 759.56H372.132V743.54H373.354C373.603 743.54 373.848 743.556 374.087 743.598Z" fill="#FFA412"/>
<path d="M376.8 745.077V758.013C376.327 758.6 375.646 759.062 374.851 759.316V743.769C375.646 744.033 376.327 744.496 376.8 745.077Z" fill="#FFA412"/>
<path d="M359.142 731.009V740.052C359.142 740.774 358.882 741.443 358.43 741.999C357.957 742.585 357.276 743.047 356.48 743.302C356.236 743.385 355.981 743.442 355.721 743.478C355.482 743.514 355.238 743.535 354.988 743.535H183.173C180.959 743.535 179.134 742.061 179.02 740.228C179.02 740.166 179.015 740.109 179.015 740.052V731.009C179.015 730.947 179.015 730.89 179.02 730.827C179.134 728.995 180.959 727.521 183.173 727.521H354.988C355.097 727.521 355.207 727.526 355.316 727.531C355.363 727.531 355.409 727.536 355.456 727.541C355.508 727.547 355.56 727.552 355.612 727.557C355.648 727.562 355.685 727.567 355.721 727.572C355.981 727.609 356.241 727.671 356.48 727.754C356.517 727.765 356.553 727.775 356.589 727.791C356.626 727.801 356.662 727.817 356.693 727.827C356.761 727.853 356.834 727.884 356.901 727.91C356.943 727.925 356.979 727.946 357.021 727.967C357.057 727.983 357.094 727.998 357.125 728.019C357.192 728.05 357.255 728.086 357.322 728.123C357.395 728.164 357.468 728.211 357.535 728.258C357.593 728.294 357.645 728.33 357.697 728.367C357.697 728.367 357.702 728.372 357.707 728.377C357.743 728.403 357.78 728.429 357.811 728.455C357.915 728.538 358.019 728.626 358.112 728.715C358.144 728.741 358.17 728.766 358.196 728.798C358.222 728.824 358.248 728.855 358.274 728.881C358.326 728.938 358.378 729 358.43 729.057C358.882 729.618 359.142 730.287 359.142 731.009Z" fill="#FFB93E"/>
<path d="M274.773 743.54H182.726C180.746 743.54 179.119 742.066 179.02 740.233C179.02 740.171 179.015 740.114 179.015 740.057V731.014C179.015 730.952 179.015 730.894 179.02 730.832C179.119 729 180.746 727.525 182.726 727.525H263.467C263.503 727.655 263.539 727.785 263.581 727.92C264.927 732.597 267.958 738.889 274.773 743.54Z" fill="#FFA412"/>
<path d="M338.239 727.521H336.285V743.54H338.239V727.521Z" fill="#FFA412"/>
<path d="M331.627 727.521H329.672V743.54H331.627V727.521Z" fill="#FFA412"/>
<path d="M323.699 727.521H321.745V743.54H323.699V727.521Z" fill="#FFA412"/>
<path d="M311.551 727.521H309.596V743.54H311.551V727.521Z" fill="#FFA412"/>
<path d="M298.701 727.521H296.746V743.54H298.701V727.521Z" fill="#FFA412"/>
<path d="M279.004 727.521H277.05V743.54H279.004V727.521Z" fill="#FFA412"/>
<path d="M260.566 727.521H258.611V743.54H260.566V727.521Z" fill="#FFA412"/>
<path d="M244.098 727.521H242.143V743.54H244.098V727.521Z" fill="#FFA412"/>
<path d="M344.529 727.521H342.575V743.54H344.529V727.521Z" fill="#FFA412"/>
<path d="M348.688 727.521H346.733V743.54H348.688V727.521Z" fill="#FFA412"/>
<path d="M352.701 727.521H350.746V743.54H352.701V727.521Z" fill="#FFA412"/>
<path d="M355.716 727.578V743.483C355.477 743.52 355.233 743.54 354.983 743.54H353.761V727.521H354.983C355.238 727.521 355.482 727.541 355.716 727.578Z" fill="#FFA412"/>
<path d="M358.43 729.062V741.999C357.957 742.585 357.276 743.047 356.48 743.302V727.754C357.276 728.014 357.957 728.476 358.43 729.062Z" fill="#FFA412"/>
<path d="M368.02 715.384V724.427C368.02 725.148 367.76 725.818 367.308 726.373C366.835 726.96 366.154 727.422 365.359 727.676C365.115 727.759 364.86 727.816 364.6 727.853C364.361 727.889 364.116 727.91 363.867 727.91H192.052C191.361 727.91 190.711 727.77 190.134 727.515C188.917 726.981 188.049 725.958 187.914 724.759C187.909 724.707 187.904 724.655 187.898 724.603C187.898 724.546 187.893 724.484 187.893 724.427V715.384C187.893 715.321 187.893 715.264 187.898 715.202C188.013 713.369 189.837 711.895 192.052 711.895H363.867C364.116 711.895 364.361 711.916 364.6 711.952C364.86 711.989 365.115 712.051 365.359 712.134C366.154 712.393 366.835 712.85 367.308 713.437C367.755 713.998 368.02 714.662 368.02 715.384Z" fill="#FFB93E"/>
<path d="M283.652 727.915H191.605C190.992 727.915 190.409 727.774 189.895 727.52C188.808 726.985 188.034 725.963 187.914 724.764C187.909 724.712 187.904 724.66 187.898 724.608C187.898 724.551 187.893 724.488 187.893 724.431V715.388C187.893 715.326 187.893 715.269 187.898 715.207C187.997 713.374 189.63 711.9 191.605 711.9H272.35C273.603 716.484 276.483 722.781 283.09 727.52C283.272 727.655 283.459 727.785 283.652 727.915Z" fill="#FFA412"/>
<path d="M347.113 711.9H345.158V727.92H347.113V711.9Z" fill="#FFA412"/>
<path d="M340.506 711.9H338.551V727.92H340.506V711.9Z" fill="#FFA412"/>
<path d="M332.578 711.9H330.624V727.92H332.578V711.9Z" fill="#FFA412"/>
<path d="M320.43 711.9H318.475V727.92H320.43V711.9Z" fill="#FFA412"/>
<path d="M307.579 711.9H305.625V727.92H307.579V711.9Z" fill="#FFA412"/>
<path d="M287.883 711.9H285.928V727.92H287.883V711.9Z" fill="#FFA412"/>
<path d="M269.439 711.9H267.485V727.92H269.439V711.9Z" fill="#FFA412"/>
<path d="M252.976 711.9H251.022V727.92H252.976V711.9Z" fill="#FFA412"/>
<path d="M353.408 711.9H351.453V727.92H353.408V711.9Z" fill="#FFA412"/>
<path d="M357.561 711.9H355.607V727.92H357.561V711.9Z" fill="#FFA412"/>
<path d="M361.58 711.9H359.625V727.92H361.58V711.9Z" fill="#FFA412"/>
<path d="M364.595 711.952V727.858C364.356 727.894 364.111 727.915 363.862 727.915H362.64V711.895H363.862C364.111 711.9 364.356 711.916 364.595 711.952Z" fill="#FFA412"/>
<path d="M367.308 713.437V726.373C366.835 726.96 366.154 727.422 365.359 727.676V712.129C366.154 712.394 366.835 712.85 367.308 713.437Z" fill="#FFA412"/>
<path d="M372.138 699.368V708.416C372.138 709.138 371.878 709.807 371.426 710.363C370.952 710.949 370.271 711.411 369.476 711.666C369.232 711.749 368.977 711.806 368.717 711.847C368.478 711.884 368.234 711.905 367.984 711.905H196.164C193.95 711.905 192.125 710.43 192.011 708.598C192.011 708.535 192.005 708.478 192.005 708.421V699.373C192.005 699.311 192.005 699.254 192.011 699.197C192.115 697.499 193.684 696.113 195.67 695.916C195.831 695.9 195.992 695.89 196.164 695.89H367.979C368.229 695.89 368.473 695.911 368.712 695.947C368.972 695.983 369.227 696.046 369.471 696.129C370.266 696.388 370.947 696.845 371.42 697.432C371.873 697.977 372.138 698.646 372.138 699.368Z" fill="#FFB93E"/>
<path d="M287.763 711.9H195.722C193.747 711.9 192.114 710.426 192.015 708.593C192.015 708.531 192.01 708.474 192.01 708.417V699.369C192.01 699.307 192.01 699.249 192.015 699.192C192.109 697.495 193.507 696.109 195.285 695.912C195.426 695.896 195.576 695.886 195.722 695.886H276.467C276.467 695.891 276.473 695.901 276.473 695.912C277.762 700.62 280.766 707.124 287.763 711.9Z" fill="#FFA412"/>
<path d="M351.23 695.881H349.275V711.895H351.23V695.881Z" fill="#FFA412"/>
<path d="M344.623 695.881H342.668V711.895H344.623V695.881Z" fill="#FFA412"/>
<path d="M336.695 695.881H334.741V711.895H336.695V695.881Z" fill="#FFA412"/>
<path d="M324.542 695.881H322.587V711.895H324.542V695.881Z" fill="#FFA412"/>
<path d="M311.697 695.881H309.742V711.895H311.697V695.881Z" fill="#FFA412"/>
<path d="M292 695.881H290.046V711.895H292V695.881Z" fill="#FFA412"/>
<path d="M273.557 695.881H271.602V711.895H273.557V695.881Z" fill="#FFA412"/>
<path d="M257.088 695.881H255.134V711.895H257.088V695.881Z" fill="#FFA412"/>
<path d="M357.525 695.881H355.571V711.895H357.525V695.881Z" fill="#FFA412"/>
<path d="M361.679 695.881H359.724V711.895H361.679V695.881Z" fill="#FFA412"/>
<path d="M365.692 695.881H363.737V711.895H365.692V695.881Z" fill="#FFA412"/>
<path d="M368.712 695.938V711.843C368.473 711.88 368.229 711.9 367.979 711.9H366.758V695.881H367.979C368.229 695.881 368.473 695.901 368.712 695.938Z" fill="#FFA412"/>
<path d="M371.425 697.422V710.359C370.952 710.945 370.271 711.407 369.476 711.662V696.114C370.271 696.374 370.947 696.836 371.425 697.422Z" fill="#FFA412"/>
<path d="M359.506 683.375V692.418C359.506 693.14 359.246 693.809 358.793 694.365C358.32 694.951 357.639 695.413 356.844 695.668C356.6 695.751 356.345 695.808 356.085 695.844C356.007 695.855 355.924 695.865 355.846 695.876C355.804 695.881 355.758 695.881 355.711 695.886C355.669 695.891 355.622 695.891 355.576 695.891C355.503 695.896 355.43 695.896 355.357 695.896H183.532C181.317 695.896 179.493 694.422 179.378 692.59C179.378 692.527 179.373 692.47 179.373 692.413V683.37C179.373 683.308 179.373 683.251 179.378 683.188C179.378 683.136 179.384 683.09 179.389 683.043C179.555 681.569 180.834 680.349 182.503 679.991C182.544 679.98 182.586 679.975 182.627 679.965C182.919 679.913 183.22 679.882 183.527 679.882H355.342C355.466 679.882 355.591 679.887 355.716 679.897C355.773 679.902 355.825 679.908 355.882 679.913C355.945 679.918 356.012 679.928 356.075 679.939C356.335 679.975 356.589 680.037 356.834 680.12C357.629 680.38 358.31 680.837 358.783 681.423C359.24 681.984 359.506 682.654 359.506 683.375Z" fill="#FFB93E"/>
<path d="M275.136 695.906H183.09C181.114 695.906 179.482 694.431 179.383 692.599C179.383 692.537 179.378 692.479 179.378 692.422V683.379C179.378 683.317 179.378 683.26 179.383 683.198C179.383 683.146 179.388 683.099 179.394 683.052C179.544 681.542 180.729 680.306 182.273 679.979C182.325 679.964 182.377 679.958 182.435 679.948C182.648 679.912 182.866 679.891 183.09 679.891H263.835C263.845 679.927 263.856 679.964 263.866 680.005C265.171 684.703 268.176 691.145 275.1 695.885C275.11 695.89 275.121 695.895 275.136 695.906Z" fill="#FFA412"/>
<path d="M338.598 679.887H336.643V695.907H338.598V679.887Z" fill="#FFA412"/>
<path d="M331.991 679.887H330.036V695.907H331.991V679.887Z" fill="#FFA412"/>
<path d="M324.063 679.887H322.109V695.907H324.063V679.887Z" fill="#FFA412"/>
<path d="M311.91 679.887H309.955V695.907H311.91V679.887Z" fill="#FFA412"/>
<path d="M299.065 679.887H297.11V695.907H299.065V679.887Z" fill="#FFA412"/>
<path d="M279.368 679.887H277.414V695.907H279.368V679.887Z" fill="#FFA412"/>
<path d="M260.925 679.887H258.97V695.907H260.925V679.887Z" fill="#FFA412"/>
<path d="M244.456 679.887H242.502V695.907H244.456V679.887Z" fill="#FFA412"/>
<path d="M344.893 679.887H342.938V695.907H344.893V679.887Z" fill="#FFA412"/>
<path d="M349.047 679.887H347.092V695.907H349.047V679.887Z" fill="#FFA412"/>
<path d="M353.06 679.887H351.105V695.907H353.06V679.887Z" fill="#FFA412"/>
<path d="M356.08 679.944V695.849C355.841 695.886 355.596 695.907 355.347 695.907H354.125V679.887H355.347C355.596 679.887 355.841 679.908 356.08 679.944Z" fill="#FFA412"/>
<path d="M358.793 681.429V694.365C358.32 694.951 357.639 695.413 356.844 695.668V680.12C357.639 680.38 358.32 680.842 358.793 681.429Z" fill="#FFA412"/>
<path d="M359.141 667.47V676.513C359.141 677.234 358.882 677.904 358.429 678.459C357.956 679.046 357.275 679.508 356.48 679.762C356.288 679.824 356.09 679.876 355.887 679.913H355.882C355.825 679.923 355.773 679.933 355.721 679.944C355.482 679.98 355.237 680.001 354.988 680.001H183.173C182.991 680.001 182.809 679.991 182.638 679.97C182.57 679.965 182.497 679.954 182.435 679.944C180.569 679.664 179.124 678.319 179.025 676.694C179.025 676.632 179.02 676.575 179.02 676.518V667.475C179.02 667.413 179.02 667.355 179.025 667.293C179.139 665.461 180.964 663.986 183.178 663.986H354.993C355.102 663.986 355.211 663.992 355.321 663.997C355.367 664.002 355.414 664.002 355.461 664.007C355.513 664.012 355.565 664.018 355.617 664.023C355.653 664.028 355.69 664.033 355.726 664.038C355.986 664.075 356.246 664.137 356.485 664.22C356.521 664.23 356.558 664.241 356.594 664.256C356.631 664.267 356.667 664.282 356.698 664.293C356.771 664.319 356.839 664.35 356.906 664.376C356.984 664.412 357.057 664.443 357.13 664.485C357.197 664.516 357.26 664.552 357.327 664.589C357.4 664.63 357.473 664.677 357.54 664.724C357.598 664.76 357.649 664.796 357.701 664.833C357.701 664.833 357.707 664.838 357.712 664.843C357.748 664.869 357.785 664.895 357.816 664.921C357.92 665.004 358.024 665.092 358.117 665.18C358.149 665.206 358.175 665.232 358.201 665.263C358.227 665.295 358.252 665.321 358.278 665.346C358.33 665.404 358.382 665.466 358.434 665.523C358.882 666.084 359.141 666.748 359.141 667.47Z" fill="#FFB93E"/>
<path d="M274.773 680.001H182.726C182.653 680.001 182.581 680.001 182.508 679.996C182.43 679.991 182.347 679.985 182.269 679.975C180.501 679.773 179.108 678.387 179.02 676.694C179.02 676.632 179.015 676.575 179.015 676.518V667.475C179.015 667.413 179.015 667.355 179.02 667.293C179.119 665.461 180.746 663.986 182.726 663.986H263.467C263.503 664.116 263.539 664.246 263.581 664.381C264.917 669.022 267.906 675.251 274.607 679.892C274.664 679.928 274.716 679.965 274.773 680.001Z" fill="#FFA412"/>
<path d="M338.239 663.986H336.285V680.001H338.239V663.986Z" fill="#FFA412"/>
<path d="M331.627 663.986H329.672V680.001H331.627V663.986Z" fill="#FFA412"/>
<path d="M323.699 663.986H321.745V680.001H323.699V663.986Z" fill="#FFA412"/>
<path d="M311.551 663.986H309.596V680.001H311.551V663.986Z" fill="#FFA412"/>
<path d="M298.701 663.986H296.746V680.001H298.701V663.986Z" fill="#FFA412"/>
<path d="M279.004 663.986H277.05V680.001H279.004V663.986Z" fill="#FFA412"/>
<path d="M260.566 663.986H258.611V680.001H260.566V663.986Z" fill="#FFA412"/>
<path d="M244.098 663.986H242.143V680.001H244.098V663.986Z" fill="#FFA412"/>
<path d="M344.529 663.986H342.575V680.001H344.529V663.986Z" fill="#FFA412"/>
<path d="M348.688 663.986H346.733V680.001H348.688V663.986Z" fill="#FFA412"/>
<path d="M352.701 663.986H350.746V680.001H352.701V663.986Z" fill="#FFA412"/>
<path d="M355.716 664.043V679.949C355.477 679.985 355.233 680.006 354.983 680.006H353.761V663.986H354.983C355.238 663.986 355.482 664.007 355.716 664.043Z" fill="#FFA412"/>
<path d="M358.43 665.523V678.459C357.957 679.046 357.276 679.508 356.48 679.762V664.215C357.276 664.48 357.957 664.942 358.43 665.523Z" fill="#FFA412"/>
<path d="M368.02 651.85V660.892C368.02 661.614 367.76 662.284 367.308 662.839C366.835 663.426 366.154 663.888 365.359 664.142C365.115 664.225 364.86 664.282 364.6 664.319C364.361 664.355 364.116 664.376 363.867 664.376H192.052C191.361 664.376 190.711 664.236 190.134 663.981C188.917 663.446 188.049 662.424 187.914 661.225C187.909 661.173 187.904 661.121 187.898 661.069C187.898 661.012 187.893 660.95 187.893 660.892V651.85C187.893 651.787 187.893 651.73 187.898 651.668C188.013 649.835 189.837 648.361 192.052 648.361H363.867C364.116 648.361 364.361 648.382 364.6 648.418C364.86 648.455 365.115 648.517 365.359 648.6C366.154 648.859 366.835 649.316 367.308 649.903C367.755 650.458 368.02 651.128 368.02 651.85Z" fill="#FFB93E"/>
<path d="M283.652 664.381H191.605C190.992 664.381 190.409 664.24 189.895 663.986C188.808 663.451 188.034 662.429 187.914 661.23C187.909 661.178 187.904 661.126 187.898 661.074C187.898 661.017 187.893 660.954 187.893 660.897V651.854C187.893 651.792 187.893 651.735 187.898 651.673C187.997 649.84 189.63 648.366 191.605 648.366H272.35C273.603 652.95 276.483 659.247 283.09 663.986C283.272 664.116 283.459 664.251 283.652 664.381Z" fill="#FFA412"/>
<path d="M347.113 648.361H345.158V664.381H347.113V648.361Z" fill="#FFA412"/>
<path d="M340.506 648.361H338.551V664.381H340.506V648.361Z" fill="#FFA412"/>
<path d="M332.578 648.361H330.624V664.381H332.578V648.361Z" fill="#FFA412"/>
<path d="M320.43 648.361H318.475V664.381H320.43V648.361Z" fill="#FFA412"/>
<path d="M307.579 648.361H305.625V664.381H307.579V648.361Z" fill="#FFA412"/>
<path d="M287.883 648.361H285.928V664.381H287.883V648.361Z" fill="#FFA412"/>
<path d="M269.439 648.361H267.485V664.381H269.439V648.361Z" fill="#FFA412"/>
<path d="M252.976 648.361H251.022V664.381H252.976V648.361Z" fill="#FFA412"/>
<path d="M353.408 648.361H351.453V664.381H353.408V648.361Z" fill="#FFA412"/>
<path d="M357.561 648.361H355.607V664.381H357.561V648.361Z" fill="#FFA412"/>
<path d="M361.58 648.361H359.625V664.381H361.58V648.361Z" fill="#FFA412"/>
<path d="M364.595 648.418V664.324C364.356 664.36 364.111 664.381 363.862 664.381H362.64V648.361H363.862C364.111 648.361 364.356 648.382 364.595 648.418Z" fill="#FFA412"/>
<path d="M367.308 649.903V662.839C366.835 663.426 366.154 663.888 365.359 664.142V648.595C366.154 648.854 366.835 649.316 367.308 649.903Z" fill="#FFA412"/>
<path d="M382.061 635.829V644.877C382.061 645.598 381.801 646.268 381.349 646.823C380.876 647.41 380.195 647.872 379.4 648.126C379.155 648.209 378.901 648.267 378.641 648.308C378.402 648.344 378.157 648.365 377.908 648.365H206.093C203.878 648.365 202.054 646.891 201.939 645.058C201.939 644.996 201.934 644.939 201.934 644.882V635.834C201.934 635.777 201.934 635.714 201.939 635.657C202.043 633.96 203.613 632.574 205.599 632.376C205.76 632.361 205.926 632.351 206.093 632.351H377.908C378.157 632.351 378.402 632.371 378.641 632.408C378.901 632.444 379.155 632.506 379.4 632.589C380.195 632.849 380.876 633.306 381.349 633.892C381.796 634.443 382.061 635.107 382.061 635.829Z" fill="#FFB93E"/>
<path d="M297.692 648.361H205.646C203.67 648.361 202.038 646.887 201.939 645.054C201.939 644.992 201.934 644.935 201.934 644.878V635.829C201.934 635.772 201.934 635.71 201.939 635.653C202.033 633.955 203.431 632.569 205.209 632.372C205.349 632.357 205.5 632.346 205.646 632.346H286.391C286.391 632.351 286.396 632.362 286.396 632.372C287.686 637.086 290.695 643.59 297.692 648.361Z" fill="#FFA412"/>
<path d="M361.159 632.346H359.204V648.366H361.159V632.346Z" fill="#FFA412"/>
<path d="M354.546 632.346H352.592V648.366H354.546V632.346Z" fill="#FFA412"/>
<path d="M346.619 632.346H344.664V648.366H346.619V632.346Z" fill="#FFA412"/>
<path d="M334.47 632.346H332.516V648.366H334.47V632.346Z" fill="#FFA412"/>
<path d="M321.62 632.346H319.666V648.366H321.62V632.346Z" fill="#FFA412"/>
<path d="M301.924 632.346H299.969V648.366H301.924V632.346Z" fill="#FFA412"/>
<path d="M283.485 632.346H281.531V648.366H283.485V632.346Z" fill="#FFA412"/>
<path d="M267.017 632.346H265.062V648.366H267.017V632.346Z" fill="#FFA412"/>
<path d="M367.449 632.346H365.494V648.366H367.449V632.346Z" fill="#FFA412"/>
<path d="M371.607 632.346H369.653V648.366H371.607V632.346Z" fill="#FFA412"/>
<path d="M375.62 632.346H373.666V648.366H375.62V632.346Z" fill="#FFA412"/>
<path d="M378.636 632.398V648.304C378.396 648.34 378.152 648.361 377.903 648.361H376.681V632.341H377.903C378.152 632.346 378.396 632.362 378.636 632.398Z" fill="#FFA412"/>
<path d="M381.349 633.883V646.819C380.876 647.406 380.195 647.868 379.4 648.122V632.575C380.195 632.84 380.876 633.296 381.349 633.883Z" fill="#FFA412"/>
<path d="M359.506 619.841V628.884C359.506 629.606 359.246 630.275 358.793 630.831C358.32 631.417 357.639 631.879 356.844 632.134C356.6 632.217 356.345 632.274 356.085 632.31C356.007 632.321 355.924 632.331 355.846 632.341C355.784 632.346 355.716 632.352 355.654 632.357C355.622 632.357 355.591 632.362 355.555 632.362C355.487 632.362 355.42 632.367 355.352 632.367H183.532C181.317 632.367 179.493 630.893 179.378 629.061C179.378 628.998 179.373 628.941 179.373 628.884V619.841C179.373 619.779 179.373 619.722 179.378 619.659C179.493 617.827 181.317 616.353 183.532 616.353H355.347C355.42 616.353 355.492 616.353 355.565 616.358C355.742 616.368 355.908 616.384 356.08 616.41C356.34 616.446 356.595 616.508 356.839 616.591C356.964 616.633 357.083 616.674 357.198 616.726C357.27 616.758 357.343 616.789 357.411 616.825C357.416 616.825 357.426 616.83 357.431 616.835C357.504 616.872 357.572 616.908 357.639 616.944C357.655 616.95 357.665 616.96 357.676 616.965C357.738 617.002 357.801 617.038 357.863 617.079C358.008 617.173 358.149 617.271 358.279 617.38C358.32 617.412 358.357 617.448 358.398 617.484C358.404 617.489 358.414 617.495 358.419 617.505C358.445 617.526 358.466 617.547 358.492 617.573C358.497 617.578 358.502 617.583 358.507 617.588C358.549 617.63 358.591 617.671 358.627 617.718C358.684 617.78 358.741 617.843 358.793 617.905C359.24 618.45 359.506 619.12 359.506 619.841Z" fill="#FFB93E"/>
<path d="M275.137 632.372H183.09C181.114 632.372 179.482 630.898 179.383 629.065C179.383 629.003 179.378 628.946 179.378 628.889V619.846C179.378 619.784 179.378 619.727 179.383 619.664C179.482 617.832 181.114 616.357 183.09 616.357H263.835C263.867 616.477 263.903 616.602 263.939 616.726C265.28 621.398 268.301 627.695 275.1 632.346C275.111 632.351 275.121 632.362 275.137 632.372Z" fill="#FFA412"/>
<path d="M338.598 616.353H336.643V632.372H338.598V616.353Z" fill="#FFA412"/>
<path d="M331.991 616.353H330.036V632.372H331.991V616.353Z" fill="#FFA412"/>
<path d="M324.063 616.353H322.109V632.372H324.063V616.353Z" fill="#FFA412"/>
<path d="M311.91 616.353H309.955V632.372H311.91V616.353Z" fill="#FFA412"/>
<path d="M299.065 616.353H297.11V632.372H299.065V616.353Z" fill="#FFA412"/>
<path d="M279.368 616.353H277.414V632.372H279.368V616.353Z" fill="#FFA412"/>
<path d="M260.925 616.353H258.97V632.372H260.925V616.353Z" fill="#FFA412"/>
<path d="M244.456 616.353H242.502V632.372H244.456V616.353Z" fill="#FFA412"/>
<path d="M344.893 616.353H342.938V632.372H344.893V616.353Z" fill="#FFA412"/>
<path d="M349.047 616.353H347.092V632.372H349.047V616.353Z" fill="#FFA412"/>
<path d="M353.06 616.353H351.105V632.372H353.06V616.353Z" fill="#FFA412"/>
<path d="M356.08 616.41V632.315C355.841 632.352 355.596 632.372 355.347 632.372H354.125V616.353H355.347C355.596 616.353 355.841 616.373 356.08 616.41Z" fill="#FFA412"/>
<path d="M358.793 617.894V630.831C358.32 631.417 357.639 631.879 356.844 632.134V616.586C357.639 616.846 358.32 617.308 358.793 617.894Z" fill="#FFA412"/>
<path d="M372.138 604.19V613.238C372.138 613.959 371.878 614.629 371.425 615.184C370.952 615.771 370.271 616.233 369.476 616.487C369.232 616.57 368.977 616.628 368.717 616.669C368.478 616.705 368.234 616.726 367.984 616.726H196.164C195.499 616.726 194.864 616.591 194.308 616.358C193.055 615.833 192.161 614.785 192.026 613.565C192.021 613.518 192.016 613.471 192.016 613.425C192.016 613.362 192.01 613.305 192.01 613.248V604.2C192.01 604.138 192.011 604.081 192.016 604.023C192.12 602.326 193.69 600.94 195.675 600.743C195.836 600.727 195.998 600.717 196.169 600.717H367.984C368.234 600.717 368.478 600.737 368.717 600.774C368.977 600.81 369.232 600.872 369.476 600.95C370.271 601.21 370.952 601.667 371.425 602.253C371.873 602.804 372.138 603.468 372.138 604.19Z" fill="#FFB93E"/>
<path d="M287.764 616.72H195.722C195.13 616.72 194.563 616.585 194.064 616.352C192.946 615.827 192.146 614.779 192.026 613.559C192.021 613.512 192.016 613.465 192.016 613.419C192.016 613.356 192.01 613.299 192.01 613.242V604.194C192.01 604.132 192.011 604.075 192.016 604.017C192.109 602.32 193.508 600.934 195.285 600.737C195.426 600.721 195.577 600.711 195.722 600.711H276.468C276.468 600.716 276.473 600.726 276.473 600.737C277.731 605.331 280.621 611.622 287.239 616.357C287.41 616.476 287.587 616.601 287.764 616.72Z" fill="#FFA412"/>
<path d="M351.23 600.707H349.275V616.726H351.23V600.707Z" fill="#FFA412"/>
<path d="M344.623 600.707H342.668V616.726H344.623V600.707Z" fill="#FFA412"/>
<path d="M336.695 600.707H334.741V616.726H336.695V600.707Z" fill="#FFA412"/>
<path d="M324.542 600.707H322.587V616.726H324.542V600.707Z" fill="#FFA412"/>
<path d="M311.697 600.707H309.742V616.726H311.697V600.707Z" fill="#FFA412"/>
<path d="M292 600.707H290.046V616.726H292V600.707Z" fill="#FFA412"/>
<path d="M273.557 600.707H271.602V616.726H273.557V600.707Z" fill="#FFA412"/>
<path d="M257.088 600.706H255.134V616.726H257.088V600.706Z" fill="#FFA412"/>
<path d="M357.525 600.707H355.571V616.726H357.525V600.707Z" fill="#FFA412"/>
<path d="M361.679 600.707H359.724V616.726H361.679V600.707Z" fill="#FFA412"/>
<path d="M365.692 600.707H363.737V616.726H365.692V600.707Z" fill="#FFA412"/>
<path d="M368.712 600.758V616.664C368.473 616.7 368.228 616.721 367.979 616.721H366.757V600.701H367.979C368.228 600.707 368.473 600.722 368.712 600.758Z" fill="#FFA412"/>
<path d="M371.425 602.243V615.18C370.952 615.766 370.271 616.228 369.476 616.482V600.935C370.271 601.2 370.947 601.657 371.425 602.243Z" fill="#FFA412"/>
<path d="M377.513 588.196V597.244C377.513 597.966 377.253 598.635 376.8 599.191C376.327 599.777 375.646 600.239 374.851 600.494C374.607 600.577 374.352 600.634 374.092 600.675C374.014 600.686 373.931 600.696 373.853 600.707C373.811 600.712 373.765 600.712 373.718 600.717C373.676 600.722 373.629 600.722 373.583 600.722C373.51 600.727 373.437 600.727 373.364 600.727H201.544C199.33 600.727 197.505 599.253 197.391 597.421C197.391 597.358 197.385 597.301 197.385 597.244V588.196C197.385 588.134 197.386 588.077 197.391 588.02C197.505 586.187 199.33 584.713 201.544 584.713H373.359C373.609 584.713 373.853 584.734 374.092 584.77C374.352 584.806 374.607 584.868 374.851 584.952C375.646 585.211 376.327 585.668 376.8 586.255C377.253 586.81 377.513 587.48 377.513 588.196Z" fill="#FFB93E"/>
<path d="M293.144 600.727H201.097C199.122 600.727 197.489 599.253 197.391 597.421C197.391 597.358 197.385 597.301 197.385 597.244V588.196C197.385 588.134 197.386 588.077 197.391 588.02C197.489 586.187 199.122 584.713 201.097 584.713H281.843C283.132 589.421 286.126 595.926 293.107 600.707C293.118 600.712 293.133 600.722 293.144 600.727Z" fill="#FFA412"/>
<path d="M356.61 584.713H354.656V600.732H356.61V584.713Z" fill="#FFA412"/>
<path d="M349.998 584.713H348.043V600.732H349.998V584.713Z" fill="#FFA412"/>
<path d="M342.07 584.713H340.116V600.732H342.07V584.713Z" fill="#FFA412"/>
<path d="M329.922 584.713H327.967V600.732H329.922V584.713Z" fill="#FFA412"/>
<path d="M317.072 584.713H315.117V600.732H317.072V584.713Z" fill="#FFA412"/>
<path d="M297.375 584.713H295.421V600.732H297.375V584.713Z" fill="#FFA412"/>
<path d="M278.937 584.713H276.982V600.732H278.937V584.713Z" fill="#FFA412"/>
<path d="M262.469 584.713H260.514V600.732H262.469V584.713Z" fill="#FFA412"/>
<path d="M362.9 584.713H360.946V600.732H362.9V584.713Z" fill="#FFA412"/>
<path d="M367.059 584.713H365.104V600.732H367.059V584.713Z" fill="#FFA412"/>
<path d="M371.072 584.713H369.117V600.732H371.072V584.713Z" fill="#FFA412"/>
<path d="M374.087 584.77V600.675C373.848 600.712 373.603 600.732 373.354 600.732H372.132V584.713H373.354C373.609 584.713 373.848 584.734 374.087 584.77Z" fill="#FFA412"/>
<path d="M376.8 586.249V599.186C376.327 599.772 375.646 600.234 374.851 600.489V584.941C375.646 585.206 376.327 585.668 376.8 586.249Z" fill="#FFA412"/>
<path d="M245.154 735.711C277.042 703.867 277.042 652.238 245.154 620.394C213.266 588.55 161.565 588.55 129.677 620.394C97.7889 652.238 97.7889 703.867 129.677 735.711C161.565 767.555 213.266 767.555 245.154 735.711Z" fill="#E2810E"/>
<path d="M238.031 735.71C269.92 703.866 269.92 652.237 238.032 620.393C206.143 588.549 154.443 588.549 122.555 620.393C90.6665 652.237 90.6666 703.866 122.555 735.71C154.443 767.554 206.143 767.554 238.031 735.71Z" fill="#FFB93E"/>
<path d="M180.299 753.31C160.425 753.31 141.743 745.58 127.692 731.549C113.64 717.517 105.9 698.86 105.9 679.015C105.9 659.169 113.64 640.512 127.692 626.48C141.743 612.449 160.425 604.719 180.299 604.719C200.172 604.719 218.854 612.449 232.906 626.48C246.957 640.512 254.697 659.169 254.697 679.015C254.697 698.86 246.957 717.517 232.906 731.549C218.854 745.586 200.172 753.31 180.299 753.31ZM180.299 609.158C141.722 609.158 110.34 640.497 110.34 679.02C110.34 717.543 141.722 748.882 180.299 748.882C218.875 748.882 250.258 717.543 250.258 679.02C250.258 640.497 218.875 609.158 180.299 609.158Z" fill="#FFA412"/>
<path d="M190.539 700.579C190.732 698.975 190.669 697.537 190.363 696.265C190.056 694.988 189.448 693.794 188.538 692.683C187.628 691.567 186.412 690.497 184.884 689.464C183.36 688.431 181.473 687.378 179.223 686.298C175.36 684.408 171.877 682.498 168.769 680.562C165.66 678.625 163.056 676.507 160.956 674.208C158.85 671.908 157.312 669.328 156.34 666.468C155.368 663.607 155.102 660.306 155.544 656.568C155.929 653.324 156.854 650.438 158.325 647.904C159.791 645.371 161.715 643.237 164.09 641.509C166.466 639.78 169.216 638.472 172.345 637.584C175.475 636.697 178.911 636.302 182.653 636.396L184.109 624.15L193.981 625.318L192.504 637.735C195.987 638.612 199.08 639.925 201.794 641.68C204.502 643.435 206.732 645.553 208.484 648.044C210.231 650.536 211.468 653.381 212.19 656.579C212.913 659.782 213.048 663.286 212.596 667.101L194.771 664.988C195.317 660.41 194.703 656.864 192.936 654.357C191.168 651.85 188.58 650.386 185.164 649.986C183.314 649.768 181.687 649.835 180.293 650.194C178.895 650.547 177.71 651.123 176.743 651.917C175.771 652.711 175.007 653.692 174.456 654.866C173.9 656.039 173.536 657.331 173.369 658.743C173.203 660.155 173.255 661.458 173.53 662.647C173.806 663.841 174.388 664.983 175.282 666.078C176.171 667.169 177.403 668.243 178.963 669.302C180.527 670.356 182.487 671.488 184.847 672.697C188.658 674.659 192.109 676.611 195.192 678.563C198.274 680.515 200.868 682.648 202.969 684.969C205.069 687.289 206.607 689.88 207.579 692.74C208.552 695.6 208.822 698.886 208.38 702.582C207.98 705.941 207.039 708.884 205.547 711.412C204.055 713.946 202.126 716.059 199.756 717.746C197.386 719.438 194.62 720.699 191.454 721.52C188.294 722.345 184.837 722.708 181.099 722.615L179.748 734.004L169.938 732.841L171.285 721.509C167.911 720.762 164.698 719.625 161.647 718.104C158.596 716.583 155.965 714.6 153.751 712.15C151.542 709.705 149.888 706.751 148.797 703.294C147.705 699.836 147.435 695.818 147.975 691.245L165.801 693.358C165.478 696.068 165.587 698.372 166.138 700.272C166.684 702.177 167.526 703.745 168.675 704.986C169.819 706.227 171.181 707.161 172.751 707.789C174.321 708.422 175.953 708.832 177.637 709.035C179.571 709.263 181.297 709.217 182.815 708.895C184.333 708.573 185.637 708.028 186.729 707.27C187.821 706.512 188.684 705.557 189.318 704.415C189.973 703.268 190.373 701.996 190.539 700.579Z" fill="#FFA412"/>
<path d="M330.452 566.092C322.093 580.622 311.577 586.234 311.577 586.234H267.828C267.823 586.234 336.831 555.004 330.452 566.092Z" fill="#233862"/>
<path d="M296.85 678.527C295.712 679.83 295.566 681.288 296.128 682.846C296.128 682.851 296.133 682.861 296.138 682.866C297.183 685.747 300.629 688.961 304.632 692.174C305.142 692.584 305.599 692.963 305.994 693.311C306.098 693.404 306.202 693.493 306.301 693.586C306.384 693.659 306.457 693.731 306.535 693.799C310.267 697.235 308.864 698.025 315.575 705.001C323.227 712.949 328.492 713.094 329.99 712.368C331.258 711.75 328.68 707.535 325.831 702.795C325.691 702.567 325.555 702.333 325.415 702.105C325.036 701.477 324.656 700.833 324.282 700.2C320.939 694.5 321.797 691.821 322.587 683.334C323.232 676.44 333.332 644.81 333.332 644.81L318.673 642.287C318.673 642.287 314.259 667.475 309.394 671.353C306.795 673.419 303.884 673.445 301.383 674.976C301.206 675.085 301.035 675.194 300.863 675.303C299.439 676.248 297.994 677.218 296.85 678.527Z" fill="#FFB27D"/>
<path d="M296.85 678.527C295.712 679.83 295.566 681.288 296.128 682.846C296.128 682.851 296.133 682.861 296.138 682.867C297.417 685.742 300.775 688.94 304.648 692.143C305.152 692.564 305.599 692.948 305.999 693.306C306.103 693.399 306.207 693.488 306.306 693.581C306.389 693.654 306.462 693.726 306.54 693.794C310.272 697.23 308.869 698.019 315.58 704.996C323.232 712.944 328.498 713.089 329.995 712.362C331.263 711.745 328.685 707.53 325.836 702.79C324.344 702.245 317.43 699.437 312.201 692.756C307.595 686.884 304.523 679.347 301.388 674.976C301.212 675.085 301.04 675.194 300.869 675.303C299.439 676.248 297.994 677.219 296.85 678.527Z" fill="#233862"/>
<path d="M415.05 669.385C415.954 673.901 422.405 673.149 429.61 671.394C436.815 669.634 435.105 671.726 445.361 670.595C455.617 669.463 458.726 665.642 459.038 664.121C459.319 662.772 454.25 662.294 448.813 661.666C448.132 661.588 447.44 661.505 446.754 661.422C440.615 660.654 436.124 656.698 430.551 653.448C425.27 650.37 417.389 637.839 417.389 637.839L403.322 638.95C403.322 638.95 410.704 650.147 413.558 655.011C415.237 657.871 415.148 661.661 414.94 664.583C414.831 666.167 414.733 667.791 415.05 669.385Z" fill="#FFB27D"/>
<path d="M429.61 671.389C436.815 669.629 435.105 671.721 445.361 670.589C455.617 669.458 458.726 665.637 459.038 664.116C459.319 662.767 454.25 662.289 448.813 661.661L448.761 661.765C448.761 661.765 442.611 666.12 434.076 666.322C427.12 666.494 419.749 664.5 414.94 664.578C414.831 666.167 414.727 667.791 415.05 669.385C415.954 673.901 422.405 673.149 429.61 671.389Z" fill="#233862"/>
<path d="M361.148 579.573L348.002 614.904L330.837 661.038C330.837 661.038 326.179 661.489 321.719 660.207C317.612 659.024 312.897 655.919 312.897 655.919C312.897 655.919 317.664 606.386 326.553 577.954C328.83 570.655 331.388 564.753 334.205 561.431C347.991 545.162 361.148 579.573 361.148 579.573Z" fill="#233862"/>
<path d="M347.783 523.463C339.17 520.691 314.602 524.252 289.921 529.074L284.754 520.561L231.45 516.403C231.45 516.403 213.859 555.357 223.492 580.176C224.905 583.825 228.409 585.362 233.202 585.439L233.207 585.445C233.207 585.445 265.016 586.218 275.319 586.218C301.83 586.218 331.424 568.018 335.25 567.255C341.514 566.004 344.025 578.52 350.289 591.658C356.553 604.797 409.191 649.856 409.191 649.856C409.191 649.856 417.28 649.934 420.622 648.683C424.214 647.338 425.53 645.589 425.53 645.589C425.53 645.589 367.21 529.723 347.783 523.463Z" fill="#2B478B"/>
<path d="M279.093 364.246C275.095 361.868 271.202 361.526 268.842 361.603C267.142 361.66 265.437 361.494 263.753 361.271C243.552 358.561 231.393 387.87 230.681 396.752C229.36 413.125 220.69 415.617 208.484 425.87C184.01 446.426 191.184 470.316 204.57 479.188C212.601 484.514 226.756 479.188 226.756 479.188C226.954 479.328 265.463 457.691 284.447 447.252C312.897 443.218 290.524 371.046 279.093 364.246Z" fill="#233862"/>
<path d="M268.53 438.37C268.613 438.422 259.188 441.635 252.888 438.847C246.962 436.231 242.471 426.492 242.559 426.487C245.257 426.363 248.215 424.011 250.497 408.562L251.646 408.972L270.952 415.908C270.952 415.908 269.554 422.096 268.649 427.982C267.885 432.935 267.475 437.674 268.53 438.37Z" fill="#FFB27D"/>
<path d="M270.952 415.913C270.952 415.913 269.554 422.101 268.649 427.987C257.561 425.994 253.21 414.963 251.646 408.977L270.952 415.913Z" fill="#ED975D"/>
<path d="M273.827 422.054C273.827 422.054 247.414 418.514 249.873 402.12C252.332 385.726 250.58 374.228 267.553 375.796C284.52 377.364 286.849 384.107 287.363 389.781C287.878 395.455 280.761 422.552 273.827 422.054Z" fill="#FFB27D"/>
<path d="M286.401 380.795C286.401 380.795 269.491 395.346 257.993 396.519C246.494 397.692 242.138 394.006 242.138 394.006C242.138 394.006 248.916 388.384 252.997 379.315C254.198 376.642 256.74 374.804 259.666 374.555C267.869 373.849 283.438 373.522 286.401 380.795Z" fill="#233862"/>
<path d="M275.828 379.492C275.828 379.492 281.484 384.953 283.267 389.007C284.988 392.916 285.502 402.266 284.13 405.982C284.13 405.982 292.941 388.867 287.956 380.556C282.664 371.736 275.828 379.492 275.828 379.492Z" fill="#233862"/>
<path d="M290.773 477.23C289.973 530.626 290.555 519.465 284.707 524.532C283.298 525.752 279.337 526.479 274.123 526.821C257.728 527.906 228.908 525.212 227.811 522.186C224.032 511.715 226.699 508.465 223.543 492.435C223.216 490.733 222.805 488.885 222.327 486.876C219.697 475.865 217.134 472.122 226.47 454.436C234.933 438.416 243.729 425.413 244.519 425.885C266.851 439.122 268.649 427.998 268.649 427.998C268.649 427.998 291.163 451.181 290.773 477.23Z" fill="white"/>
<path d="M348.002 614.904L330.837 661.038C330.837 661.038 326.179 661.489 321.719 660.207C317.612 659.024 312.897 655.919 312.897 655.919C312.897 655.919 317.664 606.386 326.553 577.954L348.002 614.904Z" fill="#2B478B"/>
<path d="M268.649 427.993C268.649 427.993 291.626 431.881 294.324 441.765C297.022 451.643 312.898 509.722 312.898 509.722C312.898 509.722 301.217 511.819 295.821 506.431C290.425 501.042 277.045 456.435 277.045 456.435L268.649 427.993Z" fill="white"/>
<path d="M274.118 526.821C257.723 527.906 228.903 525.212 227.806 522.186C224.027 511.715 226.694 508.465 223.538 492.435L231.445 470.197C231.445 470.197 230.135 494.958 237.449 501.473C244.753 507.988 267.391 514.046 270.942 519.486C272.663 522.097 273.791 524.719 274.118 526.821Z" fill="#EBF3FF"/>
<path d="M255.336 516.408C255.336 516.408 271.514 512.81 274.123 514.243C276.733 515.676 283.111 520.898 283.912 522.715C284.712 524.532 278.1 521.334 275.953 520.758C274.56 520.384 270.895 521.656 269.081 522.258C261.444 524.797 256.771 523.494 256.771 523.494L255.336 516.408Z" fill="#FFB27D"/>
<path d="M244.503 425.869C244.503 425.869 222.784 427.204 215.268 437.679C204.684 452.422 183.688 515.24 195.722 523.618C209.274 533.056 257.395 526.084 257.395 526.084C257.395 526.084 258.996 518.609 256.766 514.996C254.536 511.383 218.33 505.538 216.661 503.871C214.992 502.205 237.548 471.328 237.548 466.324C237.548 461.32 244.503 425.869 244.503 425.869Z" fill="white"/>
<path d="M274.903 518.739C274.903 518.739 278.292 523.104 279.405 523.624C280.517 524.143 281.234 524.013 281.234 524.013L278.952 519.907L274.903 518.739Z" fill="#FFB27D"/>
<path d="M274.118 514.243L283.974 519.024C283.974 519.024 283.553 519.709 282.342 519.652C281.13 519.595 278.069 518.479 278.069 518.479L274.118 514.243Z" fill="#FFB27D"/>
<path d="M279.405 530.315H357.348L380.793 472.091H302.969L279.405 530.315Z" fill="#F99746"/>
<path d="M358.258 528.047H255.336V530.315H357.348L358.258 528.047Z" fill="#ED7D2B"/>
<path d="M337.673 501.203C338.26 499.158 337.075 497.497 335.027 497.497C332.979 497.497 330.837 499.158 330.25 501.203C329.662 503.248 330.847 504.91 332.896 504.91C334.944 504.91 337.085 503.248 337.673 501.203Z" fill="white"/>
<path d="M726.668 535.89C726.658 535.579 728.389 500.274 711.307 492.15L712.513 490.992C720.337 493.723 729.008 502.153 732.48 514.061C735.058 522.912 733.099 524.854 733.109 525.191L726.668 535.89Z" fill="#A4C8FC"/>
<path d="M682.067 465.966C682.067 465.966 680.117 484.124 689.641 491.849C699.169 499.573 716.563 493.936 716.563 493.936C716.563 493.936 718.512 475.777 708.989 468.052C699.46 460.328 682.067 465.966 682.067 465.966Z" fill="#A4C8FC"/>
<path d="M723.752 602.119C723.43 600.343 717.27 558.762 733.026 512.426C748.164 467.907 739.784 430.163 739.716 429.789H750.856C751.142 431.403 751.917 468.452 740.054 519.221C729.377 564.909 749.318 602.113 745.071 602.113H723.752V602.119Z" fill="#A4C8FC"/>
<path d="M747.15 479.375C747.207 479.136 752.525 448.674 766.831 445.206C760.437 446.037 752.312 450.61 747.768 459.124C744.39 465.452 745.575 467.248 745.512 467.497L747.15 479.375Z" fill="#A4C8FC"/>
<path d="M689.89 398.575C689.89 398.575 674.462 376.819 656.933 370.428C656.933 370.428 663.488 421.462 653.902 422.09C644.317 422.724 650.705 364.697 650.705 364.697C650.705 364.697 605.054 339.385 586.511 340.086C586.511 340.086 612.758 391.079 603.312 389.334C593.867 387.59 564.086 335.793 564.086 335.793C564.086 335.793 516.443 324.066 507.039 352.119C497.636 380.172 509.29 395.154 516.318 397.355C523.352 399.556 569.175 401.637 567.636 407.508C566.097 413.38 534.616 421.068 517.685 414.714C517.685 414.714 533.961 462.742 559.08 461.823C584.193 460.91 592.832 445.923 608.36 445.637C623.892 445.352 634.944 450.174 626.97 453.876C618.996 457.582 592.994 453.253 579.883 463.126C566.773 473 556.283 478.938 579.192 485.043C602.106 491.153 636.691 484.254 653.102 473.332C653.149 473.301 666.539 472.237 677.082 534.136C681.147 557.999 678.023 593.397 678.023 593.397L686.527 592.105C691.247 522.72 666.17 465.042 666.17 465.042C666.17 465.042 708.719 433.641 689.89 398.575Z" fill="#A4C8FC"/>
<path d="M829.029 490.141C829.029 490.141 777.768 468.634 796.118 429.503C796.118 429.503 811.568 405.006 830.193 397.048C830.193 397.048 826.092 452.765 836.525 452.889C846.958 453.014 836.608 390.471 836.608 390.471C836.608 390.471 884.62 360.342 904.763 360.015C904.763 360.015 879.307 416.847 889.449 414.402C899.586 411.957 928.826 354.045 928.826 354.045C928.826 354.045 979.796 338.534 991.643 368.399C1003.49 398.263 991.742 415.191 984.246 417.989C976.75 420.787 927.189 425.74 929.2 432.011C931.212 438.282 965.802 444.776 983.783 436.89C983.783 436.89 968.962 489.923 941.676 490.406C914.39 490.888 904.145 475.149 887.286 475.751C870.428 476.358 858.727 482.23 867.59 485.78C876.453 489.331 904.394 483.112 919.188 493.043C933.983 502.973 945.71 508.803 921.226 516.771C896.742 524.74 851.387 526.614 840.205 508.377C829.029 490.141 829.029 490.141 829.029 490.141Z" fill="#D2E3FC"/>
<path d="M968.952 380.717C968.952 380.717 838.926 439.621 829.029 490.141C829.029 490.141 832.148 511.892 821.486 538.449L822.577 548.079C822.577 548.079 833.005 513.745 840.21 508.382C840.21 508.382 805.199 469.433 968.952 380.717Z" fill="#A4C8FC"/>
<path d="M821.486 538.449C821.486 538.449 804.248 572.368 820.472 609.448L825.665 607.408C825.665 607.408 815.669 565.677 824.147 543.158C832.626 520.644 821.486 538.449 821.486 538.449Z" fill="#A4C8FC"/>
<path d="M633.587 257.158C654.594 279.485 643.667 323.822 643.667 323.822C643.667 323.822 598.675 331.962 577.664 309.635C556.657 287.308 567.584 242.971 567.584 242.971C567.584 242.971 612.581 234.831 633.587 257.158Z" fill="#A4C8FC"/>
<path d="M633.587 257.158C654.594 279.485 643.667 323.822 643.667 323.822L567.584 242.976C567.589 242.971 612.581 234.831 633.587 257.158Z" fill="#D2E3FC"/>
<path d="M904.539 342.194C893.576 354.876 868.801 351.465 868.801 351.465C868.801 351.465 861.804 327.487 872.767 314.805C883.73 302.123 908.506 305.534 908.506 305.534C908.506 305.534 915.503 329.512 904.539 342.194Z" fill="#A4C8FC"/>
<path d="M774.961 453.761C767.61 455.796 759.106 448.269 759.106 448.269C759.106 448.269 762.516 437.441 769.866 435.406C777.217 433.371 785.721 440.898 785.721 440.898C785.721 440.898 782.311 451.726 774.961 453.761Z" fill="#A4C8FC"/>
<path d="M645.179 215.754C650.217 227.683 639.363 243.645 639.363 243.645C639.363 243.645 620.337 240.266 615.3 228.337C610.262 216.408 621.122 200.445 621.122 200.445C621.122 200.445 640.137 203.824 645.179 215.754Z" fill="#A4C8FC"/>
<path d="M825.607 395.766C869.387 352.047 869.387 281.164 825.607 237.444C781.827 193.725 710.845 193.725 667.065 237.444C623.285 281.164 623.285 352.047 667.065 395.766C710.845 439.486 781.827 439.486 825.607 395.766Z" fill="#E2810E"/>
<path d="M815.902 396.987C859.682 353.268 859.682 282.385 815.902 238.665C772.122 194.946 701.141 194.946 657.361 238.665C613.581 282.385 613.581 353.268 657.361 396.987C701.141 440.707 772.122 440.707 815.902 396.987Z" fill="#FFB93E"/>
<path d="M749.567 420.336C722.499 423.741 695.723 416.411 674.171 399.706C652.618 382.996 638.874 358.909 635.464 331.879C632.054 304.849 639.394 278.109 656.122 256.587C672.855 235.064 696.976 221.339 724.043 217.934C751.111 214.528 777.887 221.858 799.44 238.563C820.992 255.274 834.736 279.36 838.146 306.391C841.556 333.421 834.216 360.16 817.488 381.683C800.76 403.205 776.635 416.936 749.567 420.336ZM724.807 223.971C672.263 230.579 634.892 278.644 641.509 331.121C648.127 383.598 696.258 420.912 748.808 414.304C801.353 407.695 838.723 359.631 832.106 307.154C825.488 254.677 777.357 217.363 724.807 223.971Z" fill="#FFA412"/>
<path d="M754.464 346.751C754.448 344.535 754.121 342.588 753.481 340.906C752.842 339.224 751.808 337.698 750.378 336.338C748.949 334.978 747.103 333.722 744.852 332.58C742.596 331.438 739.846 330.322 736.597 329.237C731.009 327.326 725.936 325.317 721.371 323.215C716.807 321.113 712.893 318.673 709.634 315.901C706.374 313.129 703.832 309.879 702.018 306.147C700.199 302.414 699.273 297.965 699.237 292.795C699.206 288.315 699.97 284.219 701.535 280.513C703.099 276.812 705.35 273.577 708.287 270.816C711.224 268.054 714.749 265.801 718.855 264.057C722.967 262.313 727.578 261.186 732.693 260.677L732.574 243.749L746.219 243.651L746.344 260.818C751.236 261.415 755.68 262.676 759.678 264.597C763.67 266.518 767.07 269.03 769.882 272.119C772.689 275.213 774.862 278.878 776.401 283.108C777.94 287.344 778.724 292.099 778.761 297.374L754.116 297.55C754.069 291.222 752.629 286.498 749.791 283.378C746.952 280.264 743.173 278.717 738.458 278.753C735.901 278.774 733.697 279.142 731.856 279.869C730.011 280.591 728.498 281.582 727.313 282.828C726.128 284.079 725.255 285.548 724.698 287.24C724.142 288.933 723.872 290.755 723.887 292.707C723.903 294.659 724.199 296.424 724.776 298.002C725.353 299.58 726.346 301.038 727.75 302.373C729.153 303.707 731.009 304.958 733.322 306.131C735.636 307.304 738.5 308.508 741.92 309.749C747.446 311.769 752.483 313.84 757.016 315.968C761.549 318.102 765.448 320.562 768.713 323.36C771.972 326.158 774.514 329.424 776.333 333.156C778.153 336.888 779.078 341.311 779.114 346.43C779.146 351.071 778.366 355.244 776.775 358.945C775.179 362.652 772.913 365.855 769.976 368.565C767.039 371.274 763.488 373.465 759.319 375.131C755.15 376.798 750.513 377.883 745.398 378.397L745.512 394.141L731.95 394.24L731.836 378.578C727.11 378.137 722.541 377.14 718.128 375.593C713.709 374.041 709.784 371.788 706.354 368.835C702.923 365.881 700.168 362.143 698.088 357.617C696.009 353.095 694.948 347.67 694.902 341.342L719.547 341.166C719.573 344.909 720.119 348.034 721.189 350.531C722.26 353.028 723.68 355.021 725.452 356.516C727.225 358.006 729.237 359.049 731.487 359.636C733.738 360.228 736.026 360.513 738.36 360.498C741.031 360.477 743.376 360.119 745.388 359.418C747.399 358.717 749.084 357.757 750.44 356.532C751.797 355.312 752.811 353.863 753.481 352.197C754.147 350.515 754.474 348.709 754.464 346.751Z" fill="#FFA412"/>
<path d="M835.787 591.305L835.781 591.394L833.546 625.691L825.244 753.019H670.079L660.946 627.436L658.425 592.821L658.316 591.305H835.787Z" fill="#739AF0"/>
<path d="M835.781 591.394L833.546 625.686C821.855 621.617 789.371 611.852 747.051 611.852C693.607 611.852 660.941 627.431 660.941 627.431L658.425 592.816L835.781 591.394Z" fill="#618DD8"/>
<path d="M841.177 609.433H652.691L650.534 587.552H843.574L841.177 609.433Z" fill="#739AF0"/>
<path d="M827.636 759.82H666.747L664.907 752.194H829.679L827.636 759.82Z" fill="#618DD8"/>
<path d="M549.327 688.883C549.182 688.084 546.411 669.38 553.502 648.538C560.311 628.51 556.543 611.535 556.512 611.364H561.523C561.653 612.091 562.001 628.754 556.662 651.59C551.859 672.142 560.826 688.878 558.918 688.878H549.327V688.883Z" fill="#A4C8FC"/>
<path d="M559.849 633.67C559.875 633.566 562.266 619.862 568.702 618.304C565.827 618.678 562.173 620.734 560.13 624.565C558.612 627.41 559.142 628.22 559.116 628.334L559.849 633.67Z" fill="#A4C8FC"/>
<path d="M547.96 630.467C547.96 630.467 541.665 620.256 533.982 616.882C533.982 616.882 535.443 639.977 531.123 639.983C526.803 639.988 531.352 614.131 531.352 614.131C531.352 614.131 511.593 601.449 503.25 601.226C503.25 601.226 513.553 624.876 509.363 623.817C505.173 622.758 493.31 598.651 493.31 598.651C493.31 598.651 472.262 592.011 467.23 604.33C462.198 616.648 466.991 623.714 470.084 624.902C473.177 626.091 493.685 628.354 492.827 630.945C491.964 633.535 477.611 636.079 470.199 632.736C470.199 632.736 476.114 654.762 487.41 655.078C498.711 655.395 503.021 648.917 510.002 649.238C516.983 649.56 521.802 652.042 518.117 653.474C514.431 654.907 502.886 652.213 496.715 656.267C490.545 660.316 485.664 662.683 495.769 666.089C505.875 669.494 521.6 667.397 529.283 662.969C529.303 662.953 535.344 662.865 538.281 690.954C539.414 701.783 536.981 717.58 536.981 717.58L540.839 717.242C544.971 686.236 535.386 659.621 535.386 659.621C535.386 659.621 555.394 646.752 547.96 630.467Z" fill="#A4C8FC"/>
<path d="M572.361 622.151C569.055 623.065 565.229 619.68 565.229 619.68C565.229 619.68 566.763 614.811 570.069 613.892C573.375 612.978 577.201 616.363 577.201 616.363C577.201 616.363 575.667 621.237 572.361 622.151Z" fill="#A4C8FC"/>
<path d="M610.392 547.71C598.847 555.258 598.946 575.799 598.946 575.799C598.946 575.799 617.758 584.1 629.304 576.547C640.849 568.999 640.75 548.458 640.75 548.458C640.75 548.458 621.938 540.162 610.392 547.71Z" fill="#A4C8FC"/>
<path d="M610.392 547.71C598.847 555.258 598.946 575.799 598.946 575.799L640.75 548.458C640.75 548.458 621.938 540.162 610.392 547.71Z" fill="#D2E3FC"/>
<path d="M609.696 528.384C606.234 533.071 609.295 541.19 609.295 541.19C609.295 541.19 617.971 541.715 621.434 537.032C624.896 532.345 621.834 524.22 621.834 524.22C621.834 524.22 613.163 523.701 609.696 528.384Z" fill="#A4C8FC"/>
<path d="M595.139 596.064C614.833 576.397 614.833 544.512 595.139 524.846C575.446 505.179 543.516 505.179 523.823 524.846C504.129 544.512 504.129 576.397 523.823 596.064C543.516 615.73 575.446 615.73 595.139 596.064Z" fill="#E2810E"/>
<path d="M558.402 611.288C586.195 609.478 607.256 585.511 605.442 557.756C603.629 530.002 579.629 508.971 551.836 510.781C524.044 512.592 502.983 536.559 504.796 564.313C506.609 592.067 530.61 613.099 558.402 611.288Z" fill="#FFB93E"/>
<path d="M560.941 607.118C548.766 608.649 536.722 605.353 527.027 597.836C517.332 590.319 511.151 579.485 509.618 567.328C508.084 555.17 511.385 543.142 518.912 533.461C526.44 523.779 537.288 517.607 549.463 516.076C561.637 514.544 573.682 517.841 583.377 525.357C593.072 532.874 599.252 543.708 600.786 555.866C602.319 568.023 599.018 580.051 591.491 589.733C583.964 599.414 573.115 605.586 560.941 607.118ZM549.801 518.791C526.164 521.765 509.358 543.381 512.331 566.985C515.305 590.589 536.956 607.372 560.593 604.403C584.229 601.433 601.035 579.812 598.062 556.208C595.089 532.604 573.438 515.816 549.801 518.791Z" fill="#FFA412"/>
<path d="M563.14 574.019C563.134 573.022 562.984 572.145 562.698 571.387C562.412 570.629 561.944 569.944 561.305 569.331C560.66 568.719 559.833 568.158 558.82 567.639C557.806 567.125 556.569 566.622 555.108 566.134C552.597 565.272 550.315 564.369 548.262 563.424C546.209 562.479 544.452 561.384 542.98 560.133C541.514 558.887 540.371 557.423 539.555 555.746C538.739 554.069 538.318 552.066 538.302 549.74C538.286 547.726 538.635 545.883 539.336 544.217C540.038 542.55 541.052 541.097 542.372 539.856C543.693 538.615 545.278 537.598 547.129 536.814C548.979 536.03 551.053 535.522 553.351 535.293L553.299 527.678L559.438 527.636L559.496 535.355C561.694 535.625 563.696 536.191 565.494 537.058C567.288 537.925 568.821 539.052 570.085 540.443C571.348 541.834 572.325 543.485 573.016 545.385C573.708 547.29 574.061 549.429 574.077 551.801L562.989 551.879C562.968 549.034 562.318 546.906 561.045 545.504C559.766 544.102 558.071 543.407 555.945 543.422C554.796 543.433 553.803 543.599 552.977 543.926C552.15 544.253 551.469 544.694 550.934 545.255C550.398 545.816 550.009 546.48 549.759 547.238C549.509 548.001 549.385 548.816 549.395 549.699C549.4 550.576 549.536 551.37 549.795 552.081C550.055 552.792 550.502 553.447 551.131 554.049C551.76 554.651 552.597 555.212 553.637 555.736C554.677 556.26 555.966 556.805 557.505 557.361C559.989 558.269 562.256 559.203 564.294 560.159C566.331 561.119 568.088 562.225 569.554 563.486C571.02 564.742 572.164 566.212 572.98 567.893C573.796 569.575 574.212 571.564 574.233 573.863C574.248 575.95 573.895 577.829 573.178 579.49C572.46 581.157 571.441 582.6 570.121 583.82C568.801 585.04 567.199 586.026 565.328 586.774C563.451 587.521 561.367 588.009 559.064 588.243L559.116 595.323L553.018 595.365L552.966 588.321C550.84 588.123 548.787 587.677 546.801 586.976C544.815 586.28 543.048 585.268 541.504 583.934C539.96 582.605 538.723 580.923 537.787 578.888C536.852 576.853 536.373 574.414 536.353 571.569L547.441 571.491C547.451 573.178 547.701 574.58 548.179 575.701C548.657 576.822 549.296 577.72 550.097 578.39C550.892 579.06 551.797 579.527 552.81 579.797C553.824 580.061 554.853 580.191 555.903 580.186C557.104 580.176 558.16 580.015 559.064 579.703C559.969 579.387 560.728 578.956 561.336 578.405C561.944 577.855 562.401 577.206 562.703 576.454C562.999 575.711 563.145 574.896 563.14 574.019Z" fill="#FFA412"/>
<path d="M599.72 684.019V684.06L598.712 699.488L594.979 756.762H525.186L521.075 700.272L519.941 684.704L519.895 684.019H599.72Z" fill="#B4C9F7"/>
<path d="M599.72 684.06L598.717 699.488C593.456 697.661 578.849 693.264 559.813 693.264C535.77 693.264 521.08 700.272 521.08 700.272L519.947 684.704L599.72 684.06Z" fill="#9BB8EA"/>
<path d="M602.148 692.174H517.363L516.391 682.332H603.224L602.148 692.174Z" fill="#B4C9F7"/>
<path d="M596.055 759.82H523.69L522.858 756.388H596.97L596.055 759.82Z" fill="#B4C9F7"/>
<path d="M990.4 85.9339L980.081 88.1816L979.837 88.2387C978.584 88.5191 977.737 89.6871 977.877 90.9537L978.808 99.7111C978.823 99.8565 978.828 99.9966 978.818 100.137C978.745 101.108 978.116 101.985 977.175 102.302C971.655 104.269 966.586 107.295 962.256 111.241C962.074 111.402 961.877 111.531 961.669 111.635C960.878 112.019 959.912 111.962 959.158 111.464L953.055 107.358C952.249 106.823 951.21 106.813 950.399 107.264C950.154 107.41 949.915 107.596 949.718 107.83L942.768 116.068C941.91 117.081 941.972 118.596 942.923 119.541L949.853 126.451C950.534 127.136 950.763 128.143 950.43 129.051C949.972 130.365 949.567 131.694 949.229 133.064C948.59 135.634 948.2 138.198 948.033 140.742L948.028 140.752C947.955 141.816 947.259 142.709 946.24 143.026L936.743 145.964L936.264 146.115C935.043 146.478 934.289 147.75 934.565 149.011L936.857 159.549C937.143 160.831 938.344 161.704 939.654 161.563L949.416 160.53C950.503 160.411 951.537 161.003 951.979 161.989C953.902 166.116 956.45 169.937 959.543 173.29C960.322 174.152 960.416 175.424 959.766 176.394L954.906 183.631C954.167 184.737 954.386 186.19 955.389 187.031L963.665 194.003C964.647 194.823 966.092 194.755 966.987 193.857L975.132 185.738C975.818 185.048 976.843 184.809 977.773 185.116C978.917 185.5 980.081 185.842 981.266 186.133C983.512 186.688 985.753 187.062 987.967 187.265C988.975 187.348 989.838 188.023 990.124 188.993L993.644 200.398C994.039 201.654 995.312 202.392 996.591 202.116L1007.18 199.822C1008.3 199.573 1009.11 198.586 1009.16 197.47C1009.16 197.356 1009.17 197.226 1009.14 197.107L1008 186.289C1007.89 185.282 1008.37 184.311 1009.25 183.823C1009.33 183.776 1009.4 183.729 1009.49 183.704C1009.73 183.595 1009.97 183.501 1010.21 183.366C1013.05 182.063 1015.76 180.443 1018.27 178.559C1019.1 177.915 1020.27 177.895 1021.15 178.497L1028.81 183.62C1029.89 184.352 1031.36 184.134 1032.2 183.132L1033.75 181.305L1039.13 174.91C1039.99 173.913 1039.92 172.428 1038.99 171.494L1032.16 164.688C1031.43 163.967 1031.25 162.866 1031.67 161.932C1032.8 159.482 1033.72 156.865 1034.39 154.14C1034.89 152.116 1035.25 150.07 1035.45 148.051L1037.45 147.438L1045.63 144.905C1046.64 144.604 1047.33 143.68 1047.37 142.662C1047.38 142.45 1047.36 142.237 1047.31 142.019L1045.02 131.408C1044.74 130.157 1043.56 129.321 1042.29 129.446L1035.62 130.162C1034.5 130.282 1033.4 129.612 1033.01 128.553C1031.38 124.151 1029.08 120.045 1026.18 116.395C1025.49 115.528 1025.44 114.345 1026.06 113.473L1032.2 104.331C1032.88 103.303 1032.69 101.933 1031.74 101.134L1023.36 94.0995C1022.37 93.2638 1020.91 93.326 1020.02 94.2397L1011.55 102.691C1010.82 103.423 1009.73 103.63 1008.78 103.226C1006.74 102.359 1004.59 101.663 1002.36 101.113C1001.16 100.817 999.954 100.568 998.754 100.376C997.813 100.22 997.038 99.5554 996.747 98.647L993.368 87.7144C992.983 86.4167 991.705 85.6639 990.4 85.9339ZM969.653 135.322C970.667 132.587 972.206 129.908 974.332 127.359C974.779 126.814 975.34 126.259 975.954 125.703C978.636 123.346 982.556 121.213 985.602 120.564C1008.91 115.638 1024.37 140.721 1009.87 159.181C1009.63 159.482 1009.39 159.783 1009.13 160.079C1006.78 162.866 1001.9 165.789 998.338 166.578C996.471 166.993 994.652 167.211 992.9 167.263C975.371 167.736 963.894 150.901 969.653 135.322Z" fill="#DFEDFB"/>
<path d="M1147.99 121.659L1131.75 123.123L1131.36 123.159C1129.39 123.352 1127.87 124.976 1127.83 126.949L1127.58 140.545C1127.57 140.768 1127.55 140.991 1127.51 141.199C1127.21 142.673 1126.08 143.893 1124.57 144.199C1115.74 146.151 1107.39 149.826 1100.01 155.043C1099.7 155.256 1099.37 155.417 1099.03 155.536C1097.75 155.973 1096.28 155.697 1095.22 154.794L1086.66 147.335C1085.52 146.364 1083.93 146.141 1082.61 146.686C1082.21 146.862 1081.81 147.101 1081.45 147.423L1069.23 158.708C1067.72 160.094 1067.52 162.43 1068.8 164.06L1078.09 175.974C1079 177.152 1079.16 178.736 1078.48 180.07C1077.53 181.996 1076.66 183.953 1075.87 185.988C1074.4 189.803 1073.31 193.655 1072.56 197.522L1072.56 197.538C1072.25 199.152 1071.01 200.393 1069.38 200.678L1054.27 203.357L1053.51 203.497C1051.56 203.824 1050.17 205.62 1050.35 207.614L1051.84 224.194C1052.04 226.208 1053.71 227.781 1055.74 227.818L1070.9 228.103C1072.58 228.129 1074.06 229.235 1074.54 230.823C1076.7 237.52 1079.86 243.853 1083.96 249.579C1084.99 251.048 1084.89 253.015 1083.7 254.375L1074.87 264.529C1073.53 266.081 1073.59 268.35 1074.96 269.829L1086.3 282.096C1087.65 283.544 1089.88 283.716 1091.42 282.511L1105.45 271.631C1106.64 270.702 1108.25 270.541 1109.62 271.184C1111.29 271.994 1113.01 272.736 1114.77 273.417C1118.11 274.699 1121.47 275.695 1124.82 276.427C1126.36 276.749 1127.55 277.948 1127.8 279.49L1131.01 297.638C1131.38 299.637 1133.18 301.013 1135.19 300.836L1151.85 299.346C1153.62 299.175 1155.05 297.825 1155.33 296.117C1155.36 295.941 1155.39 295.749 1155.38 295.557L1155.71 278.769C1155.73 277.206 1156.66 275.81 1158.1 275.228C1158.23 275.171 1158.35 275.119 1158.49 275.088C1158.88 274.974 1159.26 274.865 1159.65 274.709C1164.26 273.261 1168.72 271.293 1172.93 268.89C1174.33 268.064 1176.12 268.251 1177.35 269.347L1188.09 278.66C1189.61 279.983 1191.9 279.937 1193.38 278.566L1196.11 276.059L1205.59 267.291C1207.09 265.926 1207.26 263.636 1206.03 262.027L1196.88 250.29C1195.89 249.044 1195.83 247.326 1196.66 245.971C1198.85 242.436 1200.76 238.605 1202.32 234.556C1203.48 231.55 1204.41 228.482 1205.11 225.425L1208.28 224.869L1221.29 222.554C1222.91 222.284 1224.14 221.007 1224.39 219.45C1224.45 219.123 1224.46 218.796 1224.42 218.453L1222.95 201.758C1222.76 199.786 1221.11 198.28 1219.14 198.228L1208.79 198.052C1207.04 198.021 1205.49 196.785 1205.09 195.082C1203.44 188.028 1200.7 181.295 1196.97 175.149C1196.08 173.695 1196.23 171.868 1197.34 170.643L1208.51 157.81C1209.74 156.367 1209.72 154.228 1208.42 152.822L1196.94 140.435C1195.58 138.966 1193.34 138.785 1191.79 140.005L1177.19 151.332C1175.94 152.318 1174.22 152.422 1172.83 151.622C1169.88 149.909 1166.72 148.43 1163.41 147.153C1161.63 146.468 1159.83 145.86 1158.03 145.336C1156.62 144.915 1155.56 143.747 1155.29 142.299L1152.21 124.904C1151.85 122.9 1150.04 121.498 1147.99 121.659ZM1106.72 193.354C1108.79 189.362 1111.67 185.546 1115.41 182.053C1116.2 181.3 1117.17 180.558 1118.22 179.826C1122.78 176.727 1129.19 174.209 1133.98 173.799C1170.64 170.715 1189.5 212.104 1163.75 237.608C1163.33 238.023 1162.9 238.434 1162.45 238.844C1158.31 242.664 1150.26 246.205 1144.67 246.734C1141.73 247.009 1138.9 246.999 1136.2 246.745C1109.25 244.102 1094.91 216.122 1106.72 193.354Z" fill="#CDE3FD"/>
</g>
<defs>
<clipPath id="clip0">
<rect width="1474" height="762" fill="white"/>
</clipPath>
</defs>
</svg>
