<svg width="324" height="216" viewBox="0 0 324 216" fill="none" xmlns="http://www.w3.org/2000/svg">
<path d="M324 0H0V216H324V0Z" fill="white"/>
<path d="M26.6513 187.521C26.7218 186.288 -2.29151 149.281 31.4961 115.113C46.7487 99.6887 72.5478 108.046 68.4673 62.9875C64.9432 24.084 125.805 1.22438 163.628 35.9581C188.066 58.3998 212.805 28.4615 251.574 45.448C290.343 62.4346 264.814 108.603 280.723 112.954C312.06 121.524 327.624 159.234 302.639 187.102L26.6513 187.521Z" fill="#EBF3FA"/>
<path d="M157.279 97.5745C157.114 97.2352 156.933 96.8913 156.74 96.552L157.286 96.2421C157.485 96.5931 157.673 96.9499 157.843 97.3009L157.279 97.5745ZM156.138 95.5636C155.93 95.2443 155.708 94.9238 155.478 94.6103L155.984 94.2382C156.221 94.561 156.45 94.8909 156.663 95.2196L156.138 95.5636ZM93.7828 102.485C93.386 102.527 92.9869 102.561 92.596 102.584L92.5596 101.957C92.9399 101.934 93.3296 101.902 93.7159 101.86L93.7828 102.485ZM94.9626 102.329L94.8663 101.709C95.2443 101.65 95.6293 101.582 96.0109 101.506L96.1341 102.121C95.7432 102.199 95.3499 102.269 94.9626 102.329ZM91.4044 102.623C91.0053 102.627 90.6038 102.619 90.2117 102.601L90.2411 101.974C90.6214 101.992 91.0112 101.999 91.3997 101.997L91.4044 102.623ZM97.2951 101.863L97.146 101.254C97.5182 101.163 97.8962 101.062 98.2706 100.954L98.4444 101.558C98.0617 101.667 97.6755 101.77 97.2951 101.863ZM89.0226 102.512C88.6258 102.471 88.2278 102.419 87.8393 102.356L87.9402 101.736C88.317 101.797 88.7021 101.849 89.0871 101.887L89.0226 102.512ZM99.5796 101.208L99.3835 100.611C99.7474 100.492 100.117 100.363 100.483 100.228L100.701 100.817C100.329 100.954 99.9505 101.086 99.5796 101.208ZM101.806 100.387L101.569 99.8061C101.925 99.6605 102.285 99.5067 102.641 99.3471L102.897 99.9199C102.535 100.082 102.169 100.239 101.806 100.387ZM86.6653 102.128C86.2744 102.04 85.8859 101.938 85.5079 101.826L85.6863 101.224C86.0502 101.332 86.427 101.43 86.8039 101.515L86.6653 102.128ZM154.766 93.6959C154.523 93.4 154.267 93.1042 154.008 92.8178L154.473 92.3952C154.741 92.6898 155.002 92.9927 155.252 93.2979L154.766 93.6959ZM103.972 99.4187L103.698 98.854C104.043 98.6862 104.394 98.5101 104.74 98.3293L105.031 98.8857C104.68 99.0689 104.323 99.2485 103.972 99.4187ZM84.3727 101.45C83.9982 101.311 83.6249 101.158 83.2645 100.995L83.5228 100.424C83.8703 100.58 84.2295 100.728 84.5899 100.86L84.3727 101.45ZM106.074 98.3211L105.767 97.7729C106.103 97.585 106.443 97.389 106.778 97.1894L107.1 97.7283C106.759 97.9313 106.414 98.1309 106.074 98.3211ZM153.205 91.9784C152.933 91.7073 152.649 91.4384 152.362 91.1802L152.782 90.7141C153.076 90.9794 153.367 91.2553 153.648 91.5335L153.205 91.9784ZM82.1904 100.465C81.8394 100.274 81.4919 100.07 81.1573 99.8566L81.4954 99.3283C81.8159 99.5337 82.1505 99.7309 82.4886 99.9129L82.1904 100.465ZM108.109 97.1096L107.773 96.579C108.099 96.3736 108.427 96.1599 108.754 95.9427L109.102 96.4651C108.772 96.6846 108.438 96.9018 108.109 97.1096ZM110.079 95.796L109.719 95.2818C110.033 95.0611 110.353 94.831 110.668 94.5998L111.04 95.1057C110.721 95.3405 110.398 95.5729 110.079 95.796ZM80.1736 99.1722C79.8543 98.9315 79.542 98.6768 79.2439 98.4138L79.6594 97.9431C79.9447 98.1955 80.2452 98.4396 80.5516 98.6709L80.1736 99.1722ZM151.482 90.4218C151.184 90.1776 150.876 89.9382 150.566 89.7081L150.941 89.2045C151.259 89.4404 151.575 89.687 151.88 89.937L151.482 90.4218ZM111.984 94.3943L111.602 93.8966L111.694 93.825C111.977 93.6066 112.259 93.3918 112.54 93.1817L112.915 93.6841C112.637 93.8931 112.358 94.1056 112.077 94.3227L111.984 94.3943ZM149.618 89.0378C149.298 88.8229 148.968 88.6128 148.639 88.4133L148.964 87.8756C149.303 88.0799 149.64 88.2959 149.969 88.5154L149.618 89.0378ZM78.3763 97.5862C78.0993 97.2998 77.8305 96.9981 77.5769 96.6917L78.0617 96.2926C78.3047 96.5872 78.5618 96.8748 78.8283 97.1495L78.3763 97.5862ZM113.86 92.9915L113.494 92.482C113.814 92.2519 114.14 92.0219 114.46 91.8012L114.817 92.3177C114.499 92.536 114.177 92.7638 113.86 92.9915ZM147.631 87.8357C147.293 87.6526 146.945 87.4741 146.597 87.3074L146.869 86.7416C147.226 86.913 147.583 87.0961 147.93 87.284L147.631 87.8357ZM115.785 91.6626L115.439 91.1391C115.77 90.9207 116.105 90.7047 116.433 90.4981L116.768 91.0299C116.444 91.2342 116.113 91.4466 115.785 91.6626ZM76.8514 95.735C76.6237 95.4086 76.4053 95.0682 76.2046 94.723L76.747 94.4061C76.9406 94.736 77.1484 95.0623 77.3668 95.3757L76.8514 95.735ZM117.765 90.4171L117.442 89.8783C117.78 89.6752 118.124 89.4756 118.464 89.2819L118.774 89.8278C118.438 90.0192 118.099 90.2176 117.765 90.4171ZM145.539 86.8285C145.184 86.6782 144.821 86.5338 144.461 86.4012L144.678 85.8119C145.048 85.948 145.421 86.0959 145.785 86.2509L145.539 86.8285ZM119.798 89.2643L119.501 88.7114C119.848 88.5248 120.202 88.3416 120.552 88.1656L120.833 88.7267C120.489 88.8993 120.141 89.08 119.798 89.2643ZM143.362 86.0255C142.994 85.9093 142.62 85.8013 142.247 85.7027L142.407 85.0958C142.79 85.1967 143.175 85.3083 143.551 85.428L143.362 86.0255ZM121.884 88.2149L121.616 87.6467C121.974 87.4788 122.337 87.3145 122.695 87.1572L122.946 87.7324C122.595 87.8873 122.237 88.0493 121.884 88.2149ZM75.6388 93.663C75.4662 93.3049 75.3042 92.9352 75.1598 92.563L75.7444 92.3353C75.8829 92.6922 76.0379 93.0467 76.2034 93.3906L75.6388 93.663ZM141.117 85.4315C140.742 85.3505 140.358 85.2777 139.976 85.2143L140.08 84.5957C140.47 84.6603 140.864 84.7354 141.249 84.8187L141.117 85.4315ZM124.024 87.2828L123.79 86.7005C124.158 86.5526 124.53 86.4094 124.897 86.2756L125.113 86.8649C124.752 86.9963 124.386 87.1372 124.024 87.2828ZM138.827 85.05C138.444 85.0042 138.056 84.9666 137.671 84.9385L137.716 84.3128C138.111 84.3421 138.509 84.3797 138.901 84.4266L138.827 85.05ZM126.213 86.4798L126.016 85.8835C126.393 85.759 126.774 85.6393 127.149 85.5301L127.326 86.1323C126.958 86.2403 126.584 86.3577 126.213 86.4798ZM136.511 84.8798C136.128 84.8692 135.737 84.8657 135.349 84.8716L135.339 84.2435C135.736 84.2376 136.136 84.24 136.528 84.2517L136.511 84.8798ZM128.45 85.8224L128.293 85.2143C128.676 85.1157 129.065 85.0242 129.449 84.9396L129.582 85.5524C129.207 85.6358 128.825 85.7262 128.45 85.8224ZM134.188 84.9138C133.804 84.9361 133.414 84.9666 133.029 85.0042L132.967 84.3797C133.36 84.3409 133.759 84.3093 134.151 84.287L134.188 84.9138ZM130.725 85.3259L130.613 84.7084C131.004 84.638 131.398 84.5746 131.787 84.5206L131.874 85.1427C131.494 85.1956 131.107 85.2578 130.725 85.3259ZM74.7689 91.429C74.6539 91.051 74.5517 90.6601 74.4649 90.2692L75.0776 90.133C75.161 90.5087 75.2596 90.8832 75.3699 91.2471L74.7689 91.429ZM74.2465 89.0918C74.2254 88.9474 74.2054 88.803 74.189 88.6586C74.1585 88.4074 74.1338 88.1526 74.115 87.9014L74.7407 87.8545C74.7595 88.0963 74.783 88.3428 74.8123 88.5835C74.8288 88.7232 74.8476 88.8617 74.8687 89.0002L74.2465 89.0918ZM74.6926 86.6993L74.0646 86.704C74.0622 86.3096 74.0716 85.907 74.0951 85.5078L74.722 85.5442C74.6996 85.9304 74.6903 86.319 74.6926 86.6993ZM74.8253 84.3914L74.2019 84.3163C74.2489 83.9313 74.3076 83.5392 74.378 83.1518L74.999 83.2457L74.9943 83.2703C74.9286 83.639 74.871 84.0181 74.8253 84.3914ZM75.2314 82.1082L74.6186 81.9696C74.7055 81.5834 74.803 81.1949 74.9051 80.8157L75.5108 80.98C75.411 81.351 75.3171 81.7302 75.2314 82.1082ZM96.7058 78.9316C96.2914 78.9715 95.8817 78.9809 95.4861 78.9633L95.5155 78.3364C95.8806 78.354 96.2609 78.3434 96.646 78.307L96.7058 78.9316ZM97.9044 78.7414L97.7694 78.1286C98.1333 78.0488 98.5042 77.9455 98.8693 77.8222L99.0701 78.4174C98.6827 78.5477 98.2906 78.6569 97.9044 78.7414ZM94.2688 78.806C93.8567 78.7156 93.4599 78.5888 93.0925 78.4268L93.3449 77.8516C93.6748 77.996 94.0305 78.111 94.4026 78.192L94.2688 78.806ZM100.194 77.9736L99.9353 77.4019C100.28 77.2458 100.623 77.0697 100.955 76.8796L101.268 77.4243C100.918 77.625 100.557 77.8093 100.194 77.9736ZM102.284 76.7786L101.923 76.2644C102.235 76.0449 102.54 75.8078 102.829 75.5624L103.236 76.0402C102.933 76.2996 102.613 76.5473 102.284 76.7786ZM75.8407 79.866L75.2432 79.6747C75.3641 79.2978 75.4944 78.9186 75.6306 78.55L76.2187 78.7672C76.086 79.1276 75.9593 79.4974 75.8407 79.866ZM92.016 77.8034C91.6826 77.5557 91.3774 77.2693 91.1098 76.95L91.5899 76.5462C91.827 76.8279 92.097 77.0815 92.3905 77.2998L92.016 77.8034ZM104.116 75.2149L103.665 74.7783C103.931 74.5024 104.185 74.2124 104.418 73.9166L104.911 74.3052C104.664 74.6186 104.396 74.9238 104.116 75.2149ZM76.646 77.6872L76.0673 77.443C76.221 77.078 76.3854 76.7129 76.5544 76.3572L77.1214 76.6272C76.9571 76.9758 76.7963 77.3315 76.646 77.6872ZM90.4207 75.9181C90.2364 75.5671 90.0791 75.1833 89.9535 74.7794L90.5533 74.5928C90.6672 74.9602 90.8104 75.3077 90.9771 75.6258L90.4207 75.9181ZM105.608 73.3191L105.076 72.9845C105.28 72.6605 105.466 72.326 105.629 71.9879L106.195 72.2614C106.021 72.6194 105.824 72.9751 105.608 73.3191ZM77.6462 75.5918L77.0933 75.2959C77.2799 74.9473 77.4771 74.5986 77.679 74.2594L78.2179 74.581C78.0206 74.9121 77.8281 75.2525 77.6462 75.5918ZM89.6799 73.5903C89.6635 73.4811 89.6471 73.3696 89.6342 73.2569C89.6001 72.9763 89.5766 72.6828 89.5661 72.3835L90.1929 72.3588C90.2035 72.6406 90.2258 72.9176 90.2575 73.1806C90.2704 73.2862 90.2845 73.3895 90.3009 73.4928L89.6799 73.5903ZM106.657 71.1403L106.064 70.936C106.188 70.5768 106.291 70.2082 106.368 69.8408L106.982 69.9711C106.898 70.3632 106.789 70.7564 106.657 71.1403ZM78.8353 73.5973L78.3118 73.2522C78.5289 72.9235 78.7567 72.5948 78.9903 72.2743L79.4974 72.6441C79.2697 72.9563 79.0466 73.2768 78.8353 73.5973ZM90.1976 71.2084L89.5708 71.1837C89.586 70.7823 89.6154 70.3808 89.6588 69.991L90.2833 70.0591C90.2411 70.4348 90.2117 70.8222 90.1976 71.2084ZM107.161 68.7713L106.535 68.7173C106.567 68.3429 106.577 67.9602 106.563 67.5822L107.19 67.5599C107.205 67.9625 107.195 68.371 107.161 68.7713ZM80.203 71.7214L79.7134 71.3293C79.9599 71.0217 80.217 70.7153 80.4788 70.4183L80.9496 70.8327C80.696 71.1215 80.4436 71.4209 80.203 71.7214ZM81.7373 69.9769L81.2853 69.5414C81.56 69.2562 81.8441 68.9744 82.1305 68.7033L82.5625 69.1587C82.2831 69.424 82.0049 69.6987 81.7373 69.9769ZM90.4489 68.9216L89.8314 68.8077C89.9042 68.4145 89.9922 68.0212 90.0943 67.6397L90.7013 67.8017C90.6038 68.1668 90.5181 68.5436 90.4489 68.9216ZM106.423 66.4775C106.339 66.1148 106.213 65.7661 106.053 65.4433L106.615 65.1639C106.798 65.5302 106.939 65.9246 107.035 66.3355L106.423 66.4775ZM83.423 68.3769L83.011 67.9026C83.3091 67.6444 83.6167 67.3885 83.9266 67.1431L84.3163 67.635C84.0146 67.8757 83.7141 68.1257 83.423 68.3769ZM91.0417 66.7041L90.45 66.494C90.5839 66.1183 90.7341 65.7438 90.8973 65.3811L91.4702 65.6393C91.3129 65.9857 91.1685 66.3437 91.0417 66.7041ZM105.45 64.5265C105.219 64.2518 104.949 63.9959 104.65 63.7646L105.032 63.2669C105.368 63.5251 105.671 63.8127 105.932 64.1215L105.45 64.5265ZM85.2437 66.933L84.8751 66.4247C85.1956 66.1923 85.5243 65.9645 85.8542 65.7473L86.2005 66.2709C85.8788 66.4834 85.556 66.7064 85.2437 66.933ZM87.1842 65.6523L86.8614 65.1134C87.2006 64.9103 87.5481 64.712 87.8956 64.5241L88.1949 65.0759C87.8545 65.2602 87.5153 65.4539 87.1842 65.6523ZM91.9832 64.6122L91.4338 64.3093C91.6028 64.0017 91.7871 63.6965 91.9796 63.3983C91.773 63.4711 91.5664 63.5463 91.3622 63.6237L91.1391 63.0368C91.5101 62.8959 91.8881 62.7621 92.2626 62.64L92.4574 63.2363C92.3529 63.2704 92.2473 63.3056 92.1428 63.342L92.5783 63.6308C92.3659 63.9489 92.1663 64.28 91.9832 64.6122ZM103.704 63.1694C103.382 63.0039 103.032 62.856 102.663 62.7292L102.867 62.1352C103.263 62.2714 103.641 62.431 103.99 62.6106L103.704 63.1694ZM89.228 64.5453L88.9533 63.9806C89.309 63.808 89.6729 63.6402 90.0356 63.484L90.2845 64.0604C89.9312 64.213 89.5755 64.3762 89.228 64.5453ZM101.566 62.4263C101.205 62.3489 100.825 62.2867 100.435 62.2409L100.507 61.6175C100.917 61.6645 101.317 61.7302 101.697 61.8124L101.566 62.4263ZM93.5691 62.9006L93.4447 62.4486C93.3778 62.5308 93.3132 62.613 93.2486 62.6952L92.7533 62.3101C92.9951 61.999 93.2533 61.6903 93.5233 61.3921L93.9894 61.8124C93.8638 61.9521 93.7393 62.0941 93.6196 62.2373C93.9342 62.154 94.25 62.0777 94.5611 62.0084L94.6961 62.6212C94.3228 62.7046 93.9436 62.7985 93.5691 62.9006ZM99.2884 62.1575C98.9139 62.1458 98.5254 62.147 98.1345 62.1634L98.1098 61.5365C98.516 61.5201 98.9186 61.5177 99.3084 61.5307L99.2884 62.1575ZM95.8348 62.4029L95.7326 61.783C96.1306 61.7173 96.5286 61.6645 96.9171 61.6234L96.9829 62.2479C96.606 62.2878 96.221 62.3395 95.8348 62.4029ZM94.7912 60.9836L94.3545 60.5328C94.6362 60.2605 94.9332 59.9905 95.2396 59.731L95.6458 60.2088C95.3511 60.4589 95.0635 60.7206 94.7912 60.9836ZM96.5485 59.4857L96.1705 58.9844C96.4816 58.7497 96.8079 58.5172 97.1413 58.293L97.4923 58.8142C97.1683 59.0314 96.8514 59.258 96.5485 59.4857ZM98.469 58.192L98.145 57.6544C98.4784 57.4537 98.8271 57.2541 99.1793 57.0627L99.4786 57.6145C99.1346 57.8023 98.7942 57.996 98.469 58.192ZM100.514 57.0827L100.239 56.5192C100.589 56.349 100.952 56.18 101.318 56.0191L101.572 56.5932C101.212 56.7517 100.857 56.916 100.514 57.0827ZM102.647 56.1436L102.416 55.5601C102.777 55.4157 103.152 55.2749 103.527 55.1399L103.74 55.7303C103.37 55.863 103.003 56.0015 102.647 56.1436ZM104.845 55.3547L104.652 54.7572C105.024 54.6374 105.407 54.52 105.787 54.4097L105.962 55.0119C105.588 55.1211 105.212 55.2361 104.845 55.3547ZM107.09 54.7032L106.933 54.0951C107.312 53.9965 107.701 53.9026 108.087 53.8145L108.227 54.4261C107.846 54.513 107.464 54.6069 107.09 54.7032ZM109.372 54.1808L109.249 53.5657C109.64 53.487 110.033 53.4142 110.418 53.3497L110.524 53.9683C110.144 54.0329 109.756 54.1045 109.372 54.1808ZM112.833 53.6537C112.83 53.6537 112.402 53.6889 111.68 53.7887L111.595 53.1665C112.34 53.0632 112.771 53.028 112.784 53.0268L112.833 53.6537Z" fill="#8C9DF4"/>
<path d="M115.885 122.788H90.9138V186.913H115.885V122.788Z" fill="#BDD1F9"/>
<path d="M154.732 101.829H129.761V186.913H154.732V101.829Z" fill="#BDD1F9"/>
<path d="M192.426 79.2074H165.083V186.912H192.426V79.2074Z" fill="#BDD1F9"/>
<path d="M227.139 64.2976H202.168V186.913H227.139V64.2976Z" fill="#BDD1F9"/>
<path d="M192.426 115.101L244.909 89.694L221.502 139.586L217.545 116.95L192.426 115.101Z" fill="#F77D48"/>
<path d="M180.352 98.0922C179.067 92.8154 182.305 87.4964 187.582 86.2122C192.859 84.9279 198.178 88.1644 199.462 93.4423C200.746 98.719 197.51 104.038 192.232 105.322C186.954 106.607 181.636 103.369 180.352 98.0922Z" fill="#FFB93E"/>
<path d="M192.052 104.586C189.726 105.152 187.32 104.779 185.276 103.534C183.231 102.29 181.794 100.324 181.229 97.9994C180.663 95.6739 181.036 93.2674 182.28 91.2224C183.525 89.1775 185.49 87.7406 187.815 87.1748C190.141 86.6089 192.547 86.9822 194.592 88.2266C196.637 89.4709 198.074 91.4361 198.64 93.7616C199.206 96.0871 198.833 98.4936 197.588 100.539C196.344 102.582 194.378 104.02 192.052 104.586ZM187.942 87.6936C183.428 88.7924 180.65 93.3578 181.747 97.8726C182.846 102.386 187.412 105.165 191.926 104.067C196.44 102.969 199.219 98.4033 198.121 93.8884C197.022 89.3735 192.456 86.5949 187.942 87.6936Z" fill="#FFA412"/>
<path d="M191.748 98.1156C191.725 97.9219 191.676 97.7552 191.605 97.6155C191.532 97.4747 191.428 97.3526 191.289 97.2481C191.15 97.1436 190.978 97.0532 190.77 96.9746C190.562 96.8971 190.311 96.8267 190.018 96.7645C189.512 96.6529 189.049 96.5285 188.631 96.39C188.212 96.2515 187.847 96.0777 187.536 95.8688C187.224 95.6586 186.97 95.4004 186.775 95.0928C186.579 94.7852 186.455 94.4061 186.4 93.9553C186.353 93.5644 186.379 93.1993 186.478 92.8612C186.578 92.5231 186.742 92.2179 186.97 91.9479C187.199 91.6779 187.483 91.4455 187.824 91.2529C188.164 91.0604 188.555 90.916 188.996 90.8209L188.818 89.3441L190.006 89.1998L190.188 90.6965C190.62 90.7 191.02 90.7658 191.388 90.8937C191.755 91.0217 192.077 91.2071 192.351 91.449C192.627 91.6908 192.853 91.989 193.029 92.3435C193.205 92.698 193.321 93.1054 193.376 93.5644L191.23 93.825C191.163 93.2732 190.991 92.8753 190.713 92.6311C190.434 92.3869 190.089 92.2907 189.678 92.34C189.455 92.367 189.268 92.421 189.114 92.5031C188.96 92.5841 188.838 92.6863 188.747 92.806C188.657 92.9269 188.595 93.0631 188.563 93.2169C188.531 93.3707 188.526 93.5315 188.547 93.7017C188.568 93.8719 188.611 94.0234 188.677 94.1548C188.743 94.2863 188.844 94.4037 188.98 94.507C189.115 94.6091 189.29 94.7007 189.502 94.7794C189.716 94.858 189.977 94.9355 190.288 95.0095C190.79 95.1304 191.249 95.2618 191.666 95.4027C192.083 95.5436 192.446 95.7197 192.759 95.9322C193.071 96.1446 193.325 96.4041 193.521 96.7116C193.717 97.0192 193.841 97.396 193.895 97.8421C193.944 98.2471 193.917 98.6192 193.815 98.9573C193.713 99.2966 193.548 99.5995 193.319 99.8648C193.09 100.13 192.802 100.357 192.455 100.543C192.108 100.73 191.714 100.871 191.274 100.966L191.44 102.339L190.259 102.483L190.094 101.116C189.678 101.124 189.27 101.083 188.87 100.992C188.469 100.9 188.104 100.743 187.775 100.519C187.447 100.294 187.17 99.9962 186.943 99.6218C186.717 99.2485 186.571 98.7848 186.504 98.233L188.65 97.9736C188.69 98.2999 188.769 98.5676 188.886 98.7742C189.003 98.982 189.148 99.1416 189.317 99.2543C189.486 99.367 189.671 99.4375 189.874 99.4668C190.076 99.4962 190.278 99.4985 190.481 99.4738C190.714 99.4457 190.915 99.3905 191.084 99.3095C191.251 99.2285 191.389 99.1275 191.496 99.0078C191.601 98.8881 191.675 98.7519 191.717 98.5993C191.757 98.4467 191.768 98.2858 191.748 98.1156Z" fill="#FFA412"/>
<path d="M248.429 76.6148C252.169 72.8745 252.169 66.8101 248.429 63.0697C244.688 59.3293 238.624 59.3293 234.884 63.0697C231.143 66.8101 231.143 72.8745 234.884 76.6148C238.624 80.3552 244.688 80.3552 248.429 76.6148Z" fill="#FFB93E"/>
<path d="M242.006 78.6733C239.677 78.7649 237.451 77.9443 235.739 76.3619C234.028 74.7794 233.035 72.6253 232.943 70.2963C232.851 67.9672 233.672 65.7415 235.254 64.0299C236.837 62.3183 238.991 61.3252 241.32 61.2336C243.649 61.1421 245.874 61.9626 247.586 63.5451C249.298 65.1275 250.291 67.2816 250.383 69.6107C250.474 71.9397 249.654 74.1655 248.071 75.877C246.489 77.5886 244.335 78.5817 242.006 78.6733ZM241.341 61.7549C236.82 61.9321 233.287 65.7556 233.464 70.2763C233.641 74.797 237.465 78.3305 241.986 78.1532C246.506 77.9748 250.04 74.1526 249.863 69.6318C249.684 65.1099 245.862 61.5764 241.341 61.7549Z" fill="#FFA412"/>
<path d="M242.963 72.4375C242.979 72.2485 242.965 72.0806 242.923 71.9315C242.881 71.7836 242.805 71.6463 242.693 71.5195C242.582 71.3927 242.434 71.2729 242.251 71.1591C242.068 71.0452 241.841 70.9302 241.572 70.814C241.111 70.6097 240.693 70.4019 240.321 70.1894C239.948 69.977 239.633 69.7398 239.376 69.4804C239.119 69.2198 238.926 68.924 238.8 68.5929C238.673 68.2619 238.626 67.8757 238.661 67.4343C238.692 67.0516 238.787 66.7088 238.947 66.4047C239.108 66.1007 239.323 65.8413 239.593 65.6276C239.863 65.414 240.18 65.2473 240.543 65.1287C240.906 65.0101 241.306 64.9479 241.745 64.9421L241.859 63.4981L243.021 63.5897L242.906 65.0536C243.318 65.1404 243.686 65.2801 244.013 65.4738C244.339 65.6675 244.609 65.9058 244.826 66.1899C245.042 66.474 245.201 66.8027 245.301 67.1748C245.4 67.547 245.432 67.9578 245.397 68.4074L243.298 68.2419C243.34 67.7019 243.252 67.2887 243.034 67.0023C242.815 66.7158 242.506 66.5562 242.103 66.5245C241.885 66.5069 241.694 66.5233 241.532 66.5714C241.37 66.6196 241.234 66.6924 241.124 66.7898C241.014 66.8872 240.929 67.007 240.869 67.1467C240.809 67.2864 240.773 67.4401 240.76 67.6068C240.747 67.7735 240.759 67.9261 240.796 68.0647C240.834 68.2032 240.908 68.3347 241.017 68.4591C241.126 68.5835 241.275 68.7033 241.463 68.8207C241.651 68.9369 241.886 69.0613 242.169 69.1916C242.624 69.4041 243.037 69.6177 243.408 69.8326C243.778 70.0474 244.093 70.2857 244.35 70.5486C244.607 70.8116 244.799 71.1086 244.926 71.4396C245.053 71.7719 245.1 72.1546 245.066 72.5913C245.034 72.9869 244.938 73.3367 244.775 73.6407C244.612 73.9448 244.396 74.2019 244.126 74.4108C243.856 74.6209 243.537 74.7806 243.17 74.8921C242.804 75.0036 242.4 75.0623 241.961 75.0682L241.855 76.4112L240.7 76.3196L240.806 74.9837C240.407 74.9109 240.025 74.7935 239.661 74.628C239.296 74.4636 238.979 74.2429 238.709 73.9659C238.439 73.6889 238.231 73.3496 238.088 72.9493C237.944 72.549 237.893 72.0783 237.937 71.5383L240.036 71.7038C240.011 72.0231 240.034 72.2931 240.107 72.5138C240.18 72.7345 240.286 72.9153 240.427 73.0549C240.566 73.1946 240.729 73.2979 240.917 73.3649C241.104 73.4318 241.298 73.4729 241.496 73.4881C241.724 73.5057 241.926 73.4928 242.102 73.4482C242.278 73.4036 242.429 73.3343 242.552 73.2393C242.677 73.1453 242.773 73.0291 242.842 72.8918C242.908 72.7556 242.949 72.6042 242.963 72.4375Z" fill="#FFA412"/>
<path d="M218.574 87.2065C218.51 83.558 221.415 80.5492 225.063 80.4847C228.71 80.4201 231.72 83.3255 231.784 86.9729C231.849 90.6202 228.943 93.6301 225.296 93.6947C221.649 93.7593 218.639 90.8538 218.574 87.2065Z" fill="#FFB93E"/>
<path d="M225.287 93.1852C223.68 93.2134 222.157 92.6147 221.001 91.4983C219.844 90.3819 219.192 88.8816 219.162 87.2745C219.134 85.6675 219.733 84.1449 220.849 82.9886C221.966 81.8323 223.466 81.1796 225.073 81.1503C226.68 81.1221 228.203 81.7208 229.359 82.8372C230.515 83.9536 231.168 85.4538 231.197 87.0609C231.225 88.668 230.627 90.1905 229.509 91.3468C228.395 92.5043 226.895 93.157 225.287 93.1852ZM225.081 81.5083C221.961 81.5635 219.468 84.1472 219.523 87.2675C219.578 90.3878 222.162 92.8811 225.282 92.826C228.402 92.7708 230.896 90.187 230.84 87.0668C230.784 83.9465 228.201 81.4531 225.081 81.5083Z" fill="#FFA412"/>
<path d="M226.04 88.8992C226.053 88.7689 226.046 88.6527 226.02 88.5506C225.993 88.4473 225.943 88.3522 225.868 88.263C225.793 88.1738 225.693 88.0892 225.567 88.0071C225.443 87.9261 225.288 87.8427 225.105 87.7582C224.789 87.6103 224.505 87.4612 224.251 87.3086C223.997 87.156 223.783 86.9881 223.61 86.805C223.437 86.6219 223.309 86.4152 223.225 86.184C223.142 85.9539 223.116 85.6863 223.147 85.3834C223.174 85.1204 223.244 84.8845 223.359 84.6779C223.474 84.4701 223.627 84.2952 223.816 84.1519C224.005 84.0087 224.227 83.8984 224.478 83.8221C224.729 83.7458 225.007 83.7094 225.31 83.7117L225.41 82.7174L226.209 82.7984L226.107 83.8068C226.39 83.8725 226.643 83.9747 226.864 84.1132C227.086 84.2517 227.269 84.4196 227.415 84.6192C227.559 84.8187 227.664 85.0476 227.727 85.3047C227.791 85.563 227.806 85.8471 227.775 86.1558L226.33 86.0102C226.368 85.6381 226.313 85.3529 226.167 85.1509C226.02 84.9502 225.809 84.8352 225.532 84.8082C225.382 84.7929 225.25 84.8011 225.139 84.8316C225.026 84.8622 224.931 84.9103 224.854 84.976C224.776 85.0418 224.716 85.1228 224.673 85.2179C224.629 85.3129 224.602 85.4186 224.591 85.5336C224.579 85.6487 224.585 85.7532 224.609 85.8494C224.633 85.9457 224.682 86.0373 224.756 86.1241C224.83 86.211 224.931 86.2967 225.059 86.38C225.187 86.4634 225.348 86.5526 225.54 86.6465C225.851 86.8003 226.133 86.9529 226.386 87.1067C226.638 87.2605 226.85 87.4295 227.024 87.615C227.198 87.8005 227.326 88.0071 227.408 88.2383C227.491 88.4684 227.517 88.7337 227.487 89.0342C227.46 89.3066 227.387 89.5461 227.271 89.7539C227.153 89.9616 227.001 90.1354 226.812 90.2751C226.623 90.4159 226.401 90.5216 226.146 90.5932C225.891 90.6648 225.613 90.6989 225.31 90.6965L225.217 91.6204L224.423 91.5406L224.515 90.6214C224.242 90.5662 223.98 90.4782 223.731 90.3596C223.482 90.241 223.266 90.0837 223.084 89.8889C222.903 89.694 222.764 89.4569 222.671 89.1786C222.579 88.9004 222.55 88.5752 222.588 88.2043L224.033 88.3499C224.011 88.5694 224.024 88.756 224.071 88.9098C224.118 89.0624 224.188 89.1892 224.283 89.2878C224.378 89.3864 224.488 89.4604 224.616 89.5085C224.744 89.5578 224.877 89.5883 225.013 89.6024C225.169 89.6177 225.309 89.6118 225.432 89.5836C225.554 89.5555 225.66 89.5097 225.747 89.4463C225.834 89.3829 225.903 89.3043 225.952 89.2115C225.998 89.1176 226.029 89.0143 226.04 88.8992Z" fill="#FFA412"/>
<path d="M207.151 77.8319C216.034 77.2283 222.745 69.5383 222.141 60.6559C221.538 51.7734 213.848 45.0621 204.965 45.6657C196.083 46.2694 189.371 53.9593 189.975 62.8418C190.579 71.7242 198.269 78.4356 207.151 77.8319Z" fill="#FFB93E"/>
<path d="M210.735 75.8712C207.011 77.1038 203.029 76.8138 199.524 75.0518C196.019 73.2909 193.409 70.2692 192.175 66.5456C190.943 62.8219 191.233 58.84 192.995 55.3347C194.756 51.8294 197.777 49.2198 201.501 47.986C205.225 46.7522 209.206 47.0434 212.712 48.8054C216.217 50.5663 218.827 53.5879 220.059 57.3116C221.292 61.0352 221.002 65.0172 219.24 68.5225C217.48 72.0289 214.46 74.6386 210.735 75.8712ZM201.777 48.8183C194.548 51.2119 190.614 59.0408 193.008 66.2709C195.401 73.4999 203.23 77.4336 210.46 75.04C217.689 72.6464 221.623 64.8176 219.229 57.5886C216.836 50.3585 209.006 46.4247 201.777 48.8183Z" fill="#FFA412"/>
<path d="M209.378 65.34C209.314 65.0277 209.214 64.7612 209.077 64.5417C208.94 64.321 208.752 64.1355 208.513 63.9829C208.273 63.8303 207.979 63.7047 207.629 63.6061C207.279 63.5075 206.86 63.4265 206.371 63.3631C205.53 63.2481 204.759 63.106 204.057 62.9358C203.353 62.7656 202.735 62.5296 202.197 62.2291C201.659 61.9286 201.211 61.5388 200.851 61.0622C200.49 60.5856 200.235 59.9822 200.086 59.2532C199.957 58.6205 199.951 58.0218 200.069 57.4548C200.186 56.8878 200.414 56.3689 200.752 55.897C201.089 55.4251 201.523 55.0084 202.055 54.648C202.587 54.2876 203.205 54 203.913 53.7863L203.425 51.3974L205.348 51.0042L205.843 53.4259C206.55 53.3743 207.212 53.4295 207.829 53.5891C208.446 53.7499 208.996 54.0094 209.478 54.3686C209.96 54.7278 210.369 55.1845 210.703 55.7397C211.038 56.295 211.281 56.9453 211.433 57.6896L207.961 58.3998C207.779 57.5065 207.443 56.8796 206.956 56.518C206.469 56.1565 205.894 56.0438 205.228 56.1799C204.868 56.2539 204.567 56.3678 204.328 56.5216C204.088 56.6753 203.902 56.8561 203.769 57.0662C203.636 57.2752 203.554 57.5076 203.524 57.7624C203.492 58.0171 203.505 58.2812 203.561 58.5571C203.617 58.8318 203.708 59.0736 203.835 59.2802C203.96 59.4869 204.141 59.6653 204.376 59.8144C204.611 59.9635 204.908 60.0891 205.266 60.19C205.624 60.291 206.062 60.3814 206.579 60.4624C207.415 60.5939 208.183 60.7465 208.882 60.9214C209.582 61.0963 210.201 61.3358 210.738 61.641C211.276 61.9462 211.726 62.3371 212.086 62.8125C212.446 63.2892 212.7 63.889 212.848 64.611C212.982 65.266 212.988 65.8765 212.866 66.4446C212.743 67.0128 212.513 67.5282 212.174 67.993C211.835 68.4579 211.395 68.8652 210.853 69.2162C210.312 69.5672 209.688 69.8502 208.98 70.0638L209.434 72.2848L207.524 72.6758L207.072 70.4665C206.394 70.5357 205.721 70.5216 205.056 70.4254C204.389 70.3291 203.772 70.1202 203.207 69.7973C202.64 69.4757 202.148 69.0237 201.729 68.4426C201.31 67.8615 201.009 67.1243 200.826 66.2322L204.298 65.5219C204.406 66.0502 204.571 66.4763 204.791 66.7992C205.012 67.122 205.268 67.365 205.559 67.5258C205.85 67.6878 206.164 67.7782 206.497 67.7993C206.83 67.8205 207.162 67.797 207.49 67.7301C207.867 67.6526 208.188 67.5375 208.452 67.3826C208.716 67.2276 208.927 67.0457 209.084 66.8344C209.242 66.6242 209.344 66.3918 209.392 66.1371C209.438 65.88 209.434 65.6158 209.378 65.34Z" fill="#FFA412"/>
<path d="M142.438 57.3163C140.989 57.6779 139.605 58.0242 138.312 58.2449C134.122 58.961 130.886 58.3705 129.49 52.785C128.095 47.1995 130.673 45.1557 134.708 43.8175C135.953 43.4042 137.337 43.0591 138.786 42.6975C141.883 41.9239 145.311 42.2655 148.04 43.1612C150.725 44.044 152.734 45.4633 153.091 46.8896C153.497 48.5131 152.392 50.713 150.424 52.704C148.425 54.7313 145.535 56.5427 142.438 57.3163Z" fill="#739AF0"/>
<path d="M134.708 43.8186L129.95 40.7101L122.437 42.3113L130.24 47.7935L134.708 43.8186Z" fill="#163560"/>
<path d="M138.3 58.1991L135.561 63.1788L128.178 65.2989L132.488 56.7916L138.3 58.1991Z" fill="#163560"/>
<path d="M138.312 58.2449C134.122 58.961 130.886 58.3705 129.49 52.785C128.095 47.1995 130.673 45.1557 134.708 43.8175L138.312 58.2449Z" fill="#163560"/>
<path d="M119.709 55.2279C119.709 55.2279 121.799 50.355 125.461 51.1051C129.195 51.8705 128.724 55.8947 125.922 56.2633C123.119 56.6331 121.343 54.8194 119.709 55.2279Z" fill="#F77D48"/>
<path d="M141.979 45.7145C143.914 45.2309 145.874 46.4083 146.358 48.3429C146.841 50.2775 145.664 52.238 143.729 52.7216C141.795 53.2053 139.834 52.0278 139.351 50.0932C138.868 48.1586 140.044 46.1982 141.979 45.7145Z" fill="#163560"/>
<path d="M142.855 53.0703C141.129 53.0703 139.555 51.8999 139.118 50.1519C138.604 48.0917 139.861 45.9963 141.922 45.4821C143.982 44.9668 146.077 46.2252 146.591 48.2854C146.84 49.2832 146.686 50.3186 146.157 51.2014C145.628 52.083 144.786 52.7064 143.788 52.9564C143.476 53.0327 143.162 53.0703 142.855 53.0703ZM142.854 45.8472C142.584 45.8472 142.31 45.8801 142.038 45.9481C141.164 46.1665 140.428 46.7112 139.965 47.4836C139.501 48.2549 139.366 49.1611 139.584 50.0345C140.035 51.8377 141.868 52.9376 143.671 52.488C144.544 52.2697 145.28 51.725 145.744 50.9525C146.208 50.1801 146.343 49.275 146.124 48.4016C145.741 46.872 144.364 45.8472 142.854 45.8472Z" fill="#BDD1F9"/>
<path d="M150.424 52.7052L148.041 43.1624C150.726 44.0452 152.736 45.4645 153.093 46.8908C153.498 48.5143 152.392 50.713 150.424 52.7052Z" fill="#F77D48"/>
<path d="M258.405 105.106C258.405 105.106 265.701 112.671 266.046 115.519C266.391 118.366 262.552 122.811 262.552 122.811L258.405 105.106Z" fill="#ED7D2B"/>
<path d="M255.109 183.508C255.109 183.508 254.852 187.521 254.075 187.577C253.971 187.584 250.136 187.576 250.136 187.576L245.241 187.537C245.241 187.537 245.275 186.358 246.707 186.111C248.138 185.864 250.536 184.864 251.406 182.975C252.323 180.987 255.109 183.508 255.109 183.508Z" fill="#2E5A99"/>
<path d="M266.012 183.532C266.012 183.532 265.755 187.544 264.978 187.601C264.875 187.608 261.039 187.599 261.039 187.599L256.144 187.561C256.144 187.561 256.178 186.381 257.611 186.136C259.042 185.889 261.44 184.889 262.31 183C263.227 181.012 266.012 183.532 266.012 183.532Z" fill="#18417C"/>
<path d="M249.781 140.365C249.781 140.365 251.042 148.556 255.787 163.102C260.532 177.648 261.169 183.944 261.169 183.944L266.293 183.811C266.293 183.811 266.371 167.926 264.186 160.611C262 153.297 263.768 134.258 263.768 134.258L249.781 140.365Z" fill="#163560"/>
<path d="M247.3 134.671C247.3 134.671 247.092 147.01 249.194 162.166C251.296 177.321 250.558 183.75 250.558 183.75L255.671 183.931C255.671 183.931 258.76 168.782 257.901 161.196C257.041 153.611 262.142 135.183 262.142 135.183L247.3 134.671Z" fill="#1C468A"/>
<path d="M257.261 105.818L254.533 107.597L250.596 106.855C250.652 106.537 250.915 105.221 251.154 104.029C251.168 103.958 251.183 103.888 251.196 103.82C251.402 102.804 251.578 101.933 251.578 101.933L255.259 100.319L256.632 99.7169C256.628 99.738 256.522 100.843 256.508 101.005C256.245 103.868 257.261 105.818 257.261 105.818Z" fill="#FFB27D"/>
<path d="M251.609 104.903C251.686 104.872 256.354 103.505 256.86 103.673C257.366 103.841 257.665 104.822 257.665 104.822L250.031 106.53C250.031 106.531 250.634 105.312 251.609 104.903Z" fill="#ED7D2B"/>
<path d="M264.104 136.231C263.305 139.837 250.144 140.236 246.759 136.955C246.374 136.58 246.359 134.844 246.509 132.503C246.804 127.93 247.732 121.05 247.776 117.535C247.797 115.837 248.034 114.101 248.348 112.525C249.016 109.167 250.031 106.531 250.031 106.531C250.031 106.531 256.462 104.468 257.665 104.823C263.456 106.538 264.903 132.626 264.104 136.231Z" fill="#F99746"/>
<path d="M246.51 132.503C246.805 127.93 247.733 121.05 247.777 117.535C247.798 115.837 248.035 114.101 248.35 112.525L252.218 111.852C252.216 111.852 255.963 127.301 246.51 132.503Z" fill="#ED7D2B"/>
<path d="M248.617 126.132C248.617 126.132 248.879 126.763 248.325 127.184C247.771 127.606 247.41 128.29 247.536 128.791C247.662 129.292 248.874 130.112 249.296 129.982C249.717 129.851 250.575 129.193 250.484 128.929C250.392 128.664 251.065 126.611 250.04 125.819C249.015 125.025 248.617 126.132 248.617 126.132Z" fill="#FFB27D"/>
<path d="M252.985 105.612C252.985 105.612 249.212 106.31 246.199 110.732C243.184 115.153 241.2 118.441 241.751 120.038C242.3 121.636 247.334 127.182 248.204 127.184C249.074 127.186 250.479 126.556 250.561 125.133C250.561 125.133 247.021 119.801 247.723 119.005C248.022 118.665 252.342 115.174 252.955 116.756C253.967 119.374 252.985 105.612 252.985 105.612Z" fill="#F99746"/>
<path d="M256.232 101.054C255.422 102.42 252.41 103.597 251.154 104.029C251.168 103.958 251.183 103.888 251.196 103.82C251.402 102.804 251.578 101.933 251.578 101.933L255.259 100.319C256.073 100.308 256.567 100.492 256.232 101.054Z" fill="#FCA56B"/>
<path d="M250.194 101.705C250.194 101.705 256.114 103.566 257.215 99.8613C258.317 96.1576 259.823 93.9025 256.09 92.5584C252.357 91.2142 251.198 92.4081 250.531 93.555C249.861 94.7019 248.682 101.126 250.194 101.705Z" fill="#FFB27D"/>
<path d="M250.764 93.1981C250.764 93.1981 251.133 97.5123 252.025 97.3268C252.917 97.1413 253.727 97.004 253.593 98.3046C253.459 99.6053 252.22 101.103 254.968 101.339C257.716 101.575 261.684 94.4941 260.931 93.15C258.761 89.2726 247.625 88.4661 250.764 93.1981Z" fill="#163560"/>
<path d="M222.061 185.088V186.64C222.061 186.764 222.016 186.879 221.939 186.974C221.858 187.074 221.742 187.153 221.605 187.197C221.563 187.212 221.52 187.222 221.475 187.229C221.434 187.234 221.392 187.238 221.349 187.238H191.917C191.561 187.238 191.264 187.016 191.212 186.73C191.209 186.711 191.206 186.691 191.206 186.671C191.206 186.66 191.205 186.651 191.205 186.64V185.088C191.205 185.078 191.206 185.069 191.206 185.058C191.207 185.038 191.209 185.018 191.212 184.999C191.264 184.713 191.561 184.491 191.917 184.491H221.349C221.393 184.491 221.434 184.493 221.475 184.5C221.52 184.506 221.563 184.518 221.605 184.532C221.742 184.577 221.858 184.655 221.939 184.755C222.015 184.85 222.061 184.965 222.061 185.088Z" fill="#FFB93E"/>
<path d="M207.606 187.238H191.838C191.546 187.238 191.3 187.049 191.227 186.795C191.22 186.774 191.214 186.752 191.209 186.73C191.207 186.711 191.203 186.691 191.203 186.671C191.203 186.66 191.202 186.651 191.202 186.64V185.088C191.202 185.078 191.203 185.069 191.203 185.058C191.204 185.038 191.207 185.018 191.209 184.999C191.214 184.977 191.22 184.955 191.227 184.934C191.3 184.68 191.546 184.491 191.838 184.491H205.671C205.891 185.3 206.405 186.417 207.606 187.238Z" fill="#FFA412"/>
<path d="M218.478 184.489H218.144V187.237H218.478V184.489Z" fill="#FFA412"/>
<path d="M217.345 184.489H217.011V187.237H217.345V184.489Z" fill="#FFA412"/>
<path d="M215.988 184.489H215.654V187.237H215.988V184.489Z" fill="#FFA412"/>
<path d="M213.907 184.489H213.572V187.237H213.907V184.489Z" fill="#FFA412"/>
<path d="M211.706 184.489H211.371V187.237H211.706V184.489Z" fill="#FFA412"/>
<path d="M208.332 184.489H207.997V187.237H208.332V184.489Z" fill="#FFA412"/>
<path d="M205.172 184.489H204.837V187.237H205.172V184.489Z" fill="#FFA412"/>
<path d="M202.351 184.489H202.016V187.237H202.351V184.489Z" fill="#FFA412"/>
<path d="M219.556 184.489H219.221V187.237H219.556V184.489Z" fill="#FFA412"/>
<path d="M220.268 184.489H219.934V187.237H220.268V184.489Z" fill="#FFA412"/>
<path d="M220.955 184.489H220.621V187.237H220.955V184.489Z" fill="#FFA412"/>
<path d="M221.473 184.499V187.227C221.432 187.233 221.389 187.237 221.347 187.237H221.138V184.489H221.347C221.391 184.489 221.432 184.492 221.473 184.499Z" fill="#FFA412"/>
<path d="M221.938 184.753V186.973C221.857 187.074 221.74 187.152 221.603 187.197V184.53C221.739 184.573 221.857 184.653 221.938 184.753Z" fill="#FFA412"/>
<path d="M218.912 182.339V183.89C218.912 184.014 218.868 184.129 218.791 184.225C218.771 184.249 218.748 184.274 218.724 184.295C218.65 184.361 218.56 184.415 218.457 184.448C218.416 184.462 218.371 184.471 218.326 184.478C218.287 184.484 218.243 184.489 218.201 184.489H188.767C188.413 184.489 188.116 184.266 188.063 183.979C188.061 183.96 188.057 183.94 188.057 183.922C188.056 183.911 188.056 183.902 188.056 183.89V182.339C188.056 182.329 188.056 182.318 188.057 182.308C188.058 182.288 188.061 182.269 188.063 182.25C188.116 181.964 188.413 181.741 188.767 181.741H218.201C218.22 181.741 218.238 181.742 218.257 181.743C218.264 181.743 218.271 181.744 218.277 181.745C218.278 181.744 218.279 181.744 218.281 181.745C218.289 181.745 218.298 181.746 218.308 181.748C218.314 181.749 218.319 181.75 218.326 181.75C218.371 181.757 218.416 181.766 218.457 181.78C218.481 181.789 218.506 181.798 218.528 181.809H218.53C218.545 181.816 218.561 181.824 218.575 181.831C218.584 181.836 218.593 181.841 218.601 181.846C218.609 181.851 218.618 181.856 218.625 181.86C218.656 181.879 218.684 181.9 218.711 181.924C218.721 181.931 218.728 181.939 218.736 181.947C218.742 181.952 218.746 181.957 218.75 181.961C218.753 181.964 218.756 181.967 218.757 181.969L218.763 181.975C218.773 181.985 218.782 181.994 218.79 182.006C218.866 182.102 218.912 182.216 218.912 182.339Z" fill="#FFB93E"/>
<path d="M204.459 184.49H188.691C188.399 184.49 188.153 184.3 188.081 184.046C188.074 184.025 188.068 184.003 188.063 183.98C188.061 183.962 188.057 183.942 188.057 183.923C188.056 183.912 188.056 183.903 188.056 183.891V182.341C188.056 182.33 188.056 182.319 188.057 182.309C188.058 182.289 188.061 182.27 188.063 182.251C188.066 182.229 188.074 182.207 188.081 182.186C188.153 181.932 188.399 181.742 188.691 181.742H202.523C202.529 181.765 202.535 181.786 202.543 181.81C202.773 182.612 203.292 183.693 204.459 184.49Z" fill="#FFA412"/>
<path d="M215.331 181.742H214.996V184.49H215.331V181.742Z" fill="#FFA412"/>
<path d="M214.199 181.742H213.865V184.49H214.199V181.742Z" fill="#FFA412"/>
<path d="M212.841 181.742H212.506V184.49H212.841V181.742Z" fill="#FFA412"/>
<path d="M210.759 181.742H210.425V184.49H210.759V181.742Z" fill="#FFA412"/>
<path d="M208.558 181.742H208.224V184.49H208.558V181.742Z" fill="#FFA412"/>
<path d="M205.185 181.742H204.85V184.49H205.185V181.742Z" fill="#FFA412"/>
<path d="M202.026 181.742H201.691V184.49H202.026V181.742Z" fill="#FFA412"/>
<path d="M199.205 181.742H198.87V184.49H199.205V181.742Z" fill="#FFA412"/>
<path d="M216.408 181.742H216.074V184.49H216.408V181.742Z" fill="#FFA412"/>
<path d="M217.121 181.742H216.786V184.49H217.121V181.742Z" fill="#FFA412"/>
<path d="M217.809 181.742H217.474V184.49H217.809V181.742Z" fill="#FFA412"/>
<path d="M218.325 181.751V184.479C218.284 184.485 218.242 184.489 218.2 184.489H217.991V181.741H218.2C218.243 181.742 218.285 181.745 218.325 181.751Z" fill="#FFA412"/>
<path d="M218.79 182.006V184.226C218.709 184.327 218.593 184.405 218.456 184.45V181.783C218.593 181.826 218.709 181.905 218.79 182.006Z" fill="#FFA412"/>
<path d="M220.432 179.659V181.211C220.432 181.334 220.388 181.449 220.31 181.544C220.229 181.644 220.113 181.724 219.977 181.768C219.936 181.782 219.891 181.791 219.847 181.799C219.807 181.805 219.764 181.809 219.722 181.809H190.289C190.171 181.809 190.059 181.784 189.96 181.741C189.765 181.655 189.622 181.495 189.584 181.306C189.582 181.293 189.581 181.28 189.579 181.267C189.577 181.259 189.577 181.25 189.577 181.24C189.576 181.23 189.576 181.22 189.576 181.21V179.658C189.576 179.647 189.576 179.638 189.577 179.627C189.579 179.609 189.58 179.588 189.583 179.57C189.636 179.282 189.933 179.06 190.288 179.06H219.721C219.763 179.06 219.806 179.063 219.845 179.07C219.89 179.076 219.935 179.086 219.976 179.1C220.113 179.145 220.229 179.225 220.309 179.325C220.388 179.421 220.432 179.536 220.432 179.659Z" fill="#FFB93E"/>
<path d="M205.981 181.809H190.213C190.108 181.809 190.008 181.784 189.921 181.741C189.746 181.655 189.618 181.495 189.587 181.306C189.584 181.293 189.583 181.28 189.581 181.267C189.58 181.259 189.58 181.25 189.58 181.24C189.578 181.23 189.578 181.22 189.578 181.21V179.658C189.578 179.647 189.578 179.638 189.58 179.627C189.581 179.609 189.582 179.588 189.585 179.57C189.589 179.548 189.595 179.526 189.602 179.505C189.673 179.249 189.92 179.06 190.213 179.06H204.046C204.261 179.847 204.754 180.927 205.885 181.739C205.916 181.764 205.949 181.787 205.981 181.809Z" fill="#FFA412"/>
<path d="M216.852 179.062H216.518V181.81H216.852V179.062Z" fill="#FFA412"/>
<path d="M215.719 179.062H215.385V181.81H215.719V179.062Z" fill="#FFA412"/>
<path d="M214.361 179.062H214.027V181.81H214.361V179.062Z" fill="#FFA412"/>
<path d="M212.28 179.062H211.945V181.81H212.28V179.062Z" fill="#FFA412"/>
<path d="M210.08 179.062H209.745V181.81H210.08V179.062Z" fill="#FFA412"/>
<path d="M206.705 179.062H206.37V181.81H206.705V179.062Z" fill="#FFA412"/>
<path d="M203.546 179.062H203.211V181.81H203.546V179.062Z" fill="#FFA412"/>
<path d="M200.725 179.062H200.39V181.81H200.725V179.062Z" fill="#FFA412"/>
<path d="M217.93 179.062H217.595V181.81H217.93V179.062Z" fill="#FFA412"/>
<path d="M218.641 179.062H218.306V181.81H218.641V179.062Z" fill="#FFA412"/>
<path d="M219.329 179.062H218.995V181.81H219.329V179.062Z" fill="#FFA412"/>
<path d="M219.847 179.071V181.799C219.806 181.805 219.765 181.809 219.721 181.809H219.512V179.06H219.721C219.763 179.062 219.806 179.065 219.847 179.071Z" fill="#FFA412"/>
<path d="M220.312 179.326V181.546C220.231 181.647 220.114 181.725 219.977 181.77V179.103C220.113 179.146 220.229 179.225 220.312 179.326Z" fill="#FFA412"/>
<path d="M221.138 176.912V178.463C221.138 178.587 221.093 178.701 221.016 178.796C221.007 178.809 220.995 178.821 220.984 178.833C220.928 178.893 220.859 178.943 220.781 178.981C220.75 178.996 220.717 179.009 220.683 179.021C220.64 179.035 220.597 179.044 220.552 179.051C220.532 179.053 220.512 179.057 220.491 179.058C220.47 179.06 220.448 179.06 220.427 179.06H190.994C190.639 179.06 190.342 178.837 190.289 178.551C190.286 178.531 190.283 178.512 190.283 178.493V176.879C190.302 176.588 190.569 176.351 190.91 176.317C190.937 176.315 190.966 176.312 190.994 176.312H220.427C220.448 176.312 220.47 176.314 220.491 176.315C220.512 176.316 220.532 176.318 220.552 176.322C220.597 176.328 220.64 176.338 220.683 176.352C220.819 176.397 220.935 176.476 221.016 176.575C221.093 176.673 221.138 176.788 221.138 176.912Z" fill="#FFB93E"/>
<path d="M206.686 179.062H190.918C190.626 179.062 190.379 178.872 190.306 178.618C190.299 178.597 190.294 178.575 190.289 178.552C190.286 178.532 190.283 178.514 190.283 178.495V176.881C190.299 176.591 190.539 176.353 190.843 176.318C190.868 176.316 190.892 176.314 190.918 176.314H204.75C204.75 176.316 204.751 176.316 204.751 176.318C204.972 177.126 205.486 178.243 206.686 179.062Z" fill="#FFA412"/>
<path d="M217.557 176.314H217.222V179.062H217.557V176.314Z" fill="#FFA412"/>
<path d="M216.425 176.314H216.09V179.062H216.425V176.314Z" fill="#FFA412"/>
<path d="M215.067 176.314H214.732V179.062H215.067V176.314Z" fill="#FFA412"/>
<path d="M212.985 176.314H212.651V179.062H212.985V176.314Z" fill="#FFA412"/>
<path d="M210.784 176.314H210.45V179.062H210.784V176.314Z" fill="#FFA412"/>
<path d="M207.41 176.314H207.076V179.062H207.41V176.314Z" fill="#FFA412"/>
<path d="M204.252 176.314H203.917V179.062H204.252V176.314Z" fill="#FFA412"/>
<path d="M201.43 176.314H201.096V179.062H201.43V176.314Z" fill="#FFA412"/>
<path d="M218.634 176.314H218.3V179.062H218.634V176.314Z" fill="#FFA412"/>
<path d="M219.347 176.314H219.012V179.062H219.347V176.314Z" fill="#FFA412"/>
<path d="M220.035 176.314H219.7V179.062H220.035V176.314Z" fill="#FFA412"/>
<path d="M220.551 176.323V179.051C220.51 179.057 220.469 179.06 220.425 179.06H220.217V176.312H220.425C220.469 176.314 220.511 176.317 220.551 176.323Z" fill="#FFA412"/>
<path d="M221.016 176.578V178.798C220.935 178.898 220.819 178.977 220.681 179.022V176.355C220.819 176.398 220.935 176.478 221.016 176.578Z" fill="#FFA412"/>
<path d="M218.973 174.169V175.72C218.973 175.844 218.929 175.958 218.852 176.053C218.771 176.154 218.655 176.234 218.518 176.277C218.477 176.291 218.432 176.301 218.387 176.308C218.373 176.31 218.36 176.312 218.346 176.314H218.34C218.333 176.315 218.325 176.316 218.318 176.316C218.312 176.317 218.306 176.317 218.299 176.318C218.286 176.318 218.275 176.32 218.262 176.32H188.83C188.45 176.32 188.137 176.067 188.118 175.753C188.117 175.742 188.117 175.733 188.117 175.721V174.17C188.117 174.16 188.117 174.149 188.118 174.138C188.118 174.13 188.119 174.122 188.119 174.114C188.147 173.861 188.367 173.651 188.653 173.59C188.659 173.589 188.668 173.587 188.675 173.585C188.724 173.576 188.776 173.57 188.83 173.57H218.262C218.284 173.57 218.304 173.571 218.325 173.573C218.335 173.574 218.344 173.574 218.352 173.575C218.353 173.575 218.353 173.575 218.355 173.575H218.356C218.366 173.576 218.378 173.577 218.389 173.58C218.433 173.585 218.477 173.596 218.519 173.61C218.656 173.655 218.773 173.733 218.854 173.834C218.93 173.931 218.973 174.044 218.973 174.169Z" fill="#FFB93E"/>
<path d="M204.521 176.318H188.753C188.414 176.318 188.136 176.066 188.118 175.751C188.117 175.741 188.117 175.731 188.117 175.72V174.169C188.117 174.158 188.117 174.148 188.118 174.137C188.118 174.129 188.119 174.121 188.119 174.112C188.145 173.853 188.348 173.642 188.614 173.585C188.622 173.583 188.631 173.581 188.641 173.579C188.677 173.574 188.716 173.569 188.753 173.569H202.584C202.585 173.576 202.588 173.582 202.59 173.589C202.813 174.394 203.329 175.499 204.514 176.312C204.517 176.316 204.519 176.317 204.521 176.318Z" fill="#FFA412"/>
<path d="M215.393 173.57H215.058V176.318H215.393V173.57Z" fill="#FFA412"/>
<path d="M214.26 173.57H213.926V176.318H214.26V173.57Z" fill="#FFA412"/>
<path d="M212.903 173.57H212.568V176.318H212.903V173.57Z" fill="#FFA412"/>
<path d="M210.822 173.57H210.487V176.318H210.822V173.57Z" fill="#FFA412"/>
<path d="M208.621 173.57H208.286V176.318H208.621V173.57Z" fill="#FFA412"/>
<path d="M205.247 173.57H204.912V176.318H205.247V173.57Z" fill="#FFA412"/>
<path d="M202.086 173.57H201.752V176.318H202.086V173.57Z" fill="#FFA412"/>
<path d="M199.266 173.57H198.931V176.318H199.266V173.57Z" fill="#FFA412"/>
<path d="M216.471 173.57H216.136V176.318H216.471V173.57Z" fill="#FFA412"/>
<path d="M217.183 173.57H216.849V176.318H217.183V173.57Z" fill="#FFA412"/>
<path d="M217.87 173.57H217.535V176.318H217.87V173.57Z" fill="#FFA412"/>
<path d="M218.388 173.579V176.308C218.346 176.313 218.305 176.317 218.262 176.317H218.053V173.569H218.262C218.305 173.57 218.346 173.574 218.388 173.579Z" fill="#FFA412"/>
<path d="M218.852 173.834V176.054C218.771 176.155 218.655 176.234 218.518 176.278V173.611C218.654 173.655 218.771 173.734 218.852 173.834Z" fill="#FFA412"/>
<path d="M218.912 171.441V172.991C218.912 173.116 218.868 173.23 218.791 173.325C218.771 173.349 218.748 173.374 218.724 173.396C218.651 173.462 218.56 173.516 218.457 173.549C218.424 173.56 218.39 173.569 218.356 173.575H218.355C218.354 173.575 218.354 173.575 218.352 173.575C218.343 173.576 218.335 173.578 218.325 173.579C218.285 173.585 218.242 173.59 218.2 173.59H188.766C188.736 173.59 188.705 173.588 188.675 173.584C188.663 173.583 188.651 173.582 188.64 173.579C188.34 173.534 188.103 173.328 188.061 173.074C188.058 173.056 188.056 173.039 188.055 173.022C188.054 173.011 188.054 173.001 188.054 172.99V171.439C188.054 171.429 188.054 171.418 188.055 171.408C188.056 171.389 188.058 171.369 188.061 171.35C188.114 171.064 188.411 170.841 188.765 170.841H218.199C218.217 170.841 218.236 170.842 218.255 170.843C218.257 170.843 218.261 170.844 218.262 170.844C218.268 170.845 218.273 170.845 218.278 170.845C218.287 170.847 218.296 170.848 218.305 170.849C218.311 170.849 218.317 170.85 218.324 170.851C218.369 170.857 218.413 170.868 218.454 170.882C218.479 170.89 218.504 170.899 218.526 170.909H218.527C218.619 170.95 218.699 171.006 218.762 171.074C218.771 171.085 218.781 171.094 218.789 171.105C218.867 171.201 218.912 171.316 218.912 171.441Z" fill="#FFB93E"/>
<path d="M204.459 173.59H188.691C188.68 173.59 188.667 173.589 188.655 173.589C188.641 173.588 188.628 173.587 188.615 173.585C188.33 173.551 188.102 173.34 188.063 173.075C188.061 173.057 188.059 173.041 188.057 173.023C188.056 173.013 188.056 173.002 188.056 172.991V171.441C188.056 171.43 188.056 171.42 188.057 171.409C188.059 171.39 188.061 171.37 188.063 171.351C188.067 171.329 188.074 171.307 188.081 171.286C188.154 171.032 188.399 170.842 188.691 170.842H202.523C202.529 170.865 202.535 170.887 202.543 170.91C202.772 171.706 203.284 172.774 204.432 173.57C204.44 173.577 204.451 173.583 204.459 173.59Z" fill="#FFA412"/>
<path d="M215.331 170.842H214.996V173.59H215.331V170.842Z" fill="#FFA412"/>
<path d="M214.199 170.842H213.865V173.59H214.199V170.842Z" fill="#FFA412"/>
<path d="M212.841 170.842H212.506V173.59H212.841V170.842Z" fill="#FFA412"/>
<path d="M210.759 170.842H210.425V173.59H210.759V170.842Z" fill="#FFA412"/>
<path d="M208.558 170.842H208.224V173.59H208.558V170.842Z" fill="#FFA412"/>
<path d="M205.185 170.842H204.85V173.59H205.185V170.842Z" fill="#FFA412"/>
<path d="M202.026 170.842H201.691V173.59H202.026V170.842Z" fill="#FFA412"/>
<path d="M199.205 170.842H198.87V173.59H199.205V170.842Z" fill="#FFA412"/>
<path d="M216.408 170.842H216.074V173.59H216.408V170.842Z" fill="#FFA412"/>
<path d="M217.121 170.842H216.786V173.59H217.121V170.842Z" fill="#FFA412"/>
<path d="M217.809 170.842H217.474V173.59H217.809V170.842Z" fill="#FFA412"/>
<path d="M218.325 170.852V173.581C218.284 173.587 218.242 173.59 218.2 173.59H217.991V170.842H218.2C218.243 170.842 218.285 170.845 218.325 170.852Z" fill="#FFA412"/>
<path d="M218.79 171.106V173.326C218.709 173.427 218.593 173.506 218.456 173.55V170.883C218.593 170.926 218.709 171.006 218.79 171.106Z" fill="#FFA412"/>
<path d="M220.432 168.761V170.311C220.432 170.436 220.388 170.551 220.31 170.646C220.229 170.746 220.113 170.825 219.977 170.869C219.936 170.883 219.891 170.892 219.847 170.899C219.807 170.905 219.764 170.909 219.722 170.909H190.289C190.171 170.909 190.059 170.884 189.96 170.841C189.765 170.755 189.622 170.595 189.584 170.406C189.582 170.393 189.581 170.381 189.579 170.368C189.577 170.358 189.577 170.35 189.577 170.341C189.576 170.33 189.576 170.321 189.576 170.309V168.758C189.576 168.748 189.576 168.737 189.577 168.727C189.579 168.707 189.58 168.688 189.583 168.669C189.636 168.383 189.933 168.16 190.288 168.16H219.721C219.763 168.16 219.806 168.163 219.845 168.17C219.89 168.176 219.935 168.187 219.976 168.201C220.113 168.245 220.229 168.324 220.309 168.425C220.388 168.522 220.432 168.636 220.432 168.761Z" fill="#FFB93E"/>
<path d="M205.981 170.911H190.213C190.108 170.911 190.008 170.886 189.921 170.843C189.746 170.757 189.618 170.598 189.587 170.409C189.584 170.396 189.583 170.383 189.581 170.37C189.58 170.361 189.58 170.352 189.58 170.343C189.578 170.332 189.578 170.323 189.578 170.311V168.76C189.578 168.75 189.578 168.739 189.58 168.729C189.581 168.709 189.582 168.69 189.585 168.671C189.589 168.649 189.595 168.628 189.602 168.608C189.673 168.353 189.92 168.162 190.213 168.162H204.046C204.261 168.949 204.754 170.029 205.885 170.842C205.916 170.866 205.949 170.889 205.981 170.911Z" fill="#FFA412"/>
<path d="M216.852 168.163H216.518V170.911H216.852V168.163Z" fill="#FFA412"/>
<path d="M215.719 168.163H215.385V170.911H215.719V168.163Z" fill="#FFA412"/>
<path d="M214.361 168.163H214.027V170.911H214.361V168.163Z" fill="#FFA412"/>
<path d="M212.28 168.163H211.945V170.911H212.28V168.163Z" fill="#FFA412"/>
<path d="M210.08 168.163H209.745V170.911H210.08V168.163Z" fill="#FFA412"/>
<path d="M206.705 168.163H206.37V170.911H206.705V168.163Z" fill="#FFA412"/>
<path d="M203.546 168.163H203.211V170.911H203.546V168.163Z" fill="#FFA412"/>
<path d="M200.725 168.163H200.39V170.911H200.725V168.163Z" fill="#FFA412"/>
<path d="M217.93 168.163H217.595V170.911H217.93V168.163Z" fill="#FFA412"/>
<path d="M218.641 168.163H218.306V170.911H218.641V168.163Z" fill="#FFA412"/>
<path d="M219.329 168.163H218.995V170.911H219.329V168.163Z" fill="#FFA412"/>
<path d="M219.847 168.172V170.901C219.806 170.906 219.765 170.91 219.721 170.91H219.512V168.162H219.721C219.763 168.162 219.806 168.165 219.847 168.172Z" fill="#FFA412"/>
<path d="M220.312 168.426V170.646C220.231 170.747 220.114 170.825 219.977 170.87V168.203C220.113 168.246 220.229 168.326 220.312 168.426Z" fill="#FFA412"/>
<path d="M222.838 166.013V167.564C222.838 167.688 222.793 167.802 222.717 167.898L222.716 167.899C222.705 167.912 222.695 167.924 222.684 167.935C222.64 167.984 222.587 168.025 222.527 168.059C222.498 168.075 222.466 168.09 222.433 168.103C222.432 168.103 222.432 168.104 222.432 168.104C222.417 168.11 222.4 168.117 222.383 168.123C222.341 168.137 222.297 168.147 222.252 168.154C222.212 168.16 222.169 168.163 222.127 168.163H192.693C192.339 168.163 192.042 167.941 191.989 167.655C191.985 167.635 191.983 167.616 191.983 167.596C191.982 167.586 191.982 167.576 191.982 167.566V166.014C191.982 166.003 191.982 165.994 191.983 165.983C192 165.692 192.269 165.455 192.61 165.421C192.638 165.417 192.665 165.416 192.693 165.416H222.127C222.169 165.416 222.211 165.42 222.252 165.426C222.297 165.433 222.341 165.443 222.383 165.457C222.502 165.496 222.604 165.561 222.684 165.644C222.695 165.656 222.706 165.667 222.716 165.68L222.717 165.682C222.793 165.775 222.838 165.889 222.838 166.013Z" fill="#FFB93E"/>
<path d="M208.387 168.163H192.619C192.325 168.163 192.079 167.973 192.007 167.718C192 167.697 191.994 167.676 191.991 167.655C191.987 167.635 191.985 167.616 191.985 167.596C191.984 167.585 191.984 167.576 191.984 167.566V166.014C191.984 166.003 191.984 165.994 191.985 165.983C192 165.692 192.241 165.455 192.544 165.421C192.568 165.417 192.593 165.416 192.619 165.416H206.451C206.451 165.417 206.452 165.418 206.452 165.421C206.673 166.228 207.187 167.345 208.387 168.163Z" fill="#FFA412"/>
<path d="M219.257 165.415H218.923V168.163H219.257V165.415Z" fill="#FFA412"/>
<path d="M218.124 165.415H217.79V168.163H218.124V165.415Z" fill="#FFA412"/>
<path d="M216.766 165.415H216.432V168.163H216.766V165.415Z" fill="#FFA412"/>
<path d="M214.685 165.415H214.35V168.163H214.685V165.415Z" fill="#FFA412"/>
<path d="M212.485 165.415H212.15V168.163H212.485V165.415Z" fill="#FFA412"/>
<path d="M209.11 165.415H208.775V168.163H209.11V165.415Z" fill="#FFA412"/>
<path d="M205.951 165.415H205.616V168.163H205.951V165.415Z" fill="#FFA412"/>
<path d="M203.13 165.416H202.796V168.164H203.13V165.416Z" fill="#FFA412"/>
<path d="M220.335 165.415H220V168.163H220.335V165.415Z" fill="#FFA412"/>
<path d="M221.046 165.415H220.712V168.163H221.046V165.415Z" fill="#FFA412"/>
<path d="M221.735 165.415H221.4V168.163H221.735V165.415Z" fill="#FFA412"/>
<path d="M222.252 165.424V168.152C222.211 168.158 222.169 168.162 222.126 168.162H221.917V165.414H222.126C222.169 165.415 222.211 165.418 222.252 165.424Z" fill="#FFA412"/>
<path d="M222.716 165.679V167.899C222.635 168 222.518 168.079 222.381 168.123V165.456C222.518 165.499 222.635 165.578 222.716 165.679Z" fill="#FFA412"/>
<path d="M218.973 163.27V164.821C218.973 164.945 218.929 165.059 218.852 165.154C218.771 165.255 218.655 165.335 218.518 165.379C218.477 165.393 218.432 165.402 218.387 165.409C218.373 165.411 218.36 165.413 218.346 165.415H218.341C218.331 165.417 218.322 165.417 218.312 165.417C218.306 165.417 218.302 165.418 218.296 165.418C218.284 165.418 218.274 165.42 218.261 165.42H188.828C188.572 165.42 188.347 165.306 188.223 165.134C188.162 165.051 188.123 164.955 188.117 164.853C188.116 164.842 188.116 164.831 188.116 164.821V163.27C188.116 163.26 188.116 163.249 188.117 163.239C188.132 162.984 188.341 162.769 188.622 162.697C188.687 162.68 188.757 162.67 188.828 162.67H218.261C218.274 162.67 218.285 162.672 218.298 162.672C218.305 162.672 218.311 162.673 218.317 162.674C218.341 162.675 218.364 162.677 218.386 162.681C218.431 162.687 218.474 162.697 218.517 162.711C218.538 162.717 218.558 162.726 218.578 162.735H218.579C218.657 162.767 218.727 162.811 218.784 162.864C218.785 162.865 218.787 162.866 218.787 162.868C218.789 162.87 218.792 162.872 218.795 162.875C218.815 162.893 218.834 162.913 218.851 162.934C218.93 163.031 218.973 163.146 218.973 163.27Z" fill="#FFB93E"/>
<path d="M204.521 165.42H188.753C188.532 165.42 188.336 165.312 188.222 165.149C188.161 165.062 188.123 164.961 188.118 164.853C188.117 164.842 188.117 164.832 188.117 164.821V163.27C188.117 163.26 188.117 163.249 188.118 163.239C188.134 162.965 188.346 162.739 188.624 162.685C188.665 162.676 188.709 162.672 188.753 162.672H202.584C202.59 162.693 202.596 162.714 202.603 162.735C202.832 163.537 203.35 164.617 204.514 165.415C204.517 165.416 204.519 165.417 204.521 165.42Z" fill="#FFA412"/>
<path d="M215.393 162.671H215.058V165.42H215.393V162.671Z" fill="#FFA412"/>
<path d="M214.26 162.671H213.926V165.42H214.26V162.671Z" fill="#FFA412"/>
<path d="M212.903 162.671H212.568V165.42H212.903V162.671Z" fill="#FFA412"/>
<path d="M210.822 162.671H210.487V165.42H210.822V162.671Z" fill="#FFA412"/>
<path d="M208.621 162.671H208.286V165.42H208.621V162.671Z" fill="#FFA412"/>
<path d="M205.247 162.671H204.912V165.42H205.247V162.671Z" fill="#FFA412"/>
<path d="M202.086 162.671H201.752V165.42H202.086V162.671Z" fill="#FFA412"/>
<path d="M199.266 162.673H198.931V165.421H199.266V162.673Z" fill="#FFA412"/>
<path d="M216.471 162.671H216.136V165.42H216.471V162.671Z" fill="#FFA412"/>
<path d="M217.183 162.671H216.849V165.42H217.183V162.671Z" fill="#FFA412"/>
<path d="M217.87 162.671H217.535V165.42H217.87V162.671Z" fill="#FFA412"/>
<path d="M218.388 162.681V165.409C218.346 165.415 218.305 165.418 218.262 165.418H218.053V162.67H218.262C218.305 162.672 218.346 162.675 218.388 162.681Z" fill="#FFA412"/>
<path d="M218.852 162.936V165.155C218.771 165.256 218.655 165.335 218.518 165.38V162.713C218.654 162.756 218.771 162.835 218.852 162.936Z" fill="#FFA412"/>
<path d="M221.138 160.587V162.138C221.138 162.262 221.094 162.377 221.016 162.472C220.935 162.573 220.819 162.651 220.682 162.696C220.639 162.71 220.596 162.721 220.551 162.727C220.51 162.732 220.469 162.736 220.426 162.736H190.993C190.879 162.736 190.77 162.714 190.675 162.673C190.46 162.582 190.307 162.403 190.284 162.194C190.283 162.185 190.283 162.177 190.282 162.169C190.282 162.158 190.281 162.149 190.281 162.138V160.587C190.281 160.576 190.281 160.567 190.282 160.556C190.3 160.265 190.568 160.027 190.909 159.993C190.936 159.989 190.964 159.988 190.993 159.988H220.426C220.469 159.988 220.51 159.991 220.551 159.997C220.596 160.004 220.639 160.014 220.682 160.028C220.818 160.072 220.935 160.151 221.016 160.252C221.094 160.348 221.138 160.462 221.138 160.587Z" fill="#FFB93E"/>
<path d="M206.685 162.736H190.917C190.815 162.736 190.719 162.714 190.633 162.673C190.442 162.582 190.304 162.403 190.284 162.194C190.283 162.185 190.283 162.177 190.282 162.169C190.282 162.158 190.281 162.149 190.281 162.138V160.587C190.281 160.576 190.281 160.567 190.282 160.556C190.297 160.265 190.538 160.027 190.842 159.993C190.867 159.989 190.891 159.988 190.917 159.988H204.748C204.748 159.989 204.749 159.991 204.749 159.993C204.965 160.78 205.459 161.86 206.593 162.673C206.624 162.694 206.654 162.715 206.685 162.736Z" fill="#FFA412"/>
<path d="M217.557 159.987H217.222V162.735H217.557V159.987Z" fill="#FFA412"/>
<path d="M216.425 159.987H216.09V162.735H216.425V159.987Z" fill="#FFA412"/>
<path d="M215.066 159.987H214.732V162.735H215.066V159.987Z" fill="#FFA412"/>
<path d="M212.985 159.987H212.651V162.735H212.985V159.987Z" fill="#FFA412"/>
<path d="M210.784 159.987H210.45V162.735H210.784V159.987Z" fill="#FFA412"/>
<path d="M207.41 159.987H207.076V162.735H207.41V159.987Z" fill="#FFA412"/>
<path d="M204.251 159.987H203.917V162.735H204.251V159.987Z" fill="#FFA412"/>
<path d="M201.43 159.988H201.096V162.736H201.43V159.988Z" fill="#FFA412"/>
<path d="M218.634 159.987H218.3V162.735H218.634V159.987Z" fill="#FFA412"/>
<path d="M219.347 159.987H219.012V162.735H219.347V159.987Z" fill="#FFA412"/>
<path d="M220.034 159.987H219.7V162.735H220.034V159.987Z" fill="#FFA412"/>
<path d="M220.551 159.996V162.724C220.51 162.73 220.469 162.734 220.425 162.734H220.217V159.986H220.425C220.469 159.987 220.511 159.99 220.551 159.996Z" fill="#FFA412"/>
<path d="M221.016 160.251V162.471C220.935 162.572 220.819 162.65 220.681 162.695V160.028C220.819 160.071 220.935 160.151 221.016 160.251Z" fill="#FFA412"/>
<path d="M222.06 157.842V159.394C222.06 159.517 222.015 159.632 221.937 159.727C221.856 159.828 221.74 159.907 221.603 159.952C221.561 159.966 221.517 159.976 221.473 159.982C221.459 159.985 221.446 159.986 221.432 159.987C221.425 159.987 221.416 159.988 221.408 159.989C221.401 159.99 221.393 159.99 221.385 159.99C221.372 159.992 221.36 159.992 221.347 159.992H191.915C191.536 159.992 191.223 159.739 191.203 159.425C191.203 159.414 191.202 159.405 191.202 159.394V157.842C191.202 157.832 191.202 157.822 191.203 157.812C191.222 157.497 191.536 157.245 191.915 157.245H221.347C221.39 157.245 221.432 157.248 221.473 157.254C221.517 157.261 221.561 157.27 221.603 157.285C221.739 157.329 221.856 157.408 221.937 157.509C222.015 157.604 222.06 157.718 222.06 157.842Z" fill="#FFB93E"/>
<path d="M207.606 159.992H191.838C191.5 159.992 191.221 159.739 191.203 159.425C191.203 159.414 191.202 159.405 191.202 159.394V157.842C191.202 157.832 191.202 157.822 191.203 157.812C191.221 157.497 191.5 157.245 191.838 157.245H205.669C205.89 158.052 206.403 159.169 207.599 159.988C207.602 159.988 207.604 159.99 207.606 159.992Z" fill="#FFA412"/>
<path d="M218.478 157.243H218.144V159.991H218.478V157.243Z" fill="#FFA412"/>
<path d="M217.345 157.243H217.011V159.991H217.345V157.243Z" fill="#FFA412"/>
<path d="M215.988 157.243H215.654V159.991H215.988V157.243Z" fill="#FFA412"/>
<path d="M213.907 157.243H213.572V159.991H213.907V157.243Z" fill="#FFA412"/>
<path d="M211.706 157.243H211.371V159.991H211.706V157.243Z" fill="#FFA412"/>
<path d="M208.332 157.243H207.997V159.991H208.332V157.243Z" fill="#FFA412"/>
<path d="M205.172 157.243H204.837V159.991H205.172V157.243Z" fill="#FFA412"/>
<path d="M202.351 157.244H202.016V159.992H202.351V157.244Z" fill="#FFA412"/>
<path d="M219.556 157.243H219.221V159.991H219.556V157.243Z" fill="#FFA412"/>
<path d="M220.268 157.243H219.934V159.991H220.268V157.243Z" fill="#FFA412"/>
<path d="M220.955 157.243H220.621V159.991H220.955V157.243Z" fill="#FFA412"/>
<path d="M221.473 157.253V159.981C221.432 159.987 221.391 159.99 221.347 159.99H221.138V157.242H221.347C221.391 157.243 221.432 157.247 221.473 157.253Z" fill="#FFA412"/>
<path d="M221.938 157.507V159.727C221.857 159.828 221.74 159.907 221.603 159.952V157.284C221.739 157.328 221.857 157.408 221.938 157.507Z" fill="#FFA412"/>
<path d="M212.729 141.586C212.729 141.586 211.183 143.762 209.767 143.793C208.35 143.823 206.193 142.784 206.193 142.784C206.193 142.784 204.892 139.885 205.774 138.749C205.774 138.749 206.659 138.361 207.584 139.046C207.743 139.165 207.905 139.314 208.063 139.505C208.287 139.775 208.54 139.929 208.807 140.01C209.819 140.318 211.019 139.595 211.469 140.293C211.73 140.699 212.016 141.005 212.251 141.218C212.529 141.465 212.729 141.586 212.729 141.586Z" fill="#FFEDDC"/>
<path d="M192.576 157.284C192.576 157.284 198.04 144.045 207.875 143.793C207.875 143.793 216.954 144.801 217.458 157.284H192.576Z" fill="#FFEDDC"/>
<path d="M205.181 144.196C205.181 144.196 209.123 145.073 210.339 144.558C210.339 144.558 210.524 142.91 208.863 143.141C207.726 143.3 206.987 142.754 206.551 142.532C205.935 142.217 205.017 143.506 205.181 144.196Z" fill="#DB6A1D"/>
<path d="M208.611 141.711C208.359 141.9 207.585 139.045 207.585 139.045C207.744 139.164 207.906 139.313 208.064 139.504C208.289 139.774 208.541 139.928 208.809 140.009C208.811 140.092 208.857 141.527 208.611 141.711Z" fill="#E5C1A1"/>
<path d="M212.25 141.217C212.195 141.25 210.372 142.342 210.124 142.342C209.872 142.342 211.469 140.291 211.469 140.291C211.732 140.698 212.016 141.002 212.25 141.217Z" fill="#E5C1A1"/>
<path d="M197.913 153.585C197.812 153.499 201.78 147.743 202.873 147.701C203.966 147.658 206.421 148.961 208.199 149.129C209.976 149.297 211.7 148.793 212.037 149.844C212.372 150.895 213.297 154.62 212.73 155.216C212.162 155.812 200.096 155.45 197.913 153.585Z" fill="#F9DDBF"/>
<path opacity="0.5" d="M201.651 173.57C201.65 173.577 201.65 173.584 201.649 173.59C201.597 174.513 201.449 175.424 201.207 176.314C201.207 176.315 201.206 176.316 201.206 176.318C201.171 176.447 201.135 176.575 201.095 176.703C200.848 177.514 200.524 178.304 200.125 179.062C199.624 180.014 199.006 180.914 198.276 181.741C198.256 181.764 198.236 181.786 198.216 181.809C197.304 182.83 196.222 183.737 194.983 184.489C194.723 184.647 194.455 184.8 194.179 184.944C193.994 185.042 193.807 185.133 193.619 185.222C193.44 185.326 193.251 185.415 193.072 185.525C192.553 185.842 191.907 186.095 191.202 186.295V185.087C191.202 185.077 191.203 185.067 191.203 185.057C191.205 185.037 191.207 185.017 191.209 184.998C191.214 184.976 191.22 184.954 191.227 184.932C191.3 184.679 191.546 184.49 191.838 184.49H188.691C188.399 184.49 188.154 184.3 188.081 184.046C188.074 184.025 188.068 184.003 188.063 183.98C188.061 183.962 188.057 183.942 188.057 183.923C188.056 183.912 188.056 183.903 188.056 183.891V182.34C188.056 182.33 188.056 182.319 188.057 182.309C188.058 182.289 188.061 182.27 188.063 182.251C188.067 182.229 188.074 182.207 188.081 182.185C188.154 181.932 188.399 181.742 188.691 181.742H189.919C189.744 181.656 189.616 181.496 189.585 181.307C189.582 181.294 189.581 181.282 189.579 181.269C189.578 181.26 189.578 181.251 189.578 181.242C189.576 181.231 189.576 181.222 189.576 181.211V179.659C189.576 179.649 189.576 179.639 189.578 179.629C189.579 179.61 189.58 179.589 189.583 179.571C189.587 179.549 189.593 179.528 189.6 179.507C189.671 179.251 189.918 179.062 190.211 179.062H190.917C190.625 179.062 190.378 178.872 190.305 178.618C190.298 178.597 190.292 178.574 190.288 178.552C190.285 178.532 190.282 178.513 190.282 178.495V176.881C190.298 176.591 190.538 176.352 190.842 176.318H188.753C188.414 176.318 188.136 176.066 188.118 175.751C188.117 175.741 188.117 175.731 188.117 175.72V174.169C188.117 174.158 188.117 174.148 188.118 174.137C188.118 174.129 188.12 174.121 188.12 174.112C188.145 173.853 188.348 173.642 188.614 173.585C188.328 173.551 188.101 173.34 188.062 173.075C188.06 173.057 188.057 173.041 188.056 173.023C188.055 173.012 188.055 173.002 188.055 172.991V171.441C188.055 171.43 188.055 171.419 188.056 171.409C188.057 171.39 188.06 171.37 188.062 171.351C188.066 171.329 188.073 171.307 188.08 171.286C188.152 171.032 188.398 170.842 188.69 170.842H189.918C189.743 170.756 189.615 170.597 189.583 170.408C189.581 170.395 189.58 170.382 189.578 170.369C189.576 170.359 189.576 170.351 189.576 170.342C189.575 170.331 189.575 170.322 189.575 170.31V168.759C189.575 168.749 189.575 168.738 189.576 168.728C189.578 168.708 189.579 168.689 189.582 168.67C189.586 168.648 189.592 168.627 189.599 168.607C189.67 168.352 189.917 168.161 190.21 168.161H192.616C192.322 168.161 192.076 167.971 192.004 167.716C191.997 167.695 191.991 167.674 191.988 167.652C191.984 167.632 191.982 167.614 191.982 167.594C191.981 167.583 191.981 167.574 191.981 167.563V166.011C191.981 166.001 191.981 165.991 191.982 165.981C191.997 165.69 192.238 165.452 192.54 165.418H188.752C188.53 165.418 188.334 165.31 188.22 165.147L188.223 165.133L188.622 162.697L188.623 162.683L189.191 159.207C189.851 159.295 190.503 159.427 191.141 159.599C191.179 159.61 191.215 159.619 191.254 159.63C191.256 159.631 191.259 159.632 191.261 159.632C191.633 159.736 192.002 159.854 192.363 159.987C192.367 159.988 192.369 159.989 192.374 159.99C194.042 160.598 195.595 161.5 196.944 162.67C196.967 162.69 196.992 162.711 197.014 162.734C197.715 163.349 198.358 164.038 198.93 164.797C199.045 164.949 199.157 165.101 199.263 165.258C199.3 165.309 199.335 165.361 199.369 165.413C199.371 165.414 199.371 165.415 199.371 165.417C199.545 165.674 199.71 165.936 199.866 166.207C200.234 166.845 200.544 167.497 200.797 168.161C201.133 169.041 201.371 169.938 201.51 170.841C201.515 170.864 201.517 170.885 201.521 170.909C201.658 171.797 201.698 172.688 201.651 173.57Z" fill="#E2810E"/>
<path d="M171.248 179.141C167.388 172.139 169.936 163.334 176.938 159.474C183.94 155.614 192.746 158.161 196.606 165.164C200.466 172.166 197.918 180.972 190.917 184.831C183.913 188.69 175.108 186.143 171.248 179.141Z" fill="#E2810E"/>
<path d="M190.354 185.125C190.175 185.234 189.994 185.339 189.81 185.441C189.748 185.475 189.686 185.509 189.622 185.542C189.479 185.618 189.337 185.691 189.193 185.762C182.298 189.148 173.889 186.55 170.141 179.751C166.567 173.266 168.488 165.234 174.353 161.016C174.822 160.679 175.313 160.367 175.83 160.083C176.015 159.981 176.203 159.882 176.391 159.79C176.573 159.698 176.757 159.612 176.943 159.53C177.51 159.278 178.085 159.064 178.667 158.89C179.531 158.63 180.409 158.455 181.289 158.362C184.016 158.073 186.759 158.571 189.193 159.761C191.774 161.023 194.006 163.065 195.499 165.773C199.258 172.591 196.942 181.117 190.354 185.125Z" fill="#FFB93E"/>
<path d="M182.921 185.889C181.711 185.889 180.494 185.718 179.299 185.373C175.971 184.41 173.216 182.209 171.544 179.174C169.871 176.14 169.48 172.636 170.443 169.308C171.405 165.98 173.606 163.224 176.641 161.553C182.905 158.099 190.81 160.387 194.264 166.65C197.716 172.914 195.429 180.819 189.165 184.273C187.22 185.343 185.083 185.889 182.921 185.889ZM182.882 160.292C180.822 160.292 178.736 160.796 176.809 161.858C173.856 163.485 171.714 166.165 170.777 169.404C169.841 172.643 170.221 176.052 171.848 179.004C173.475 181.957 176.155 184.099 179.394 185.036C182.633 185.972 186.042 185.592 188.994 183.965C195.089 180.605 197.315 172.913 193.954 166.818C191.659 162.65 187.335 160.292 182.882 160.292Z" fill="#FFA412"/>
<path d="M189.283 174.171C189.255 174.1 189.224 174.03 189.194 173.963C188.959 173.447 188.667 173.029 188.316 172.708C187.919 172.347 187.459 172.076 186.933 171.895C186.408 171.714 185.822 171.604 185.177 171.565C184.531 171.525 183.827 171.516 183.067 171.538C182.598 171.552 182.196 171.544 181.863 171.513C181.529 171.483 181.246 171.421 181.015 171.328C180.783 171.235 180.594 171.107 180.449 170.944C180.304 170.782 180.185 170.585 180.09 170.351C179.995 170.118 179.941 169.885 179.927 169.655C179.913 169.426 179.947 169.208 180.03 169C180.112 168.793 180.247 168.603 180.434 168.428C180.619 168.253 180.866 168.103 181.172 167.979C181.737 167.749 182.264 167.755 182.754 167.994C183.243 168.233 183.641 168.732 183.949 169.491L186.898 168.293C186.64 167.662 186.319 167.128 185.933 166.692C185.546 166.257 185.111 165.921 184.625 165.683C184.14 165.445 183.613 165.306 183.041 165.266C182.471 165.226 181.877 165.286 181.262 165.448L180.426 163.391L178.793 164.054L179.616 166.083C179.026 166.388 178.528 166.744 178.117 167.15C177.707 167.556 177.392 167.995 177.172 168.467C176.951 168.94 176.836 169.436 176.824 169.956C176.814 170.476 176.917 171.004 177.135 171.54C177.387 172.16 177.711 172.651 178.107 173.012C178.504 173.374 178.964 173.644 179.488 173.821C180.011 173.999 180.597 174.105 181.245 174.139C181.893 174.175 182.599 174.173 183.359 174.137C183.801 174.112 184.185 174.115 184.51 174.145C184.835 174.175 185.116 174.238 185.353 174.333C185.59 174.428 185.786 174.562 185.943 174.733C186.1 174.905 186.233 175.124 186.34 175.39C186.435 175.624 186.482 175.857 186.481 176.089C186.481 176.322 186.428 176.544 186.323 176.755C186.219 176.966 186.063 177.162 185.855 177.343C185.647 177.523 185.383 177.678 185.063 177.808C184.783 177.921 184.496 177.996 184.198 178.033C183.899 178.07 183.608 178.04 183.324 177.945C183.04 177.851 182.775 177.679 182.527 177.43C182.279 177.181 182.063 176.832 181.881 176.384L178.933 177.581C179.24 178.34 179.628 178.941 180.092 179.384C180.558 179.828 181.068 180.146 181.621 180.338C182.174 180.529 182.752 180.612 183.357 180.588C183.962 180.563 184.558 180.466 185.145 180.292L185.907 182.169L187.529 181.51L186.764 179.625C187.353 179.32 187.858 178.967 188.278 178.569C188.668 178.2 188.972 177.802 189.191 177.376C189.209 177.342 189.227 177.307 189.243 177.271C189.465 176.807 189.585 176.312 189.599 175.791C189.614 175.266 189.508 174.728 189.283 174.171Z" fill="#FFA412"/>
<g opacity="0.7">
<g opacity="0.7">
<path opacity="0.7" d="M286.237 171.248C286.237 171.248 289.02 168.002 286.409 165.941C286.409 165.941 284.502 164.787 282.947 164.88C282.947 164.88 285.15 168.574 284.438 168.941C283.725 169.309 282.28 164.647 282.28 164.647C282.28 164.647 277.941 164.227 276.546 164.897C276.546 164.897 280.255 167.933 279.473 168.114C278.693 168.295 274.685 165.315 274.685 165.315C274.685 165.315 270.647 166.002 270.862 168.466C271.076 170.93 272.469 171.691 273.08 171.625C273.692 171.559 277.27 170.194 277.347 170.695C277.425 171.196 275.272 172.834 273.763 172.91C273.763 172.91 276.61 176.051 278.504 175.144C280.396 174.238 280.558 172.801 281.737 172.262C282.916 171.724 283.924 171.725 283.436 172.274C282.949 172.823 280.815 173.358 280.14 174.55C279.465 175.743 278.861 176.548 280.819 176.254C282.777 175.959 285.959 174.527 286.099 172.886C286.237 171.248 286.237 171.248 286.237 171.248Z" fill="#77A4E5"/>
<g opacity="0.7">
<path opacity="0.7" d="M272.846 168.534C272.846 168.534 283.815 168.111 286.238 171.248C286.238 171.248 286.774 172.853 288.423 174.313L288.68 175.014C288.68 175.014 286.78 173.01 286.099 172.888C286.098 172.888 287.161 169.002 272.846 168.534Z" fill="#77A4E5"/>
<path opacity="0.7" d="M288.422 174.313C288.422 174.313 290.777 176.054 290.94 179.165L290.513 179.204C290.513 179.204 289.76 175.987 288.402 174.729C287.043 173.472 288.422 174.313 288.422 174.313Z" fill="#77A4E5"/>
</g>
</g>
<g opacity="0.7">
<path opacity="0.7" d="M294.816 168.593C294.816 168.593 290.915 166.408 292.736 163.443C292.736 163.443 294.193 161.622 295.753 161.154C295.753 161.154 294.921 165.575 295.753 165.679C296.585 165.784 296.325 160.685 296.325 160.685C296.325 160.685 300.433 158.708 302.046 158.865C302.046 158.865 299.498 163.182 300.33 163.078C301.162 162.973 304.023 158.604 304.023 158.604C304.023 158.604 308.236 157.823 308.913 160.32C309.589 162.817 308.497 164.065 307.873 164.221C307.248 164.377 303.243 164.326 303.347 164.846C303.452 165.366 306.156 166.198 307.665 165.73C307.665 165.73 306 169.838 303.815 169.63C301.631 169.423 300.955 168.07 299.602 167.966C298.25 167.861 297.262 168.226 297.938 168.59C298.614 168.954 300.903 168.71 301.995 169.639C303.088 170.567 303.972 171.139 301.943 171.556C299.915 171.971 296.273 171.712 295.545 170.152C294.816 168.593 294.816 168.593 294.816 168.593Z" fill="#77A4E5"/>
<g opacity="0.7">
<path opacity="0.7" d="M306.987 161.102C306.987 161.102 296.064 164.639 294.815 168.593C294.815 168.593 294.867 170.362 293.775 172.39V173.171C293.775 173.171 294.919 170.518 295.544 170.154C295.544 170.153 293.1 166.72 306.987 161.102Z" fill="#77A4E5"/>
<path opacity="0.7" d="M293.776 172.389C293.776 172.389 292.091 174.947 293.052 178.061L293.485 177.945C293.485 177.945 293.065 174.515 293.945 172.791C294.827 171.065 293.776 172.389 293.776 172.389Z" fill="#77A4E5"/>
</g>
</g>
<g opacity="0.7">
<path opacity="0.7" d="M288.925 163.748C288.925 163.748 294.758 160.481 292.035 156.047C292.035 156.047 289.858 153.325 287.524 152.625C287.524 152.625 288.768 159.237 287.524 159.393C286.28 159.548 286.668 151.925 286.668 151.925C286.668 151.925 280.524 148.97 278.113 149.203C278.113 149.203 281.925 155.659 280.68 155.504C279.436 155.349 275.158 148.815 275.158 148.815C275.158 148.815 268.858 147.648 267.847 151.382C266.836 155.115 268.469 156.983 269.402 157.215C270.336 157.449 276.325 157.371 276.17 158.148C276.014 158.926 271.97 160.171 269.713 159.47C269.713 159.47 272.202 165.614 275.469 165.303C278.736 164.992 279.747 162.97 281.77 162.815C283.792 162.659 285.27 163.203 284.258 163.748C283.248 164.293 279.824 163.926 278.191 165.315C276.559 166.704 275.236 167.56 278.269 168.182C281.302 168.804 286.747 168.415 287.836 166.082C288.925 163.748 288.925 163.748 288.925 163.748Z" fill="#9FC1F4"/>
<g opacity="0.7">
<path opacity="0.7" d="M270.723 152.548C270.723 152.548 287.057 157.837 288.923 163.748C288.923 163.748 288.846 166.393 290.479 169.426V170.593C290.479 170.593 288.767 166.626 287.834 166.082C287.835 166.082 291.491 160.948 270.723 152.548Z" fill="#9FC1F4"/>
<path opacity="0.7" d="M290.48 169.426C290.48 169.426 292.999 173.252 291.562 177.908L290.914 177.734C290.914 177.734 291.543 172.605 290.225 170.026C288.908 167.446 290.48 169.426 290.48 169.426Z" fill="#9FC1F4"/>
</g>
</g>
<path opacity="0.7" d="M288.784 186.963C283.22 186.963 278.71 182.453 278.71 176.89H298.857C298.857 182.453 294.347 186.963 288.784 186.963Z" fill="#9FC1F4"/>
<path opacity="0.7" d="M278.482 177.199H299.188V176.89H278.482V177.199Z" fill="#77A4E5"/>
<path opacity="0.7" d="M293.085 186.963H283.654C283.654 186.517 284.015 186.156 284.461 186.156H292.277C292.723 186.154 293.085 186.517 293.085 186.963Z" fill="#77A4E5"/>
</g>
<path d="M227.385 119.331C214.423 129.884 198.895 137.996 181.23 143.442C166.881 147.864 150.984 150.573 133.979 151.497C129.342 151.749 124.824 151.859 120.476 151.859C111.685 151.859 103.578 151.411 96.5132 150.789L99.3717 137.264C109.113 138.058 120.747 138.475 133.317 137.793C149.321 136.926 164.226 134.392 177.614 130.266C193.725 125.298 207.817 117.959 219.494 108.45L227.385 119.331Z" fill="#F77D48"/>
<path d="M130.745 92.3623C128.943 91.4279 127.498 92.0148 127.498 92.0148C121.983 91.3668 120.374 97.7987 120.449 100.012C120.523 102.224 120.777 104.602 118.314 107.476C111.2 115.781 126.099 116.147 126.099 116.147C126.225 109.512 134.18 111.933 133.831 112.605C144.025 115.053 134.844 94.4882 130.745 92.3623Z" fill="#163560"/>
<path d="M109.472 120.023C109.472 120.023 108.502 118.546 107.721 118.518C106.939 118.489 105.491 118.084 105.608 118.374C105.724 118.664 106.621 118.692 106.707 118.866C106.794 119.039 105.376 119.3 104.97 119.329C104.565 119.359 103.609 119.329 103.639 119.533C103.668 119.736 105.361 120.575 106.555 120.459C107.75 120.343 109.226 120.806 109.226 120.806L109.472 120.023Z" fill="#FFB27D"/>
<path d="M123.497 120.501C123.497 120.501 122.97 121.545 122.013 122.744C120.86 124.188 119.084 125.855 116.853 126.184C115.787 126.341 114.744 126.112 113.786 125.686C113.784 125.685 113.783 125.685 113.783 125.685C111.073 124.482 109.036 121.716 109.036 121.716C108.558 120.413 109.34 119.53 109.34 119.53C109.34 119.53 114.811 120.76 115.332 120.5C115.854 120.239 118.893 111.483 119.617 110.382C120.341 109.282 122.808 108.71 122.808 108.71L123.497 120.501Z" fill="#F99746"/>
<path d="M122.014 122.744C120.861 124.188 119.085 125.855 116.854 126.184C115.788 126.341 114.745 126.112 113.787 125.686C113.893 125.7 116.6 126.035 117.678 124.105C118.778 122.136 119.968 119.01 121.602 120.051C122.309 120.502 122.277 121.62 122.014 122.744Z" fill="#ED7D2B"/>
<path d="M143.91 179.562C143.91 179.562 145.579 181.085 145.254 182.168C144.929 183.25 143.422 183.972 143.218 185.295C143.014 186.618 142.201 187.34 141.467 187.34C140.734 187.34 137.972 187.34 137.972 187.34C137.972 187.34 137.432 186.409 138.735 186.129C140.038 185.848 140.53 184.294 140.448 182.85C140.367 181.406 140.57 179.482 140.57 179.482L143.339 178.841L143.91 179.562Z" fill="#36599E"/>
<path d="M129.78 180.209C129.78 180.209 130.381 186.663 129.647 187.024L120.266 187.006C120.266 187.006 120.266 185.923 121.772 185.683C123.279 185.442 125.926 184.56 126.374 182.595C126.823 180.629 129.78 180.209 129.78 180.209Z" fill="#2B478B"/>
<path d="M136.464 133.902C134.534 129.573 133.353 128.331 133.578 126.987C133.746 125.987 133.068 108.342 133.068 108.342C132.839 108.271 132.38 108.207 132.129 108.151C131.336 107.975 130.681 107.42 130.409 106.656C130.08 105.736 129.82 104.377 129.825 102.675L129.578 102.723L125.42 103.546C125.42 103.546 125.515 104.855 125.517 106.088C125.517 106.098 125.517 106.108 125.517 106.118C125.522 107.189 124.82 108.134 123.791 108.431C123.267 108.582 122.809 108.711 122.809 108.711C122.809 108.711 121.282 113.07 120.991 117.547C120.699 122.025 123.767 123.97 120.967 132.917C118.11 142.056 137.53 136.294 136.464 133.902Z" fill="#FFB27D"/>
<path d="M125.42 103.546C125.42 103.546 125.515 104.855 125.517 106.088C127.844 106.022 129.073 103.9 129.578 102.723L125.42 103.546Z" fill="#E8945B"/>
<path d="M124.643 104.713C124.643 104.713 130.147 104.803 130.15 101.374C130.154 97.9454 130.868 95.6481 127.353 95.445C123.838 95.2419 123.154 96.5496 122.875 97.6942C122.595 98.8388 123.21 104.602 124.643 104.713Z" fill="#FFB27D"/>
<path d="M124.846 95.3628C124.846 95.3628 126.353 99.3858 128.666 99.9798C130.978 100.575 131.982 99.9552 131.982 99.9552C131.982 99.9552 130.208 98.5453 129.84 96.0859C129.84 96.0848 125.983 93.4482 124.846 95.3628Z" fill="#163560"/>
<path d="M125.22 95.6892C125.22 95.6892 124.103 96.1071 123.642 96.9218C123.193 97.7189 122.809 98.7742 122.898 100.069C122.898 100.069 121.763 97.335 123.039 95.7878C124.391 94.149 125.22 95.6892 125.22 95.6892Z" fill="#163560"/>
<path d="M125.84 102.586C125.84 102.586 125.46 103.086 124.7 103.05C124.088 103.02 123.853 102.49 123.853 102.49C123.853 102.49 124.976 102.22 125.84 102.586Z" fill="#EBF3FA"/>
<path d="M136.996 116.147C136.996 116.147 137.135 118.118 136.996 120.482C136.903 122.049 135.317 124.149 135.091 124.668C134.527 125.971 133.891 126.183 133.891 126.183L128.965 127.389L127.233 127.813L121.772 126.183C121.772 126.183 119.285 119.24 120.284 115.332C121.283 111.424 122.809 108.71 122.809 108.71C122.809 108.71 127.265 113.074 133.068 108.34L136.996 116.147Z" fill="#F99746"/>
<path d="M122.12 127.238C122.12 127.238 119.415 135.656 119.241 138.522C119.068 141.387 124.411 179.235 124.626 180.556C124.829 181.8 126.374 182.594 126.374 182.594C126.374 182.594 127.086 183.013 128.1 182.727C129.507 182.329 129.952 181.853 129.952 181.853C129.952 181.853 132.057 154.86 130.755 145.218C129.452 135.575 129.437 127.237 129.437 127.237H122.12V127.238Z" fill="#233862"/>
<path d="M133.578 126.987C133.578 126.987 137.704 132.522 138.089 136.263C138.474 140.004 138.692 153.148 139.511 156.795C140.331 160.442 143.341 167.462 143.341 178.839C143.341 178.839 143.027 179.49 142.061 179.838C141.752 179.949 141.338 180.056 140.936 180.149C140.139 180.332 139.322 179.942 138.958 179.21C136.923 175.111 130.44 161.896 130.108 159.152C129.873 157.21 127.826 144.361 123.361 136.822C122.289 135.012 124.018 127.813 124.018 127.813L133.578 126.987Z" fill="#2B478B"/>
<path d="M125.718 102.679C125.718 102.679 125.623 103.082 124.618 103.02C124.618 103.02 123.774 102.967 123.8 102.524C123.8 102.524 124.618 102.208 125.718 102.679Z" fill="white"/>
<path d="M121.688 125.939C121.688 125.939 122.774 126.798 124.93 126.841C127.507 126.893 133.889 126.185 133.889 126.185C133.889 126.185 134.174 126.977 134.162 127.814C134.162 127.814 126.365 129.781 121.847 128.102C121.849 128.1 121.265 127.004 121.688 125.939Z" fill="#233862"/>
<path d="M124.313 129.061C123.665 129.061 123.138 128.465 123.138 127.731C123.138 126.997 123.665 126.401 124.313 126.401C124.961 126.401 125.488 126.997 125.488 127.731C125.488 128.464 124.961 129.061 124.313 129.061ZM124.313 126.79C123.88 126.79 123.526 127.211 123.526 127.73C123.526 128.249 123.878 128.671 124.313 128.671C124.746 128.671 125.099 128.249 125.099 127.73C125.098 127.211 124.746 126.79 124.313 126.79Z" fill="white"/>
<path d="M132.769 116.532L124.781 123.487L134.301 134.421L142.289 127.466L132.769 116.532Z" fill="#B5453C"/>
<path d="M132.089 127.487C132.089 127.487 129.162 127.83 129.171 128.523C129.181 129.218 129.9 130.646 130.262 130.709C130.624 130.773 132.644 128.779 132.644 128.779L132.089 127.487Z" fill="#FFB27D"/>
<path d="M133.066 108.342C133.066 108.342 136.974 108.615 138.471 112.257C139.969 115.898 142.811 122.011 142.811 123.039C142.811 124.067 141.224 127.238 132.698 129.06C132.698 129.06 131.816 128.133 131.869 127.399C131.869 127.399 137.19 122.828 137.176 122.294C137.149 121.283 136.304 119.949 131.632 115.275C130.363 114.005 133.066 108.342 133.066 108.342Z" fill="#F99746"/>
<path d="M48.5447 187.331H48.506C48.2782 187.331 48.0951 187.144 48.101 186.916L48.7149 160.285L50.5251 160.074L48.9814 186.919C48.9685 187.15 48.7771 187.331 48.5447 187.331Z" fill="#95C0F4"/>
<path d="M77.6496 187.331H77.6883C77.9161 187.331 78.0992 187.144 78.0933 186.916L77.4794 160.285L75.6692 160.074L77.2129 186.919C77.2258 187.15 77.4183 187.331 77.6496 187.331Z" fill="#B0D4FF"/>
<path d="M47.3462 158.633V140.384C47.3462 137.173 49.9488 134.569 53.1606 134.569H66.3084C69.5191 134.569 72.1228 137.172 72.1228 140.384V159.331L47.3462 158.633Z" fill="#B0D4FF"/>
<path d="M74.4788 161.514H49.0918C48.128 161.514 47.3462 160.732 47.3462 159.768V158.633H74.4788V161.514Z" fill="#95C0F4"/>
<path d="M77.5204 161.514H58.314C57.6014 161.514 57.0227 160.936 57.0227 160.223V159.923C57.0227 159.211 57.6003 158.632 58.314 158.632H77.5204C78.233 158.632 78.8117 159.21 78.8117 159.923V160.223C78.8117 160.936 78.2341 161.514 77.5204 161.514Z" fill="#B0D4FF"/>
<path d="M76.775 154.085C74.8909 157.364 72.5219 158.63 72.5219 158.63H62.6658C62.6658 158.63 78.2119 151.585 76.775 154.085Z" fill="#233862"/>
<path d="M69.2057 179.45C68.9486 179.745 68.9158 180.074 69.0437 180.425C69.0437 180.426 69.0449 180.428 69.0461 180.429C69.2808 181.078 70.058 181.804 70.9595 182.528C71.0746 182.621 71.1779 182.705 71.2671 182.784C71.2906 182.804 71.3141 182.825 71.3364 182.846C71.354 182.863 71.3716 182.879 71.3892 182.894C72.2309 183.67 71.9139 183.848 73.4247 185.421C75.148 187.213 76.3349 187.246 76.6718 187.083C76.957 186.943 76.3771 185.992 75.7338 184.924C75.7021 184.873 75.6716 184.821 75.6399 184.768C75.5542 184.626 75.4697 184.482 75.384 184.338C74.6304 183.052 74.824 182.448 75.0025 180.534C75.148 178.978 77.4231 171.842 77.4231 171.842L74.1209 171.273C74.1209 171.273 73.1266 176.954 72.0301 177.83C71.4444 178.296 70.7881 178.302 70.2247 178.648C70.1848 178.673 70.146 178.698 70.1073 178.722C69.7892 178.936 69.4628 179.156 69.2057 179.45Z" fill="#FFB27D"/>
<path d="M69.2057 179.45C68.9486 179.745 68.9158 180.074 69.0437 180.425C69.0437 180.426 69.0449 180.428 69.0461 180.429C69.3337 181.078 70.0908 181.8 70.9631 182.522C71.0769 182.617 71.1779 182.704 71.2671 182.785C71.2906 182.805 71.3141 182.826 71.3364 182.847C71.354 182.864 71.3716 182.88 71.3892 182.896C72.2309 183.672 71.9139 183.849 73.4248 185.422C75.1481 187.214 76.3349 187.247 76.6718 187.084C76.9571 186.944 76.3772 185.994 75.7339 184.925C75.3981 184.802 73.8403 184.169 72.6617 182.662C71.624 181.338 70.9325 179.637 70.2258 178.651C70.1859 178.675 70.1472 178.7 70.1085 178.725C69.7891 178.936 69.4628 179.156 69.2057 179.45Z" fill="#233862"/>
<path d="M95.8349 177.388C96.0391 178.407 97.4913 178.238 99.1148 177.841C100.738 177.444 100.352 177.916 102.662 177.66C104.973 177.404 105.672 176.542 105.743 176.2C105.806 175.894 104.664 175.788 103.439 175.647C103.286 175.629 103.131 175.61 102.976 175.592C101.593 175.418 100.581 174.526 99.3249 173.793C98.1357 173.099 96.3608 170.271 96.3608 170.271L93.1924 170.523C93.1924 170.523 94.8546 173.048 95.498 174.146C95.876 174.792 95.856 175.647 95.809 176.305C95.7856 176.662 95.7621 177.028 95.8349 177.388Z" fill="#FFB27D"/>
<path d="M99.1146 177.841C100.738 177.444 100.352 177.916 102.662 177.66C104.972 177.404 105.672 176.542 105.742 176.2C105.806 175.894 104.664 175.788 103.439 175.647L103.428 175.67C103.428 175.67 102.042 176.653 100.118 176.699C98.5511 176.736 96.89 176.288 95.8077 176.305C95.783 176.663 95.7595 177.03 95.8323 177.389C96.0377 178.408 97.4911 178.238 99.1146 177.841Z" fill="#233862"/>
<path d="M83.6917 157.127L80.7299 165.098L76.8631 175.505C76.8631 175.505 75.8136 175.606 74.8087 175.317C73.8837 175.049 72.8213 174.35 72.8213 174.35C72.8213 174.35 73.8954 163.175 75.8981 156.761C76.4111 155.114 76.9863 153.783 77.6214 153.032C80.7264 149.364 83.6917 157.127 83.6917 157.127Z" fill="#233862"/>
<path d="M80.6795 144.469C78.739 143.843 73.204 144.646 67.6444 145.735L66.4799 143.815L54.4707 142.877C54.4707 142.877 50.5076 151.665 52.677 157.264C52.9963 158.087 53.629 158.616 54.709 158.632C54.709 158.632 54.884 158.632 54.8851 158.632C54.8851 158.632 62.0319 158.627 64.3539 158.627C70.3256 158.627 76.9934 154.522 77.8551 154.35C79.2673 154.067 79.832 156.891 81.243 159.855C82.654 162.819 94.5129 172.984 94.5129 172.984C94.5129 172.984 96.336 173.002 97.0885 172.72C97.8985 172.416 98.1943 172.022 98.1943 172.022C98.1943 172.022 85.0559 145.881 80.6795 144.469Z" fill="#2B478B"/>
<path d="M66.0078 108.848C64.4688 108.04 62.1292 107.931 61.7489 107.879C57.1988 107.267 54.46 113.88 54.298 115.884C54.001 119.577 52.0476 120.141 49.2972 122.453C43.7833 127.09 45.3998 132.48 48.4156 134.482C50.2246 135.684 53.4129 134.482 53.4129 134.482C53.4575 134.514 62.1327 129.633 66.4093 127.278C72.8212 126.366 69.9287 110.907 66.0078 108.848Z" fill="#B5453C"/>
<path d="M62.8255 125.273C62.8443 125.285 60.7218 126.01 59.3026 125.381C57.9667 124.79 56.9559 122.594 56.9759 122.593C57.5828 122.565 58.2507 122.034 58.7637 118.549L59.022 118.642L63.3714 120.206C63.3714 120.206 63.0567 121.602 62.8525 122.931C62.6811 124.046 62.5884 125.116 62.8255 125.273Z" fill="#FFB27D"/>
<path d="M63.3713 120.208C63.3713 120.208 63.0567 121.603 62.8524 122.932C60.3544 122.483 59.3741 119.994 59.022 118.643L63.3713 120.208Z" fill="#ED975D"/>
<path d="M64.0193 121.592C64.0193 121.592 58.0688 120.793 58.6229 117.094C59.1769 113.396 58.7825 110.802 62.6048 111.157C66.427 111.51 66.9529 113.031 67.068 114.311C67.183 115.59 65.5806 121.704 64.0193 121.592Z" fill="#FFB27D"/>
<path d="M66.8508 112.285C66.8508 112.285 63.0415 115.567 60.4506 115.832C57.8598 116.096 56.8784 115.265 56.8784 115.265C56.8784 115.265 58.4057 113.998 59.3249 111.951C59.596 111.348 60.1677 110.935 60.8263 110.877C62.6776 110.716 66.184 110.644 66.8508 112.285Z" fill="#B5453C"/>
<path d="M64.4702 111.99C64.4702 111.99 65.7451 113.223 66.1454 114.136C66.5328 115.018 66.649 117.127 66.3403 117.965C66.3403 117.965 68.3253 114.104 67.2019 112.228C66.0104 110.24 64.4702 111.99 64.4702 111.99Z" fill="#B5453C"/>
<path d="M67.8368 134.039C67.6572 146.084 67.7875 143.567 66.4692 144.709C66.1511 144.984 65.2589 145.148 64.085 145.226C60.3919 145.471 53.899 144.862 53.6513 144.18C52.799 141.818 53.4012 141.084 52.6898 137.469C52.6159 137.084 52.5243 136.668 52.4163 136.215C51.8235 133.731 51.2471 132.887 53.3496 128.897C55.256 125.282 57.2376 122.35 57.4148 122.456C62.4451 125.442 62.8512 122.932 62.8512 122.932C62.8512 122.932 67.9249 128.163 67.8368 134.039Z" fill="#8C9DF4"/>
<path d="M80.7287 165.098L76.8619 175.505C76.8619 175.505 75.8124 175.606 74.8075 175.317C73.8825 175.049 72.8201 174.35 72.8201 174.35C72.8201 174.35 73.8942 163.175 75.8969 156.761L80.7287 165.098Z" fill="#2B478B"/>
<path d="M62.8525 122.931C62.8525 122.931 68.0283 123.809 68.6364 126.037C69.2445 128.266 72.8214 141.367 72.8214 141.367C72.8214 141.367 70.1895 141.84 68.9745 140.624C67.7583 139.408 64.7449 129.346 64.7449 129.346L62.8525 122.931Z" fill="#8C9DF4"/>
<path d="M64.0851 145.227C60.392 145.472 53.8991 144.863 53.6514 144.181C52.7991 141.819 53.4013 141.086 52.6899 137.47L54.4719 132.454C54.4719 132.454 54.1773 138.04 55.8243 139.509C57.4701 140.979 62.5696 142.345 63.3702 143.573C63.7564 144.161 64.0112 144.753 64.0851 145.227Z" fill="#6980E2"/>
<path d="M59.8533 142.877C59.8533 142.877 63.4971 142.066 64.0852 142.389C64.6734 142.711 66.1102 143.89 66.2899 144.3C66.4695 144.709 64.9809 143.989 64.4961 143.858C64.1827 143.774 63.3562 144.061 62.9477 144.198C61.2279 144.77 60.1738 144.476 60.1738 144.476L59.8533 142.877Z" fill="#FFB27D"/>
<path d="M57.4125 122.453C57.4125 122.453 52.5197 122.755 50.8257 125.117C48.4415 128.443 43.7118 142.614 46.4224 144.505C49.4745 146.633 60.3156 145.062 60.3156 145.062C60.3156 145.062 60.676 143.376 60.1748 142.56C59.6723 141.744 51.516 140.427 51.1392 140.05C50.7623 139.673 55.8454 132.708 55.8454 131.579C55.8454 130.45 57.4125 122.453 57.4125 122.453Z" fill="#8C9DF4"/>
<path d="M64.2612 143.404C64.2612 143.404 65.0243 144.389 65.2755 144.506C65.5255 144.624 65.6875 144.594 65.6875 144.594L65.1734 143.668L64.2612 143.404Z" fill="#FFB27D"/>
<path d="M64.085 142.39L66.3048 143.467C66.3048 143.467 66.2109 143.622 65.9374 143.609C65.6639 143.597 64.9748 143.345 64.9748 143.345L64.085 142.39Z" fill="#FFB27D"/>
<path d="M64.4724 146.015H83.1998L88.8334 132.88H70.1342L64.4724 146.015Z" fill="#F77D48"/>
<path d="M83.4193 145.164H58.6885V145.994H83.1998L83.4193 145.164Z" fill="#F77D48"/>
<path d="M78.4725 139.447C78.6134 138.985 78.3293 138.611 77.8363 138.611C77.3433 138.611 76.8303 138.985 76.6894 139.447C76.5485 139.908 76.8326 140.283 77.3256 140.283C77.8175 140.284 78.3317 139.909 78.4725 139.447Z" fill="#EBF3FA"/>
<path d="M110.891 187.697H110.943C111.244 187.697 111.485 187.423 111.478 187.092L110.666 148.235L108.272 147.927L110.314 187.096C110.33 187.433 110.584 187.697 110.891 187.697Z" fill="#233862"/>
<path d="M60.4355 187.697H60.3851C60.0845 187.697 59.8427 187.423 59.8498 187.092L60.6621 148.235L63.0557 147.927L61.0143 187.096C60.9955 187.433 60.7419 187.697 60.4355 187.697Z" fill="#233862"/>
<path d="M111.834 148.796H57.307C56.8257 148.796 56.4348 148.405 56.4348 147.924V146.887C56.4348 146.406 56.8257 146.015 57.307 146.015H111.833C112.314 146.015 112.705 146.406 112.705 146.887V147.924C112.706 148.405 112.315 148.796 111.834 148.796Z" fill="#233862"/>
<path d="M311.16 188.228H15.5919C15.3571 188.228 15.1658 188.036 15.1658 187.801V187.389C15.1658 187.155 15.3571 186.963 15.5919 186.963H311.159C311.393 186.963 311.585 187.155 311.585 187.389V187.801C311.585 188.035 311.393 188.228 311.16 188.228Z" fill="#2E3552"/>
</svg>
